M48
; DRILL file KiCad 10.0.4 date 2026-07-18T10:14:22
; FORMAT={-:-/ absolute / inch / decimal}
; #@! TF.CreationDate,2026-07-18T10:14:22-04:00
; #@! TF.GenerationSoftware,Kicad,Pcbnew,10.0.4
; #@! TF.FileFunction,Plated,1,4,PTH
FMAT,2
INCH
; #@! TA.AperFunction,Plated,PTH,ViaDrill
T1C0.0118
; #@! TA.AperFunction,Plated,PTH,ComponentDrill
T2C0.0118
; #@! TA.AperFunction,Plated,PTH,ViaDrill
T3C0.0120
; #@! TA.AperFunction,Plated,PTH,ComponentDrill
T4C0.0197
; #@! TA.AperFunction,Plated,PTH,ComponentDrill
T5C0.0236
; #@! TA.AperFunction,Plated,PTH,ComponentDrill
T6C0.0390
; #@! TA.AperFunction,Plated,PTH,ComponentDrill
T7C0.0394
; #@! TA.AperFunction,Plated,PTH,ComponentDrill
T8C0.0510
; #@! TA.AperFunction,Plated,PTH,ComponentDrill
T9C0.0910
%
G90
G05
T1
X2.9008Y-5.0244
X2.9213Y-4.8805
X2.9804Y-4.7351
X2.9835Y-4.998
X3.1772Y-4.998
X3.1811Y-4.6043
X3.2256Y-5.3283
X3.26Y-5.3282
X3.2681Y-4.6009
X3.27Y-4.69
X3.2756Y-4.8799
X3.2756Y-5.0571
X3.2756Y-5.2343
X3.3543Y-5.0335
X3.3819Y-4.6037
X3.4764Y-5.1555
X3.5217Y-5.2677
X3.5283Y-5.0354
X3.552Y-5.0354
X3.5866Y-4.6909
X3.6197Y-4.8921
T2
X3.2231Y-4.9219
X3.2231Y-4.9665
X3.2231Y-5.0112
X3.2677Y-4.9219
X3.2677Y-4.9665
X3.2677Y-5.0112
X3.3123Y-4.9219
X3.3123Y-4.9665
X3.3123Y-5.0112
T3
X0.8781Y-4.4329
X0.8781Y-4.5313
X0.8781Y-4.6297
X0.9766Y-4.4329
X0.9766Y-4.5313
X0.9766Y-4.6297
X1.0232Y-5.1607
X1.075Y-4.4329
X1.075Y-4.5313
X1.075Y-4.6297
X1.1823Y-4.7165
X1.1823Y-4.7555
X1.1823Y-4.7945
X1.2132Y-6.2016
X1.2197Y-5.7205
X1.2197Y-5.752
X1.2197Y-5.7835
X1.2197Y-5.815
X1.2313Y-6.7242
X1.2406Y-6.2016
X1.2463Y-5.7047
X1.2463Y-5.7362
X1.2463Y-5.7677
X1.2463Y-5.7992
X1.2463Y-5.8307
X1.2523Y-4.3436
X1.2679Y-6.2016
X1.2717Y-5.664
X1.2717Y-5.8714
X1.2736Y-5.7205
X1.2736Y-5.752
X1.2736Y-5.7835
X1.2736Y-5.815
X1.2765Y-3.5803
X1.2874Y-5.6913
X1.2874Y-5.8442
X1.2976Y-5.0002
X1.298Y-4.8701
X1.3031Y-5.664
X1.3031Y-5.8714
X1.3033Y-4.3436
X1.3063Y-6.2957
X1.3071Y-5.7205
X1.3071Y-5.752
X1.3071Y-5.7835
X1.3071Y-5.815
X1.3091Y-4.7113
X1.3158Y-3.5803
X1.3189Y-5.6913
X1.3189Y-5.8442
X1.3307Y-5.7205
X1.3307Y-5.752
X1.3307Y-5.7835
X1.3307Y-5.815
X1.3337Y-6.2957
X1.3346Y-5.664
X1.3346Y-5.8714
X1.3504Y-5.6913
X1.3504Y-5.8442
X1.3544Y-4.3436
X1.3552Y-3.5803
X1.3594Y-4.8407
X1.361Y-6.2957
X1.3634Y-5.7205
X1.3634Y-5.752
X1.3634Y-5.7835
X1.3634Y-5.815
X1.3661Y-5.664
X1.3661Y-5.8714
X1.3819Y-4.8878
X1.3819Y-5.6913
X1.3819Y-5.8442
X1.387Y-5.7205
X1.387Y-5.752
X1.387Y-5.7835
X1.387Y-5.815
X1.3988Y-6.2945
X1.4014Y-6.8198
X1.4055Y-4.3436
X1.4262Y-6.2945
X1.4418Y-5.1321
X1.4535Y-6.2945
X1.4566Y-4.3436
X1.4657Y-5.7205
X1.4657Y-5.752
X1.4657Y-5.7835
X1.4657Y-5.815
X1.4957Y-6.2949
X1.5077Y-4.3436
X1.523Y-6.2949
X1.5504Y-6.2949
X1.5516Y-4.5323
X1.5588Y-4.3436
X1.5656Y-6.7569
X1.5728Y-4.7539
X1.6099Y-4.3436
X1.6339Y-5.7205
X1.6339Y-5.752
X1.6339Y-5.7835
X1.6339Y-5.815
X1.6594Y-4.8465
X1.661Y-4.3436
X1.7047Y-5.7205
X1.7047Y-5.752
X1.7047Y-5.7835
X1.7047Y-5.815
X1.7121Y-4.3436
X1.7134Y-4.7681
X1.7272Y-3.5799
X1.7402Y-5.0906
X1.7632Y-4.3436
X1.7665Y-3.5799
X1.7748Y-5.7205
X1.7748Y-5.752
X1.7748Y-5.7835
X1.7748Y-5.815
X1.8059Y-3.5799
X1.8143Y-4.3436
X1.8346Y-4.4075
X1.8346Y-4.4557
X1.8346Y-4.5039
X1.8346Y-4.564
X1.8346Y-4.6122
X1.8346Y-4.6604
X1.8653Y-4.3436
X1.9055Y-4.8228
X1.9106Y-5.5228
X1.9164Y-4.3436
X1.938Y-5.5228
X1.9429Y-5.7205
X1.9429Y-5.752
X1.9429Y-5.7835
X1.9429Y-5.815
X1.9654Y-5.5228
X2.05Y-5.3343
X2.0827Y-4.5659
X2.0827Y-4.6142
X2.1657Y-6.0972
X2.1657Y-6.1246
X2.1657Y-6.152
X2.2043Y-4.2268
X2.2043Y-4.2661
X2.2047Y-4.465
X2.2047Y-4.5043
X2.2106Y-5.4783
X2.215Y-4.1091
X2.2437Y-4.2268
X2.2437Y-4.2661
X2.2441Y-4.465
X2.2441Y-4.5043
X2.2728Y-5.5969
X2.2823Y-5.2417
X2.3031Y-3.9543
X2.3358Y-5.3724
X2.3437Y-5.7705
X2.3528Y-3.8157
X2.3921Y-3.8157
X2.3992Y-5.6024
X2.4012Y-4.9799
X2.422Y-4.1358
X2.422Y-4.1752
X2.4484Y-4.0577
X2.4579Y-3.9587
X2.4614Y-4.1358
X2.4614Y-4.1752
X2.4614Y-4.2886
X2.4969Y-5.1043
X2.5122Y-4.2972
X2.5209Y-4.9303
X2.5374Y-5.472
X2.5425Y-5.2953
X2.5551Y-4.1768
X2.5728Y-5.8114
X2.5811Y-5.1433
X2.5811Y-5.2173
X2.6134Y-5.0728
X2.624Y-4.5949
X2.6358Y-3.874
X2.6425Y-5.4331
X2.6445Y-5.3764
X2.6572Y-4.1799
X2.6587Y-4.6756
X2.6742Y-3.874
X2.6902Y-4.2264
X2.702Y-5.0094
X2.7126Y-3.874
X2.7598Y-3.5295
X2.7598Y-3.5846
X2.7598Y-3.6398
X2.7677Y-6.4354
X2.7776Y-4.3441
X2.8059Y-6.4961
X2.8071Y-3.5295
X2.8071Y-3.5846
X2.8071Y-3.6398
X2.8169Y-4.1975
X2.822Y-4.8748
X2.8543Y-3.5295
X2.8543Y-3.5846
X2.8543Y-3.6398
X2.8606Y-6.1366
X2.8693Y-6.0693
X2.874Y-3.8642
X2.8768Y-4.8807
X2.9044Y-4.3318
X2.9171Y-6.479
X2.9238Y-6.0399
X2.9263Y-4.2228
X2.9457Y-6.4528
X2.9646Y-6.3118
X2.9657Y-5.1521
X2.9709Y-4.1331
X2.9724Y-5.9913
X2.9756Y-5.3461
X2.9756Y-5.4815
X2.9811Y-5.1
X2.9887Y-5.0308
X2.9902Y-6.2898
X2.9929Y-6.2268
X3.006Y-5.0551
X3.019Y-4.859
X3.0306Y-5.0298
X3.0335Y-3.7618
X3.0335Y-3.8169
X3.0335Y-3.872
X3.0421Y-4.2705
X3.0606Y-6.289
X3.0709Y-3.5098
X3.0807Y-3.7618
X3.0807Y-3.8169
X3.0807Y-3.872
X3.0982Y-5.3668
X3.1087Y-5.2717
X3.1122Y-4.7087
X3.1154Y-5.6913
X3.128Y-3.7618
X3.128Y-3.8169
X3.128Y-3.872
X3.1421Y-4.2187
X3.1421Y-4.2516
X3.1421Y-4.2844
X3.1431Y-5.5549
X3.1496Y-4.7087
X3.1583Y-5.3091
X3.1661Y-4.1559
X3.1669Y-5.6941
X3.1681Y-6.2854
X3.1807Y-5.2185
X3.1843Y-6.2091
X3.198Y-6.3606
X3.2031Y-4.5004
X3.2031Y-4.5295
X3.2031Y-5.1953
X3.2042Y-4.7055
X3.2116Y-4.6677
X3.2173Y-4.5854
X3.2358Y-5.3567
X3.2453Y-5.9461
X3.2563Y-5.7264
X3.2567Y-5.6067
X3.2803Y-5.465
X3.2978Y-4.6268
X3.3057Y-4.5718
X3.3217Y-5.5339
X3.3248Y-6.4886
X3.3263Y-4.5934
X3.3495Y-4.5709
X3.3867Y-5.1305
X3.3941Y-5.4094
X3.3949Y-3.9827
X3.3963Y-4.5705
X3.402Y-5.9004
X3.4138Y-5.5583
X3.4283Y-3.7635
X3.4291Y-5.2736
X3.4339Y-6.2169
X3.4382Y-5.9
X3.4386Y-6.0122
X3.4701Y-4.7248
X3.4752Y-5.8157
X3.487Y-6.0846
X3.4949Y-3.7335
X3.4949Y-4.7469
X3.502Y-3.9969
X3.5031Y-6.1743
X3.5173Y-4.7705
X3.5181Y-5.8118
X3.5264Y-4.4409
X3.5264Y-6.0346
X3.532Y-5.5118
X3.5406Y-5.1382
X3.542Y-4.7924
X3.5579Y-3.8791
X3.5764Y-4.5484
X3.5858Y-6.4588
X3.6079Y-4.2134
X3.6224Y-6.1122
X3.6268Y-6.2807
X3.6281Y-4.3128
X3.6559Y-4.4197
X3.6567Y-6.0929
X3.6661Y-6.522
X3.6724Y-3.8125
X3.6894Y-6.4588
X3.698Y-4.4244
X3.6992Y-6.522
X3.7091Y-6.7594
X3.7303Y-6.2004
X3.7315Y-5.4134
X3.7315Y-5.5063
X3.7315Y-5.5563
X3.7716Y-4.3447
X3.7787Y-3.9071
X3.7913Y-4.4228
X3.7949Y-3.7575
X3.8051Y-5.9463
X3.8122Y-4.6827
X3.8307Y-4.8472
X3.8372Y-6.6368
X3.8476Y-4.5917
X3.8476Y-5.8691
X3.8536Y-6.1669
X3.8536Y-6.2039
X3.8894Y-4.3465
X3.8988Y-6.3315
X3.9094Y-5.8463
X3.9335Y-5.6028
X3.9551Y-3.9858
X3.9657Y-6.1008
X3.9697Y-6.6594
X3.9697Y-6.7091
X3.9846Y-5.8506
X4.0283Y-4.8642
X4.0449Y-5.6035
X4.0713Y-4.7449
X4.0815Y-4.6787
X4.0835Y-5.2492
X4.0922Y-5.2907
X4.0957Y-6.3836
X4.0961Y-6.2339
X4.0963Y-5.8688
X4.0963Y-5.8942
X4.0963Y-5.9196
X4.1264Y-5.3134
X4.1406Y-6.5429
X4.1539Y-5.2472
X4.1728Y-5.139
X4.1894Y-5.0339
X4.2445Y-3.6815
X4.2906Y-3.7728
X4.2937Y-3.6177
X4.3209Y-4.3083
X4.3364Y-3.7728
X4.3638Y-4.3083
X4.3822Y-3.7728
X4.4067Y-4.3083
X4.428Y-3.7728
X4.4496Y-4.3083
X4.4732Y-6.2228
X4.5071Y-4.6882
X4.5331Y-4.7114
X4.5598Y-4.7339
T4
X0.9992Y-4.9717
X1.3126Y-4.7673
X1.9579Y-4.9394
X2.0504Y-5.7665
X2.7295Y-6.2764
X3.3142Y-6.1283
X3.3791Y-5.5232
X3.5386Y-5.8898
X3.7902Y-6.3285
T6
X1.2549Y-6.4242
X1.3533Y-6.4242
X1.4321Y-6.4242
X1.5305Y-6.4242
T7
X3.0154Y-4.0094
X3.1154Y-4.0094
X3.272Y-3.5634
X3.372Y-3.5634
X3.472Y-3.5634
X3.572Y-3.5634
X3.6701Y-4.1031
X3.6701Y-4.2031
X3.672Y-3.5634
X3.7701Y-4.1031
X3.7701Y-4.2031
X3.772Y-3.5634
X3.8701Y-4.1031
X3.8701Y-4.2031
X3.9222Y-3.6094
X3.9222Y-3.7094
X3.9222Y-3.8094
X3.9222Y-3.9094
X4.0222Y-3.6094
X4.0222Y-3.7094
X4.0222Y-3.8094
X4.0222Y-3.9094
X4.1315Y-4.3626
X4.2494Y-4.6467
X4.2494Y-4.7467
X4.2494Y-4.8467
X4.2494Y-4.9467
X4.2494Y-5.0467
X4.2494Y-5.1467
X4.2494Y-5.2467
X4.2494Y-5.3467
X4.2494Y-5.4467
X4.2494Y-5.5467
X4.2494Y-5.6467
X4.2494Y-5.7467
X4.2494Y-5.8467
X4.2494Y-5.9467
X4.2494Y-6.0467
X4.2494Y-6.1467
X4.2494Y-6.2467
X4.2494Y-6.3467
X4.2494Y-6.4467
X4.2494Y-6.5467
X4.3494Y-4.6467
X4.3494Y-4.7467
X4.3494Y-4.8467
X4.3494Y-4.9467
X4.3494Y-5.0467
X4.3494Y-5.1467
X4.3494Y-5.2467
X4.3494Y-5.3467
X4.3494Y-5.4467
X4.3494Y-5.5467
X4.3494Y-5.6467
X4.3494Y-5.7467
X4.3494Y-5.8467
X4.3494Y-5.9467
X4.3494Y-6.0467
X4.3494Y-6.1467
X4.3494Y-6.2467
X4.3494Y-6.3467
X4.3494Y-6.4467
X4.3494Y-6.5467
T8
X1.0208Y-4.1352
X1.0208Y-4.3321
X2.1266Y-3.5643
X2.3234Y-3.5643
T9
X1.1341Y-6.5309
X1.6514Y-6.5309
T5
G00X3.6642Y-6.576
M15
G01X3.6642Y-6.6193
M16
G05
G00X3.6642Y-6.7453
M15
G01X3.6642Y-6.7768
M16
G05
G00X4.0043Y-6.576
M15
G01X4.0043Y-6.6193
M16
G05
G00X4.0043Y-6.7453
M15
G01X4.0043Y-6.7768
M16
G05
M30
