%TF.GenerationSoftware,KiCad,Pcbnew,10.0.4*%
%TF.CreationDate,2026-07-18T10:14:22-04:00*%
%TF.ProjectId,The_Second_Board_To_Rule_Them_All,5468655f-5365-4636-9f6e-645f426f6172,rev?*%
%TF.SameCoordinates,Original*%
%TF.FileFunction,Legend,Bot*%
%TF.FilePolarity,Positive*%
%FSLAX46Y46*%
G04 Gerber Fmt 4.6, Leading zero omitted, Abs format (unit mm)*
G04 Created by KiCad (PCBNEW 10.0.4) date 2026-07-18 10:14:22*
%MOMM*%
%LPD*%
G01*
G04 APERTURE LIST*
%ADD10C,0.000000*%
%ADD11C,0.150000*%
%ADD12C,0.250000*%
%ADD13C,0.300000*%
%ADD14C,0.152400*%
%ADD15C,0.254000*%
%ADD16C,0.508000*%
%ADD17C,0.120000*%
%ADD18C,1.000000*%
%ADD19C,2.200000*%
%ADD20R,1.700000X1.700000*%
%ADD21C,1.700000*%
%ADD22C,2.700000*%
%ADD23C,0.650000*%
%ADD24O,1.000000X2.100000*%
%ADD25O,1.000000X1.800000*%
%ADD26C,0.600000*%
%ADD27C,2.000000*%
%ADD28C,1.498600*%
%ADD29C,2.819400*%
%ADD30C,1.803400*%
%ADD31O,1.700000X1.700000*%
G04 APERTURE END LIST*
D10*
G36*
X47063612Y-96911311D02*
G01*
X47063493Y-96911312D01*
X47063584Y-96911264D01*
X47063612Y-96911311D01*
G37*
G36*
X49088901Y-95661958D02*
G01*
X49080862Y-95656213D01*
X49073254Y-95650101D01*
X49066071Y-95643640D01*
X49059309Y-95636851D01*
X49052959Y-95629753D01*
X49047020Y-95622359D01*
X49041480Y-95614686D01*
X49036337Y-95606754D01*
X49031585Y-95598580D01*
X49027215Y-95590176D01*
X49019603Y-95572768D01*
X49013463Y-95554658D01*
X49008738Y-95535992D01*
X49005383Y-95516907D01*
X49003353Y-95497536D01*
X49002606Y-95478022D01*
X49003085Y-95458498D01*
X49004745Y-95439110D01*
X49007546Y-95419985D01*
X49011432Y-95401269D01*
X49016360Y-95383099D01*
X49088901Y-95661958D01*
G37*
G36*
X44067349Y-95613442D02*
G01*
X43303182Y-95613442D01*
X43303182Y-98100016D01*
X43302360Y-98100268D01*
X43301557Y-98100419D01*
X43300774Y-98100472D01*
X43300006Y-98100436D01*
X43299257Y-98100313D01*
X43298526Y-98100111D01*
X43297812Y-98099842D01*
X43297113Y-98099501D01*
X43296436Y-98099105D01*
X43295770Y-98098655D01*
X43295122Y-98098157D01*
X43294490Y-98097619D01*
X43293878Y-98097045D01*
X43293278Y-98096443D01*
X43292128Y-98095177D01*
X43288119Y-98090241D01*
X43287260Y-98089286D01*
X43286848Y-98088886D01*
X43286452Y-98088542D01*
X43286065Y-98088266D01*
X43285695Y-98088063D01*
X43285334Y-98087932D01*
X43284990Y-98087885D01*
X42720957Y-98087886D01*
X42720958Y-95613442D01*
X41944663Y-95613442D01*
X41944663Y-95103995D01*
X44067349Y-95103995D01*
X44067349Y-95613442D01*
G37*
G36*
X46920128Y-97110535D02*
G01*
X46933861Y-97112326D01*
X46947182Y-97115233D01*
X46959974Y-97119279D01*
X46972123Y-97124482D01*
X46983509Y-97130861D01*
X46994017Y-97138435D01*
X47003528Y-97147225D01*
X47011929Y-97157245D01*
X47019101Y-97168525D01*
X47024927Y-97181070D01*
X47029290Y-97194918D01*
X47032078Y-97210075D01*
X47033166Y-97226564D01*
X47022689Y-97218831D01*
X47012345Y-97211808D01*
X47002121Y-97205475D01*
X46992014Y-97199818D01*
X46982022Y-97194827D01*
X46972140Y-97190484D01*
X46962356Y-97186781D01*
X46952669Y-97183702D01*
X46943077Y-97181238D01*
X46933572Y-97179371D01*
X46924147Y-97178088D01*
X46914801Y-97177379D01*
X46905525Y-97177228D01*
X46896313Y-97177622D01*
X46887166Y-97178551D01*
X46878074Y-97180001D01*
X46869034Y-97181957D01*
X46860036Y-97184400D01*
X46851081Y-97187325D01*
X46842160Y-97190721D01*
X46833273Y-97194569D01*
X46824408Y-97198855D01*
X46806727Y-97208704D01*
X46789096Y-97220152D01*
X46771452Y-97233099D01*
X46753766Y-97247440D01*
X46735992Y-97263073D01*
X46735396Y-97247315D01*
X46736607Y-97232305D01*
X46739502Y-97218066D01*
X46743968Y-97204612D01*
X46749888Y-97191968D01*
X46757149Y-97180149D01*
X46765628Y-97169175D01*
X46775209Y-97159067D01*
X46785781Y-97149840D01*
X46797221Y-97141522D01*
X46809416Y-97134125D01*
X46822246Y-97127675D01*
X46835601Y-97122181D01*
X46849357Y-97117672D01*
X46863404Y-97114164D01*
X46877620Y-97111678D01*
X46891889Y-97110231D01*
X46906099Y-97109844D01*
X46920128Y-97110535D01*
G37*
G36*
X47239887Y-96794520D02*
G01*
X47251310Y-96795700D01*
X47262270Y-96797851D01*
X47272669Y-96801027D01*
X47282416Y-96805292D01*
X47291416Y-96810686D01*
X47299578Y-96817273D01*
X47306807Y-96825108D01*
X47313011Y-96834240D01*
X47318092Y-96844719D01*
X47319116Y-96847743D01*
X47319635Y-96850412D01*
X47319677Y-96852743D01*
X47319272Y-96854748D01*
X47318446Y-96856452D01*
X47317228Y-96857870D01*
X47315644Y-96859015D01*
X47313723Y-96859909D01*
X47311494Y-96860566D01*
X47308987Y-96861004D01*
X47306224Y-96861237D01*
X47303237Y-96861290D01*
X47296702Y-96860899D01*
X47289604Y-96859972D01*
X47282164Y-96858646D01*
X47274607Y-96857057D01*
X47260046Y-96853623D01*
X47247704Y-96850768D01*
X47242922Y-96849894D01*
X47239372Y-96849572D01*
X47226899Y-96849965D01*
X47214789Y-96851067D01*
X47203011Y-96852822D01*
X47191522Y-96855178D01*
X47180294Y-96858083D01*
X47169285Y-96861484D01*
X47158462Y-96865331D01*
X47147789Y-96869573D01*
X47137233Y-96874152D01*
X47126753Y-96879015D01*
X47105881Y-96889400D01*
X47063584Y-96911264D01*
X47059949Y-96905072D01*
X47057968Y-96898561D01*
X47057581Y-96891827D01*
X47058687Y-96884928D01*
X47061197Y-96877920D01*
X47065021Y-96870852D01*
X47070056Y-96863782D01*
X47076218Y-96856764D01*
X47083413Y-96849851D01*
X47091543Y-96843096D01*
X47100510Y-96836556D01*
X47110229Y-96830286D01*
X47131545Y-96818764D01*
X47154736Y-96808968D01*
X47166803Y-96804850D01*
X47179056Y-96801329D01*
X47191407Y-96798455D01*
X47203756Y-96796281D01*
X47216019Y-96794863D01*
X47228092Y-96794262D01*
X47239887Y-96794520D01*
G37*
G36*
X44925653Y-95854808D02*
G01*
X44927741Y-95855101D01*
X44929754Y-95855604D01*
X44931699Y-95856298D01*
X44933573Y-95857171D01*
X44935375Y-95858215D01*
X44937119Y-95859416D01*
X44938790Y-95860760D01*
X44940399Y-95862238D01*
X44941947Y-95863840D01*
X44943436Y-95865553D01*
X44946234Y-95869253D01*
X44948805Y-95873255D01*
X44951166Y-95877451D01*
X44953328Y-95881755D01*
X44955298Y-95886069D01*
X44958728Y-95894347D01*
X44961546Y-95901518D01*
X44967749Y-95918302D01*
X44972837Y-95934542D01*
X44976853Y-95950309D01*
X44979849Y-95965685D01*
X44981859Y-95980741D01*
X44982945Y-95995557D01*
X44983142Y-96010204D01*
X44982499Y-96024757D01*
X44981066Y-96039293D01*
X44978881Y-96053888D01*
X44975998Y-96068618D01*
X44972463Y-96083556D01*
X44968317Y-96098779D01*
X44963609Y-96114357D01*
X44952690Y-96146904D01*
X44950802Y-96147078D01*
X44949085Y-96147069D01*
X44947531Y-96146883D01*
X44946135Y-96146528D01*
X44944891Y-96146011D01*
X44943787Y-96145344D01*
X44942817Y-96144538D01*
X44941980Y-96143599D01*
X44941260Y-96142537D01*
X44940651Y-96141360D01*
X44940148Y-96140074D01*
X44939744Y-96138697D01*
X44939431Y-96137228D01*
X44939199Y-96135684D01*
X44938954Y-96132392D01*
X44938950Y-96128896D01*
X44939130Y-96125265D01*
X44939796Y-96117886D01*
X44940474Y-96110839D01*
X44940666Y-96107618D01*
X44940683Y-96104689D01*
X44939008Y-96041362D01*
X44938084Y-96010527D01*
X44936560Y-95979956D01*
X44934037Y-95949433D01*
X44932273Y-95934125D01*
X44930107Y-95918750D01*
X44927489Y-95903281D01*
X44924372Y-95887689D01*
X44920701Y-95871949D01*
X44916424Y-95856035D01*
X44916544Y-95855911D01*
X44918938Y-95855268D01*
X44921256Y-95854881D01*
X44923492Y-95854731D01*
X44925653Y-95854808D01*
G37*
G36*
X48894943Y-95686341D02*
G01*
X48895563Y-95690899D01*
X48895823Y-95695219D01*
X48895733Y-95699300D01*
X48895316Y-95703170D01*
X48894587Y-95706832D01*
X48893557Y-95710300D01*
X48892250Y-95713584D01*
X48890683Y-95716701D01*
X48888865Y-95719655D01*
X48886817Y-95722472D01*
X48884558Y-95725154D01*
X48882106Y-95727715D01*
X48879472Y-95730165D01*
X48876673Y-95732522D01*
X48870657Y-95736995D01*
X48864185Y-95741230D01*
X48857397Y-95745329D01*
X48843400Y-95753495D01*
X48836457Y-95757759D01*
X48829721Y-95762276D01*
X48823338Y-95767146D01*
X48820319Y-95769741D01*
X48817435Y-95772462D01*
X48809140Y-95781324D01*
X48801555Y-95790626D01*
X48794585Y-95800303D01*
X48788122Y-95810280D01*
X48782066Y-95820495D01*
X48776318Y-95830876D01*
X48765326Y-95851866D01*
X48754328Y-95872700D01*
X48748568Y-95882890D01*
X48742505Y-95892835D01*
X48736031Y-95902467D01*
X48729042Y-95911720D01*
X48721440Y-95920527D01*
X48717377Y-95924737D01*
X48713121Y-95928811D01*
X48711575Y-95918041D01*
X48710575Y-95907173D01*
X48710104Y-95896236D01*
X48710167Y-95885264D01*
X48710743Y-95874285D01*
X48711832Y-95863330D01*
X48713427Y-95852431D01*
X48715519Y-95841612D01*
X48718103Y-95830912D01*
X48721163Y-95820356D01*
X48724700Y-95809978D01*
X48728702Y-95799801D01*
X48733162Y-95789861D01*
X48738077Y-95780190D01*
X48743430Y-95770818D01*
X48749222Y-95761770D01*
X48755440Y-95753084D01*
X48762082Y-95744780D01*
X48769139Y-95736901D01*
X48776594Y-95729466D01*
X48784453Y-95722512D01*
X48792698Y-95716071D01*
X48801328Y-95710165D01*
X48810333Y-95704832D01*
X48819704Y-95700097D01*
X48829434Y-95695999D01*
X48839516Y-95692559D01*
X48849943Y-95689807D01*
X48860709Y-95687780D01*
X48871801Y-95686510D01*
X48883218Y-95686016D01*
X48894943Y-95686341D01*
G37*
G36*
X45114777Y-96259268D02*
G01*
X45118913Y-96259678D01*
X45123079Y-96260298D01*
X45127263Y-96261122D01*
X45135657Y-96263321D01*
X45144017Y-96266183D01*
X45152267Y-96269615D01*
X45160343Y-96273515D01*
X45168172Y-96277795D01*
X45175676Y-96282362D01*
X45182790Y-96287119D01*
X45189275Y-96292003D01*
X45195685Y-96297533D01*
X45201988Y-96303661D01*
X45208168Y-96310349D01*
X45220054Y-96325247D01*
X45231148Y-96341900D01*
X45241254Y-96359982D01*
X45250178Y-96379162D01*
X45257729Y-96399114D01*
X45263710Y-96419517D01*
X45266052Y-96429781D01*
X45267933Y-96440035D01*
X45269323Y-96450239D01*
X45270201Y-96460349D01*
X45270538Y-96470322D01*
X45270317Y-96480125D01*
X45269510Y-96489711D01*
X45268096Y-96499044D01*
X45266045Y-96508074D01*
X45263335Y-96516766D01*
X45259946Y-96525084D01*
X45255850Y-96532983D01*
X45251020Y-96540415D01*
X45245441Y-96547351D01*
X45239080Y-96553744D01*
X45231917Y-96559551D01*
X45230759Y-96537150D01*
X45229698Y-96526162D01*
X45228306Y-96515315D01*
X45226594Y-96504617D01*
X45224558Y-96494074D01*
X45222199Y-96483689D01*
X45219524Y-96473463D01*
X45216530Y-96463406D01*
X45213215Y-96453513D01*
X45209584Y-96443798D01*
X45205642Y-96434258D01*
X45201384Y-96424896D01*
X45196814Y-96415720D01*
X45191927Y-96406735D01*
X45186733Y-96397941D01*
X45181225Y-96389343D01*
X45175414Y-96380945D01*
X45169292Y-96372751D01*
X45162863Y-96364769D01*
X45156131Y-96356997D01*
X45149092Y-96349441D01*
X45141752Y-96342104D01*
X45134110Y-96334993D01*
X45126164Y-96328109D01*
X45117923Y-96321457D01*
X45109379Y-96315041D01*
X45100538Y-96308867D01*
X45091400Y-96302934D01*
X45081967Y-96297251D01*
X45072241Y-96291816D01*
X45062223Y-96286632D01*
X45064855Y-96282444D01*
X45067648Y-96278644D01*
X45070602Y-96275219D01*
X45073695Y-96272162D01*
X45076928Y-96269454D01*
X45080288Y-96267089D01*
X45083766Y-96265059D01*
X45087355Y-96263342D01*
X45091044Y-96261936D01*
X45094821Y-96260821D01*
X45098684Y-96259992D01*
X45102619Y-96259432D01*
X45106619Y-96259133D01*
X45110676Y-96259084D01*
X45114777Y-96259268D01*
G37*
G36*
X48524285Y-96026994D02*
G01*
X48531744Y-96027644D01*
X48538979Y-96028726D01*
X48545955Y-96030275D01*
X48552634Y-96032300D01*
X48558994Y-96034828D01*
X48564991Y-96037879D01*
X48570599Y-96041474D01*
X48575780Y-96045625D01*
X48580503Y-96050365D01*
X48584733Y-96055713D01*
X48588440Y-96061685D01*
X48591585Y-96068303D01*
X48592424Y-96070493D01*
X48593060Y-96072509D01*
X48593504Y-96074351D01*
X48593768Y-96076028D01*
X48593853Y-96077546D01*
X48593773Y-96078918D01*
X48593538Y-96080153D01*
X48593154Y-96081250D01*
X48592634Y-96082225D01*
X48591979Y-96083084D01*
X48591208Y-96083825D01*
X48590329Y-96084472D01*
X48589344Y-96085021D01*
X48588264Y-96085488D01*
X48587104Y-96085879D01*
X48585868Y-96086192D01*
X48563323Y-96088076D01*
X48553153Y-96090425D01*
X48543180Y-96092409D01*
X48523793Y-96095644D01*
X48505027Y-96098546D01*
X48495829Y-96100105D01*
X48486737Y-96101871D01*
X48477729Y-96103938D01*
X48468796Y-96106393D01*
X48459914Y-96109343D01*
X48451067Y-96112876D01*
X48442239Y-96117089D01*
X48433414Y-96122082D01*
X48428997Y-96124897D01*
X48424577Y-96127941D01*
X48420144Y-96131230D01*
X48415703Y-96134770D01*
X48409059Y-96140707D01*
X48402308Y-96147574D01*
X48395496Y-96155262D01*
X48388677Y-96163659D01*
X48381904Y-96172659D01*
X48375224Y-96182158D01*
X48368688Y-96192038D01*
X48362347Y-96202199D01*
X48356254Y-96212526D01*
X48350453Y-96222921D01*
X48345004Y-96233259D01*
X48339952Y-96243443D01*
X48335347Y-96253365D01*
X48331243Y-96262912D01*
X48327685Y-96271976D01*
X48324732Y-96280451D01*
X48319344Y-96275942D01*
X48314693Y-96271016D01*
X48310748Y-96265699D01*
X48307483Y-96260019D01*
X48304875Y-96254006D01*
X48302889Y-96247694D01*
X48301499Y-96241107D01*
X48300681Y-96234279D01*
X48300404Y-96227235D01*
X48300641Y-96220009D01*
X48301362Y-96212624D01*
X48302540Y-96205121D01*
X48304152Y-96197523D01*
X48306163Y-96189851D01*
X48308549Y-96182148D01*
X48311282Y-96174434D01*
X48317675Y-96159112D01*
X48325124Y-96144118D01*
X48333399Y-96129685D01*
X48342283Y-96116052D01*
X48351550Y-96103456D01*
X48360981Y-96092130D01*
X48370349Y-96082314D01*
X48379435Y-96074246D01*
X48389738Y-96066727D01*
X48401686Y-96059388D01*
X48415008Y-96052394D01*
X48429433Y-96045907D01*
X48444705Y-96040097D01*
X48460548Y-96035126D01*
X48476696Y-96031166D01*
X48492882Y-96028381D01*
X48500900Y-96027482D01*
X48508832Y-96026935D01*
X48516640Y-96026765D01*
X48524285Y-96026994D01*
G37*
G36*
X40817860Y-95819745D02*
G01*
X40848046Y-95821596D01*
X40878188Y-95824582D01*
X40908236Y-95828690D01*
X40938144Y-95833913D01*
X40967849Y-95840236D01*
X40997305Y-95847656D01*
X41026461Y-95856159D01*
X41055267Y-95865740D01*
X41083671Y-95876383D01*
X41111617Y-95888079D01*
X41139063Y-95900825D01*
X41165949Y-95914607D01*
X41192225Y-95929411D01*
X41217846Y-95945234D01*
X41242753Y-95962066D01*
X41266899Y-95979894D01*
X41290226Y-95998709D01*
X41312692Y-96018506D01*
X41334243Y-96039271D01*
X41354823Y-96060995D01*
X41374383Y-96083665D01*
X41392875Y-96107277D01*
X41410239Y-96131819D01*
X41426434Y-96157284D01*
X41441404Y-96183653D01*
X41444026Y-96184042D01*
X41446404Y-96184295D01*
X41448546Y-96184419D01*
X41450464Y-96184418D01*
X41452165Y-96184296D01*
X41453665Y-96184059D01*
X41454978Y-96183711D01*
X41456106Y-96183257D01*
X41457070Y-96182706D01*
X41457875Y-96182056D01*
X41458535Y-96181314D01*
X41459062Y-96180483D01*
X41459469Y-96179573D01*
X41459758Y-96178586D01*
X41459950Y-96177523D01*
X41460054Y-96176393D01*
X41460039Y-96173949D01*
X41459805Y-96171283D01*
X41459040Y-96165456D01*
X41458693Y-96162365D01*
X41458487Y-96159211D01*
X41458517Y-96156024D01*
X41458647Y-96154431D01*
X41458868Y-96152846D01*
X41465245Y-96114761D01*
X41471098Y-96076344D01*
X41476440Y-96037686D01*
X41481278Y-95998876D01*
X41485629Y-95960004D01*
X41489504Y-95921159D01*
X41492913Y-95882428D01*
X41495868Y-95843907D01*
X41495868Y-95844026D01*
X41981049Y-95844026D01*
X41981049Y-98088009D01*
X41423087Y-98088009D01*
X41423087Y-96699165D01*
X41422800Y-96697378D01*
X41421954Y-96695002D01*
X41418727Y-96688637D01*
X41413674Y-96680377D01*
X41407054Y-96670531D01*
X41390184Y-96647325D01*
X41370232Y-96621491D01*
X41349317Y-96595500D01*
X41329544Y-96571831D01*
X41313040Y-96552957D01*
X41306674Y-96546095D01*
X41301913Y-96541355D01*
X41269276Y-96513256D01*
X41234885Y-96487730D01*
X41198901Y-96464742D01*
X41161481Y-96444255D01*
X41122787Y-96426215D01*
X41082976Y-96410587D01*
X41042214Y-96397333D01*
X41000658Y-96386398D01*
X40958470Y-96377758D01*
X40915808Y-96371360D01*
X40872838Y-96367158D01*
X40829714Y-96365124D01*
X40786602Y-96365203D01*
X40743655Y-96367359D01*
X40701044Y-96371548D01*
X40658922Y-96377729D01*
X40609675Y-95839296D01*
X40638723Y-95832948D01*
X40668088Y-95827808D01*
X40697718Y-95823850D01*
X40727559Y-95821080D01*
X40757568Y-95819473D01*
X40787684Y-95819034D01*
X40817860Y-95819745D01*
G37*
G36*
X37221203Y-95802292D02*
G01*
X37276739Y-95805357D01*
X37331983Y-95810621D01*
X37386831Y-95818105D01*
X37441168Y-95827828D01*
X37494891Y-95839822D01*
X37547892Y-95854095D01*
X37600060Y-95870674D01*
X37651286Y-95889581D01*
X37701465Y-95910831D01*
X37750490Y-95934455D01*
X37798250Y-95960471D01*
X37844632Y-95988896D01*
X37889536Y-96019753D01*
X37932851Y-96053066D01*
X37974467Y-96088855D01*
X38014277Y-96127142D01*
X38052174Y-96167943D01*
X38088049Y-96211289D01*
X38121794Y-96257194D01*
X38153300Y-96305680D01*
X38192145Y-96376261D01*
X38226027Y-96451976D01*
X38254937Y-96532096D01*
X38278867Y-96615914D01*
X38297808Y-96702699D01*
X38311752Y-96791733D01*
X38320691Y-96882293D01*
X38324617Y-96973659D01*
X38323521Y-97065110D01*
X38317391Y-97155927D01*
X38306227Y-97245386D01*
X38290017Y-97332767D01*
X38268747Y-97417350D01*
X38242413Y-97498413D01*
X38211013Y-97575236D01*
X38174530Y-97647096D01*
X38143389Y-97698134D01*
X38109393Y-97746233D01*
X38072690Y-97791429D01*
X38033428Y-97833743D01*
X37991760Y-97873208D01*
X37947845Y-97909847D01*
X37901825Y-97943697D01*
X37853856Y-97974778D01*
X37804090Y-98003122D01*
X37752678Y-98028757D01*
X37699769Y-98051711D01*
X37645523Y-98072013D01*
X37590083Y-98089688D01*
X37533607Y-98104766D01*
X37418138Y-98127249D01*
X37300340Y-98139682D01*
X37181410Y-98142297D01*
X37062580Y-98135320D01*
X36945054Y-98118970D01*
X36830047Y-98093478D01*
X36718773Y-98059071D01*
X36612445Y-98015972D01*
X36512281Y-97964407D01*
X36607742Y-97505543D01*
X36620826Y-97511393D01*
X36633794Y-97517545D01*
X36659478Y-97530551D01*
X36710314Y-97558063D01*
X36735769Y-97571806D01*
X36761443Y-97585028D01*
X36774413Y-97591329D01*
X36787495Y-97597354D01*
X36800706Y-97603061D01*
X36814067Y-97608401D01*
X36855387Y-97623231D01*
X36896716Y-97636082D01*
X36937978Y-97646958D01*
X36979085Y-97655855D01*
X37019969Y-97662774D01*
X37060545Y-97667713D01*
X37100735Y-97670673D01*
X37140456Y-97671649D01*
X37179630Y-97670646D01*
X37218184Y-97667664D01*
X37256037Y-97662700D01*
X37293100Y-97655755D01*
X37329309Y-97646826D01*
X37364574Y-97635910D01*
X37398819Y-97623013D01*
X37431968Y-97608132D01*
X37463936Y-97591263D01*
X37494647Y-97572411D01*
X37524022Y-97551568D01*
X37551980Y-97528748D01*
X37578448Y-97503934D01*
X37603338Y-97477133D01*
X37626579Y-97448341D01*
X37648083Y-97417565D01*
X37667779Y-97384799D01*
X37685587Y-97350042D01*
X37701422Y-97313292D01*
X37715209Y-97274559D01*
X37726869Y-97233828D01*
X37736322Y-97191105D01*
X37743489Y-97146391D01*
X37748295Y-97099685D01*
X37751840Y-97031176D01*
X37752030Y-96965536D01*
X37748957Y-96902778D01*
X37742709Y-96842925D01*
X37733375Y-96786000D01*
X37721049Y-96732013D01*
X37705811Y-96680997D01*
X37687767Y-96632962D01*
X37666993Y-96587929D01*
X37643587Y-96545918D01*
X37617633Y-96506950D01*
X37589225Y-96471044D01*
X37558450Y-96438220D01*
X37525406Y-96408497D01*
X37490171Y-96381893D01*
X37452841Y-96358428D01*
X37413509Y-96338124D01*
X37372264Y-96320999D01*
X37329192Y-96307072D01*
X37284384Y-96296364D01*
X37237934Y-96288893D01*
X37189925Y-96284679D01*
X37140456Y-96283740D01*
X37089608Y-96286102D01*
X37037473Y-96291779D01*
X36984148Y-96300790D01*
X36929716Y-96313156D01*
X36874271Y-96328898D01*
X36817899Y-96348037D01*
X36760688Y-96370585D01*
X36702739Y-96396568D01*
X36644132Y-96426007D01*
X36571352Y-95929297D01*
X36571475Y-95929297D01*
X36622061Y-95907631D01*
X36673654Y-95887911D01*
X36726145Y-95870155D01*
X36779430Y-95854387D01*
X36833398Y-95840625D01*
X36887939Y-95828895D01*
X36942949Y-95819205D01*
X36998314Y-95811594D01*
X37053934Y-95806079D01*
X37109690Y-95802674D01*
X37165486Y-95801403D01*
X37221203Y-95802292D01*
G37*
G36*
X48092093Y-98424399D02*
G01*
X48095057Y-98424675D01*
X48097921Y-98425076D01*
X48100672Y-98425612D01*
X48103297Y-98426289D01*
X48105777Y-98427122D01*
X48108099Y-98428118D01*
X48110244Y-98429283D01*
X48112198Y-98430627D01*
X48113942Y-98432164D01*
X48115461Y-98433895D01*
X48116739Y-98435833D01*
X48117763Y-98437985D01*
X48118513Y-98440363D01*
X48118977Y-98442977D01*
X48119132Y-98445831D01*
X48118748Y-98455031D01*
X48117576Y-98465238D01*
X48115683Y-98476283D01*
X48113127Y-98488007D01*
X48109972Y-98500249D01*
X48106271Y-98512842D01*
X48102087Y-98525621D01*
X48097480Y-98538428D01*
X48092512Y-98551094D01*
X48087237Y-98563464D01*
X48081716Y-98575366D01*
X48076011Y-98586639D01*
X48070183Y-98597122D01*
X48064289Y-98606651D01*
X48058387Y-98615066D01*
X48052541Y-98622198D01*
X48032102Y-98643141D01*
X48008781Y-98664219D01*
X47982950Y-98685414D01*
X47954966Y-98706717D01*
X47925203Y-98728119D01*
X47894017Y-98749612D01*
X47828873Y-98792814D01*
X47762450Y-98836255D01*
X47697682Y-98879849D01*
X47666831Y-98901674D01*
X47637499Y-98923510D01*
X47610040Y-98945343D01*
X47584824Y-98967163D01*
X47555876Y-98994954D01*
X47528746Y-99023922D01*
X47503361Y-99054018D01*
X47479636Y-99085177D01*
X47436848Y-99150445D01*
X47399753Y-99219269D01*
X47367712Y-99291166D01*
X47340089Y-99365666D01*
X47316244Y-99442309D01*
X47295545Y-99520609D01*
X47277357Y-99600102D01*
X47261042Y-99680313D01*
X47231481Y-99841011D01*
X47201775Y-99998925D01*
X47185276Y-100075662D01*
X47166835Y-100150291D01*
X47164922Y-100151933D01*
X47161775Y-100153458D01*
X47152094Y-100156165D01*
X47138414Y-100158437D01*
X47121338Y-100160309D01*
X47079457Y-100162968D01*
X47031362Y-100164390D01*
X46981954Y-100164824D01*
X46936135Y-100164515D01*
X46898809Y-100163711D01*
X46874874Y-100162663D01*
X46857687Y-100161555D01*
X46852924Y-100161136D01*
X46848089Y-100160590D01*
X46843241Y-100159886D01*
X46838443Y-100158992D01*
X46833742Y-100157873D01*
X46829207Y-100156497D01*
X46827017Y-100155703D01*
X46824893Y-100154828D01*
X46822839Y-100153879D01*
X46820854Y-100152838D01*
X46818956Y-100151709D01*
X46817153Y-100150486D01*
X46815446Y-100149168D01*
X46813847Y-100147746D01*
X46812357Y-100146215D01*
X46810990Y-100144575D01*
X46809752Y-100142822D01*
X46808647Y-100140952D01*
X46784264Y-100061129D01*
X46762894Y-99980426D01*
X46726017Y-99817618D01*
X46691678Y-99654996D01*
X46673474Y-99574522D01*
X46653523Y-99495016D01*
X46631036Y-99416788D01*
X46605211Y-99340140D01*
X46575259Y-99265391D01*
X46540387Y-99192836D01*
X46520858Y-99157480D01*
X46499799Y-99122791D01*
X46477119Y-99088803D01*
X46452710Y-99055562D01*
X46426477Y-99023096D01*
X46398322Y-98991452D01*
X46368137Y-98960663D01*
X46335836Y-98930774D01*
X46313309Y-98911832D01*
X46288706Y-98892690D01*
X46262375Y-98873379D01*
X46234651Y-98853937D01*
X46176375Y-98814781D01*
X46116590Y-98775484D01*
X46058013Y-98736316D01*
X46030026Y-98716863D01*
X46003352Y-98697535D01*
X45978340Y-98678371D01*
X45955324Y-98659405D01*
X45934641Y-98640671D01*
X45916634Y-98622199D01*
X45909234Y-98613307D01*
X45902201Y-98603447D01*
X45895543Y-98592727D01*
X45889280Y-98581269D01*
X45883425Y-98569188D01*
X45877994Y-98556593D01*
X45873002Y-98543594D01*
X45868463Y-98530318D01*
X45864398Y-98516866D01*
X45860816Y-98503357D01*
X45857739Y-98489909D01*
X45855175Y-98476631D01*
X45853145Y-98463640D01*
X45851665Y-98451048D01*
X45850745Y-98438970D01*
X45850407Y-98427515D01*
X45850528Y-98427513D01*
X45861410Y-98427100D01*
X45872159Y-98426823D01*
X45882813Y-98426773D01*
X45893405Y-98427048D01*
X45898690Y-98427333D01*
X45903974Y-98427737D01*
X45909264Y-98428267D01*
X45914560Y-98428933D01*
X45919870Y-98429750D01*
X45925196Y-98430729D01*
X45930544Y-98431881D01*
X45935920Y-98433216D01*
X45950221Y-98437556D01*
X45965554Y-98443101D01*
X45981807Y-98449696D01*
X45998854Y-98457187D01*
X46034830Y-98474252D01*
X46072500Y-98493062D01*
X46110873Y-98512391D01*
X46148965Y-98531006D01*
X46185790Y-98547680D01*
X46203419Y-98554909D01*
X46220361Y-98561187D01*
X46328432Y-98596093D01*
X46436573Y-98625644D01*
X46544726Y-98649860D01*
X46652859Y-98668768D01*
X46760926Y-98682391D01*
X46868883Y-98690754D01*
X46976687Y-98693879D01*
X47084294Y-98691793D01*
X47191662Y-98684518D01*
X47298750Y-98672080D01*
X47405508Y-98654498D01*
X47511908Y-98631804D01*
X47617887Y-98604016D01*
X47723418Y-98571161D01*
X47828450Y-98533264D01*
X47932941Y-98490347D01*
X47939414Y-98487318D01*
X47945916Y-98483866D01*
X47952445Y-98480068D01*
X47959015Y-98475984D01*
X47985766Y-98458233D01*
X47999501Y-98449476D01*
X48006472Y-98445365D01*
X48013522Y-98441531D01*
X48020656Y-98438037D01*
X48027873Y-98434957D01*
X48035188Y-98432353D01*
X48042593Y-98430306D01*
X48052155Y-98428207D01*
X48057765Y-98427124D01*
X48063764Y-98426115D01*
X48070022Y-98425248D01*
X48076408Y-98424600D01*
X48082792Y-98424241D01*
X48089052Y-98424241D01*
X48092093Y-98424399D01*
G37*
G36*
X40530539Y-97437624D02*
G01*
X40529462Y-97508805D01*
X40524039Y-97582931D01*
X40515148Y-97643923D01*
X40501227Y-97701279D01*
X40482552Y-97755020D01*
X40459416Y-97805158D01*
X40432090Y-97851716D01*
X40400865Y-97894713D01*
X40366024Y-97934161D01*
X40327851Y-97970081D01*
X40286629Y-98002496D01*
X40242639Y-98031415D01*
X40196166Y-98056864D01*
X40147497Y-98078859D01*
X40096908Y-98097415D01*
X40044692Y-98112555D01*
X39991128Y-98124291D01*
X39936493Y-98132643D01*
X39881081Y-98137633D01*
X39825171Y-98139277D01*
X39769044Y-98137594D01*
X39712991Y-98132599D01*
X39657287Y-98124314D01*
X39602217Y-98112754D01*
X39548070Y-98097933D01*
X39495124Y-98079878D01*
X39443666Y-98058604D01*
X39393978Y-98034125D01*
X39346346Y-98006463D01*
X39301046Y-97975635D01*
X39258371Y-97941664D01*
X39218598Y-97904559D01*
X39182017Y-97864342D01*
X39148902Y-97821034D01*
X39146493Y-97822728D01*
X39144215Y-97825527D01*
X39142064Y-97829370D01*
X39140032Y-97834188D01*
X39136305Y-97846467D01*
X39132988Y-97861826D01*
X39130022Y-97879719D01*
X39127361Y-97899597D01*
X39122745Y-97943135D01*
X39114941Y-98030109D01*
X39110936Y-98064826D01*
X39108734Y-98078082D01*
X39106327Y-98087885D01*
X38645400Y-98087886D01*
X38645400Y-98087763D01*
X38645400Y-97081128D01*
X39154966Y-97081128D01*
X39160291Y-97108560D01*
X39163738Y-97135241D01*
X39165692Y-97161247D01*
X39166526Y-97186662D01*
X39166294Y-97284056D01*
X39167240Y-97307746D01*
X39169357Y-97331334D01*
X39173012Y-97354904D01*
X39175537Y-97366711D01*
X39178588Y-97378540D01*
X39182221Y-97390404D01*
X39186476Y-97402318D01*
X39191398Y-97414287D01*
X39197039Y-97426325D01*
X39203445Y-97438437D01*
X39210669Y-97450635D01*
X39218753Y-97462932D01*
X39227744Y-97475342D01*
X39252936Y-97505608D01*
X39281263Y-97534335D01*
X39312403Y-97561345D01*
X39346027Y-97586446D01*
X39381814Y-97609466D01*
X39419438Y-97630213D01*
X39458578Y-97648507D01*
X39498903Y-97664169D01*
X39540093Y-97677009D01*
X39581823Y-97686855D01*
X39623771Y-97693517D01*
X39665608Y-97696811D01*
X39707009Y-97696561D01*
X39727445Y-97695046D01*
X39747654Y-97692577D01*
X39767589Y-97689130D01*
X39787216Y-97684682D01*
X39806489Y-97679207D01*
X39825370Y-97672691D01*
X39841026Y-97666245D01*
X39856087Y-97659002D01*
X39870539Y-97650987D01*
X39884362Y-97642245D01*
X39897541Y-97632816D01*
X39910054Y-97622730D01*
X39921885Y-97612035D01*
X39933020Y-97600764D01*
X39943433Y-97588954D01*
X39953113Y-97576643D01*
X39962038Y-97563877D01*
X39970191Y-97550685D01*
X39977552Y-97537109D01*
X39984106Y-97523186D01*
X39989833Y-97508959D01*
X39994717Y-97494461D01*
X39998736Y-97479731D01*
X40001877Y-97464804D01*
X40004118Y-97449729D01*
X40005441Y-97434532D01*
X40005833Y-97419257D01*
X40005272Y-97403946D01*
X40003735Y-97388632D01*
X40001217Y-97373350D01*
X39997688Y-97358146D01*
X39993133Y-97343054D01*
X39987535Y-97328113D01*
X39980876Y-97313361D01*
X39973137Y-97298835D01*
X39964305Y-97284574D01*
X39954353Y-97270619D01*
X39943271Y-97257006D01*
X39926627Y-97240119D01*
X39906472Y-97223472D01*
X39883238Y-97207174D01*
X39857362Y-97191350D01*
X39829285Y-97176118D01*
X39799445Y-97161591D01*
X39768284Y-97147890D01*
X39736233Y-97135134D01*
X39703736Y-97123438D01*
X39671228Y-97112917D01*
X39639152Y-97103696D01*
X39607942Y-97095882D01*
X39578036Y-97089604D01*
X39549876Y-97084973D01*
X39523897Y-97082109D01*
X39500538Y-97081128D01*
X39154966Y-97081128D01*
X38645400Y-97081128D01*
X38645400Y-96504848D01*
X38645871Y-96493578D01*
X38647227Y-96480534D01*
X38649375Y-96465975D01*
X38652228Y-96450150D01*
X38659694Y-96415706D01*
X38668900Y-96379215D01*
X38679147Y-96342688D01*
X38689715Y-96308143D01*
X38699890Y-96277589D01*
X38708958Y-96253037D01*
X38732995Y-96199107D01*
X38760559Y-96149265D01*
X38791465Y-96103389D01*
X38825531Y-96061344D01*
X38862569Y-96023013D01*
X38902389Y-95988265D01*
X38944816Y-95956973D01*
X38989652Y-95929013D01*
X39036720Y-95904256D01*
X39085831Y-95882577D01*
X39136803Y-95863855D01*
X39189440Y-95847953D01*
X39243564Y-95834751D01*
X39298988Y-95824123D01*
X39412992Y-95810077D01*
X39529971Y-95804804D01*
X39648436Y-95807302D01*
X39766892Y-95816545D01*
X39883865Y-95831533D01*
X39997865Y-95851255D01*
X40107406Y-95874691D01*
X40210999Y-95900841D01*
X40307160Y-95928688D01*
X40307160Y-96450265D01*
X40257791Y-96424338D01*
X40202655Y-96399220D01*
X40142588Y-96375319D01*
X40078411Y-96353044D01*
X40010952Y-96332796D01*
X39941044Y-96314986D01*
X39869507Y-96300011D01*
X39797171Y-96288290D01*
X39724863Y-96280213D01*
X39653413Y-96276199D01*
X39583644Y-96276645D01*
X39516382Y-96281957D01*
X39452461Y-96292549D01*
X39422012Y-96299947D01*
X39392705Y-96308821D01*
X39364650Y-96319211D01*
X39337944Y-96331175D01*
X39312691Y-96344760D01*
X39289000Y-96360021D01*
X39280193Y-96366858D01*
X39270802Y-96375276D01*
X39260981Y-96385094D01*
X39250895Y-96396116D01*
X39240702Y-96408152D01*
X39230561Y-96421016D01*
X39220627Y-96434515D01*
X39211065Y-96448457D01*
X39202033Y-96462661D01*
X39193687Y-96476934D01*
X39186188Y-96491084D01*
X39179694Y-96504923D01*
X39174369Y-96518259D01*
X39170367Y-96530905D01*
X39168913Y-96536910D01*
X39167848Y-96542674D01*
X39167196Y-96548162D01*
X39166974Y-96553366D01*
X39166974Y-96741375D01*
X39815908Y-96741376D01*
X39824700Y-96741740D01*
X39835091Y-96742776D01*
X39846863Y-96744418D01*
X39859794Y-96746586D01*
X39888261Y-96752211D01*
X39918725Y-96759053D01*
X39949422Y-96766524D01*
X39978587Y-96774023D01*
X40025268Y-96786740D01*
X40061922Y-96797817D01*
X40097077Y-96809864D01*
X40130739Y-96822875D01*
X40162925Y-96836846D01*
X40193656Y-96851756D01*
X40222936Y-96867609D01*
X40250789Y-96884397D01*
X40277221Y-96902102D01*
X40302248Y-96920727D01*
X40325894Y-96940259D01*
X40348160Y-96960690D01*
X40369073Y-96982009D01*
X40388633Y-97004210D01*
X40406871Y-97027287D01*
X40423786Y-97051231D01*
X40439406Y-97076031D01*
X40453734Y-97101683D01*
X40466787Y-97128179D01*
X40478588Y-97155504D01*
X40489145Y-97183657D01*
X40498468Y-97212625D01*
X40506579Y-97242406D01*
X40519214Y-97304361D01*
X40527158Y-97369458D01*
X40529629Y-97419257D01*
X40530539Y-97437624D01*
G37*
G36*
X49484432Y-95850250D02*
G01*
X49485976Y-95953072D01*
X49487143Y-96030437D01*
X49477779Y-96210820D01*
X49456145Y-96390665D01*
X49437998Y-96485683D01*
X49422044Y-96569235D01*
X49375278Y-96745785D01*
X49321788Y-96901715D01*
X49315653Y-96919597D01*
X49302993Y-96949263D01*
X49242965Y-97089915D01*
X49157025Y-97256016D01*
X49072240Y-97393468D01*
X49057623Y-97417162D01*
X48944574Y-97572610D01*
X48817676Y-97721635D01*
X48811741Y-97727605D01*
X48759747Y-97779938D01*
X48676731Y-97863489D01*
X48537912Y-97984375D01*
X48429542Y-98066343D01*
X48394611Y-98092765D01*
X48247333Y-98188846D01*
X48096590Y-98272817D01*
X47942889Y-98344874D01*
X47786727Y-98405211D01*
X47628616Y-98454022D01*
X47469063Y-98491506D01*
X47308571Y-98517852D01*
X47147645Y-98533259D01*
X46986797Y-98537920D01*
X46826523Y-98532028D01*
X46667341Y-98515783D01*
X46509750Y-98489378D01*
X46354252Y-98453008D01*
X46201361Y-98406867D01*
X46051580Y-98351148D01*
X45905416Y-98286052D01*
X45763371Y-98211770D01*
X45625956Y-98128494D01*
X45493672Y-98036425D01*
X45408415Y-97968656D01*
X46047899Y-97968656D01*
X46048726Y-97975225D01*
X46050768Y-97982164D01*
X46053964Y-97989403D01*
X46058247Y-97996869D01*
X46063550Y-98004488D01*
X46069809Y-98012187D01*
X46076958Y-98019896D01*
X46084926Y-98027544D01*
X46093655Y-98035057D01*
X46103070Y-98042360D01*
X46113112Y-98049385D01*
X46123714Y-98056061D01*
X46134805Y-98062309D01*
X46146329Y-98068065D01*
X46158211Y-98073250D01*
X46170386Y-98077795D01*
X46182790Y-98081628D01*
X46195362Y-98084676D01*
X46208025Y-98086867D01*
X46220723Y-98088129D01*
X46233689Y-98088560D01*
X46245130Y-98088199D01*
X46255099Y-98087099D01*
X46263653Y-98085301D01*
X46270851Y-98082850D01*
X46276746Y-98079804D01*
X46281394Y-98076201D01*
X46282555Y-98074823D01*
X46953632Y-98074823D01*
X46954005Y-98082967D01*
X46955779Y-98091526D01*
X46959280Y-98100444D01*
X46964333Y-98108450D01*
X46970803Y-98115561D01*
X46978569Y-98121804D01*
X46987506Y-98127200D01*
X46997480Y-98131764D01*
X47008372Y-98135525D01*
X47020049Y-98138502D01*
X47032383Y-98140714D01*
X47045252Y-98142186D01*
X47058524Y-98142941D01*
X47072071Y-98142993D01*
X47085772Y-98142369D01*
X47099494Y-98141087D01*
X47113115Y-98139174D01*
X47126503Y-98136649D01*
X47139534Y-98133532D01*
X47152080Y-98129842D01*
X47164012Y-98125607D01*
X47175205Y-98120843D01*
X47185531Y-98115575D01*
X47194863Y-98109822D01*
X47203074Y-98103608D01*
X47210035Y-98096951D01*
X47215624Y-98089875D01*
X47219707Y-98082401D01*
X47222159Y-98074548D01*
X47222856Y-98066344D01*
X47221671Y-98057803D01*
X47218471Y-98048949D01*
X47213134Y-98039807D01*
X47205528Y-98030395D01*
X47200287Y-98025469D01*
X47194095Y-98020997D01*
X47187034Y-98016977D01*
X47179181Y-98013408D01*
X47170612Y-98010292D01*
X47161412Y-98007616D01*
X47151654Y-98005393D01*
X47141415Y-98003614D01*
X47130778Y-98002278D01*
X47119816Y-98001388D01*
X47097241Y-98000930D01*
X47074320Y-98002233D01*
X47062927Y-98003543D01*
X47051680Y-98005283D01*
X47040659Y-98007461D01*
X47029943Y-98010076D01*
X47019608Y-98013123D01*
X47009738Y-98016600D01*
X47000406Y-98020507D01*
X46991694Y-98024839D01*
X46983675Y-98029603D01*
X46976433Y-98034792D01*
X46970042Y-98040409D01*
X46964584Y-98046448D01*
X46960136Y-98052910D01*
X46958038Y-98057211D01*
X46956775Y-98059793D01*
X46954582Y-98067099D01*
X46953632Y-98074823D01*
X46282555Y-98074823D01*
X46284854Y-98072094D01*
X46287177Y-98067530D01*
X46288429Y-98062550D01*
X46288659Y-98057210D01*
X46287920Y-98051553D01*
X46286273Y-98045627D01*
X46283774Y-98039475D01*
X46280482Y-98033158D01*
X46276445Y-98026710D01*
X46271722Y-98020180D01*
X46266378Y-98013621D01*
X46254025Y-98000597D01*
X46239836Y-97988013D01*
X46224256Y-97976250D01*
X46207737Y-97965690D01*
X46199263Y-97960977D01*
X46190730Y-97956707D01*
X46182181Y-97952927D01*
X46173679Y-97949684D01*
X46165288Y-97947026D01*
X46157043Y-97945000D01*
X46138101Y-97941493D01*
X46121170Y-97939221D01*
X46106185Y-97938114D01*
X46093074Y-97938101D01*
X46081778Y-97939107D01*
X46072223Y-97941062D01*
X46064356Y-97943890D01*
X46058099Y-97947527D01*
X46053390Y-97951891D01*
X46050164Y-97956917D01*
X46048357Y-97962531D01*
X46047899Y-97968656D01*
X45408415Y-97968656D01*
X45367028Y-97935758D01*
X45328798Y-97901151D01*
X47969318Y-97901151D01*
X47970412Y-97909662D01*
X47972973Y-97917954D01*
X47981925Y-97919032D01*
X47991241Y-97919690D01*
X48000872Y-97919922D01*
X48010775Y-97919737D01*
X48020901Y-97919134D01*
X48031202Y-97918122D01*
X48041640Y-97916701D01*
X48052161Y-97914880D01*
X48062722Y-97912652D01*
X48073277Y-97910030D01*
X48083778Y-97907014D01*
X48094180Y-97903609D01*
X48104440Y-97899821D01*
X48114506Y-97895648D01*
X48124342Y-97891094D01*
X48133887Y-97886174D01*
X48143104Y-97880871D01*
X48151947Y-97875212D01*
X48160367Y-97869183D01*
X48168320Y-97862796D01*
X48175759Y-97856054D01*
X48182636Y-97848957D01*
X48188907Y-97841510D01*
X48194528Y-97833724D01*
X48199449Y-97825591D01*
X48203629Y-97817120D01*
X48207012Y-97808317D01*
X48209561Y-97799181D01*
X48211230Y-97789723D01*
X48211967Y-97779938D01*
X48211728Y-97769836D01*
X48210470Y-97759417D01*
X48205800Y-97754289D01*
X48200135Y-97750246D01*
X48193556Y-97747248D01*
X48186135Y-97745243D01*
X48177963Y-97744196D01*
X48169122Y-97744063D01*
X48159691Y-97744796D01*
X48149752Y-97746352D01*
X48139394Y-97748694D01*
X48128687Y-97751771D01*
X48117725Y-97755541D01*
X48106580Y-97759962D01*
X48095345Y-97764993D01*
X48084095Y-97770583D01*
X48072915Y-97776692D01*
X48061883Y-97783282D01*
X48051085Y-97790302D01*
X48040601Y-97797713D01*
X48030516Y-97805468D01*
X48020912Y-97813527D01*
X48011869Y-97821843D01*
X48003466Y-97830376D01*
X47995795Y-97839077D01*
X47988929Y-97847910D01*
X47982955Y-97856828D01*
X47977954Y-97865783D01*
X47974004Y-97874736D01*
X47971196Y-97883647D01*
X47969608Y-97892466D01*
X47969318Y-97901151D01*
X45328798Y-97901151D01*
X45246531Y-97826680D01*
X45220721Y-97800090D01*
X46472139Y-97800090D01*
X46473227Y-97807716D01*
X46475520Y-97815130D01*
X46478943Y-97822316D01*
X46483428Y-97829257D01*
X46488897Y-97835937D01*
X46495282Y-97842335D01*
X46502502Y-97848436D01*
X46510494Y-97854226D01*
X46519177Y-97859680D01*
X46528486Y-97864784D01*
X46548673Y-97873881D01*
X46570466Y-97881365D01*
X46593290Y-97887101D01*
X46616557Y-97890954D01*
X46639688Y-97892780D01*
X46662094Y-97892445D01*
X46672847Y-97891418D01*
X46683196Y-97889799D01*
X46693077Y-97887567D01*
X46702413Y-97884712D01*
X46711128Y-97881205D01*
X46719151Y-97877038D01*
X46726414Y-97872192D01*
X46732837Y-97866644D01*
X46734168Y-97865214D01*
X46735394Y-97863669D01*
X46736522Y-97862018D01*
X46737564Y-97860270D01*
X46738519Y-97858445D01*
X46739406Y-97856547D01*
X46740230Y-97854598D01*
X46740994Y-97852603D01*
X46742385Y-97848530D01*
X46743652Y-97844433D01*
X46744857Y-97840410D01*
X46746059Y-97836560D01*
X46745185Y-97827010D01*
X46742964Y-97817878D01*
X46739482Y-97809171D01*
X46734822Y-97800899D01*
X46729071Y-97793078D01*
X46722312Y-97785712D01*
X46716153Y-97780172D01*
X47389767Y-97780172D01*
X47390197Y-97788374D01*
X47391912Y-97795990D01*
X47394823Y-97803022D01*
X47398858Y-97809469D01*
X47403939Y-97815332D01*
X47409984Y-97820617D01*
X47416921Y-97825317D01*
X47424665Y-97829444D01*
X47433141Y-97832992D01*
X47442271Y-97835966D01*
X47444686Y-97836559D01*
X47451972Y-97838360D01*
X47462175Y-97840184D01*
X47472799Y-97841437D01*
X47483761Y-97842119D01*
X47506393Y-97841776D01*
X47529452Y-97839172D01*
X47552309Y-97834306D01*
X47563465Y-97831034D01*
X47574342Y-97827203D01*
X47584851Y-97822812D01*
X47594918Y-97817863D01*
X47604466Y-97812362D01*
X47613419Y-97806301D01*
X47621693Y-97799695D01*
X47629215Y-97792529D01*
X47639814Y-97780485D01*
X47648180Y-97768901D01*
X47654431Y-97757801D01*
X47658667Y-97747202D01*
X47661006Y-97737133D01*
X47661547Y-97727605D01*
X47660407Y-97718649D01*
X47657690Y-97710283D01*
X47653505Y-97702530D01*
X47647960Y-97695403D01*
X47641169Y-97688931D01*
X47633237Y-97683134D01*
X47624270Y-97678032D01*
X47614383Y-97673647D01*
X47603675Y-97669998D01*
X47592268Y-97667108D01*
X47580260Y-97665001D01*
X47567763Y-97663698D01*
X47554889Y-97663213D01*
X47541740Y-97663572D01*
X47528430Y-97664799D01*
X47515068Y-97666911D01*
X47501758Y-97669931D01*
X47488612Y-97673882D01*
X47475743Y-97678779D01*
X47463250Y-97684650D01*
X47451250Y-97691516D01*
X47439843Y-97699393D01*
X47429150Y-97708304D01*
X47419269Y-97718273D01*
X47410314Y-97729320D01*
X47402393Y-97741468D01*
X47396925Y-97752028D01*
X47393053Y-97761999D01*
X47390690Y-97771377D01*
X47389767Y-97780172D01*
X46716153Y-97780172D01*
X46714636Y-97778807D01*
X46706125Y-97772375D01*
X46696860Y-97766428D01*
X46686937Y-97760973D01*
X46676434Y-97756020D01*
X46665438Y-97751577D01*
X46654036Y-97747656D01*
X46642311Y-97744262D01*
X46630350Y-97741405D01*
X46618242Y-97739099D01*
X46606067Y-97737348D01*
X46593914Y-97736166D01*
X46581866Y-97735559D01*
X46570015Y-97735536D01*
X46558437Y-97736108D01*
X46547224Y-97737284D01*
X46536453Y-97739072D01*
X46526224Y-97741482D01*
X46522010Y-97742817D01*
X46516611Y-97744526D01*
X46507706Y-97748209D01*
X46499592Y-97752542D01*
X46492351Y-97757532D01*
X46486070Y-97763195D01*
X46480846Y-97769536D01*
X46476746Y-97776559D01*
X46473869Y-97784282D01*
X46472329Y-97792272D01*
X46472139Y-97800090D01*
X45220721Y-97800090D01*
X45132684Y-97709392D01*
X45052984Y-97615786D01*
X45550380Y-97615786D01*
X45550735Y-97619648D01*
X45551459Y-97623681D01*
X45552532Y-97627871D01*
X45553928Y-97632198D01*
X45555640Y-97636641D01*
X45557640Y-97641183D01*
X45562420Y-97650500D01*
X45568120Y-97659983D01*
X45574580Y-97669490D01*
X45581638Y-97678869D01*
X45589133Y-97687973D01*
X45596205Y-97695705D01*
X45604373Y-97703750D01*
X45613519Y-97711957D01*
X45623521Y-97720183D01*
X45634254Y-97728279D01*
X45645603Y-97736103D01*
X45657438Y-97743502D01*
X45669646Y-97750334D01*
X45682097Y-97756452D01*
X45694676Y-97761706D01*
X45707254Y-97765955D01*
X45713511Y-97767655D01*
X45719723Y-97769046D01*
X45725873Y-97770114D01*
X45731949Y-97770838D01*
X45737938Y-97771196D01*
X45743819Y-97771184D01*
X45749578Y-97770765D01*
X45755200Y-97769929D01*
X45760675Y-97768661D01*
X45765981Y-97766939D01*
X45770898Y-97762964D01*
X45774542Y-97758529D01*
X45776972Y-97753669D01*
X45778261Y-97748417D01*
X45778472Y-97742817D01*
X45777668Y-97736902D01*
X45775909Y-97730708D01*
X45773268Y-97724271D01*
X45769800Y-97717630D01*
X45765577Y-97710825D01*
X45760660Y-97703883D01*
X45755113Y-97696849D01*
X45742388Y-97682642D01*
X45727911Y-97668504D01*
X45712206Y-97654724D01*
X45695780Y-97641594D01*
X45679154Y-97629415D01*
X45662840Y-97618470D01*
X45647345Y-97609062D01*
X45633195Y-97601484D01*
X45620898Y-97596032D01*
X45610969Y-97592997D01*
X45602729Y-97591526D01*
X45595182Y-97590523D01*
X45588298Y-97589979D01*
X45582058Y-97589872D01*
X45576449Y-97590180D01*
X45571444Y-97590890D01*
X45567024Y-97591976D01*
X45563171Y-97593425D01*
X45559866Y-97595214D01*
X45557090Y-97597332D01*
X45554820Y-97599753D01*
X45553037Y-97602465D01*
X45551721Y-97605436D01*
X45550851Y-97608664D01*
X45550412Y-97612120D01*
X45550380Y-97615786D01*
X45052984Y-97615786D01*
X45025998Y-97584092D01*
X44926972Y-97450966D01*
X44836118Y-97310217D01*
X44753937Y-97162039D01*
X44685802Y-97016978D01*
X45122008Y-97016978D01*
X45122093Y-97024477D01*
X45122845Y-97032605D01*
X45124232Y-97041287D01*
X45126223Y-97050467D01*
X45128784Y-97060075D01*
X45131884Y-97070047D01*
X45139576Y-97090826D01*
X45149054Y-97112292D01*
X45160053Y-97133926D01*
X45172327Y-97155208D01*
X45185624Y-97175624D01*
X45199686Y-97194655D01*
X45206926Y-97203489D01*
X45214265Y-97211784D01*
X45221668Y-97219477D01*
X45229103Y-97226498D01*
X45236541Y-97232783D01*
X45243950Y-97238271D01*
X45251297Y-97242898D01*
X45258551Y-97246598D01*
X45265682Y-97249302D01*
X45272657Y-97250953D01*
X45279444Y-97251479D01*
X45286012Y-97250822D01*
X45292240Y-97248822D01*
X45297395Y-97245576D01*
X45301514Y-97241157D01*
X45304639Y-97235656D01*
X45306813Y-97229156D01*
X45308070Y-97221741D01*
X45308454Y-97213501D01*
X45308003Y-97204511D01*
X45306756Y-97194863D01*
X45304758Y-97184641D01*
X45302044Y-97173926D01*
X45298658Y-97162812D01*
X45290019Y-97139695D01*
X45279160Y-97115969D01*
X45266404Y-97092318D01*
X45252067Y-97069415D01*
X45236470Y-97047937D01*
X45228298Y-97037947D01*
X45219935Y-97028564D01*
X45211412Y-97019879D01*
X45202775Y-97011971D01*
X45194066Y-97004931D01*
X45185316Y-96998843D01*
X45176574Y-96993787D01*
X45167874Y-96989848D01*
X45159256Y-96987112D01*
X45150767Y-96985666D01*
X45150767Y-96985787D01*
X45123960Y-97004105D01*
X45122619Y-97010164D01*
X45122008Y-97016978D01*
X44685802Y-97016978D01*
X44680936Y-97006618D01*
X44617626Y-96844160D01*
X44564507Y-96674861D01*
X44527936Y-96523164D01*
X44795248Y-96523164D01*
X44880157Y-96826406D01*
X44881726Y-96828021D01*
X44883221Y-96829421D01*
X44884650Y-96830614D01*
X44886012Y-96831603D01*
X44887312Y-96832400D01*
X44888547Y-96833008D01*
X44889722Y-96833439D01*
X44890835Y-96833697D01*
X44891893Y-96833794D01*
X44892892Y-96833734D01*
X44893838Y-96833526D01*
X44894733Y-96833175D01*
X44895576Y-96832693D01*
X44896371Y-96832084D01*
X44897118Y-96831362D01*
X44897821Y-96830527D01*
X44898479Y-96829589D01*
X44899093Y-96828557D01*
X44900206Y-96826243D01*
X44901174Y-96823638D01*
X44902003Y-96820810D01*
X44902721Y-96817813D01*
X44903331Y-96814718D01*
X44903851Y-96811575D01*
X44904294Y-96808453D01*
X44905813Y-96791579D01*
X44906021Y-96773500D01*
X44904966Y-96754441D01*
X44902693Y-96734641D01*
X44899236Y-96714327D01*
X44894642Y-96693727D01*
X44888951Y-96673081D01*
X44882202Y-96652616D01*
X44874445Y-96632562D01*
X44865709Y-96613152D01*
X44856048Y-96594619D01*
X44845497Y-96577190D01*
X44834099Y-96561095D01*
X44828099Y-96553628D01*
X44821896Y-96546575D01*
X44815510Y-96539977D01*
X44808934Y-96533852D01*
X44802180Y-96528242D01*
X44795248Y-96523164D01*
X44527936Y-96523164D01*
X44522088Y-96498905D01*
X44493987Y-96339878D01*
X44475314Y-96182352D01*
X44465839Y-96026586D01*
X44465347Y-95872824D01*
X44465710Y-95866176D01*
X44713174Y-95866176D01*
X44713895Y-95989279D01*
X44721498Y-96112466D01*
X44736054Y-96235423D01*
X44757647Y-96357838D01*
X44774732Y-96361913D01*
X44791141Y-96366677D01*
X44806891Y-96372121D01*
X44821995Y-96378215D01*
X44836470Y-96384940D01*
X44850332Y-96392274D01*
X44863603Y-96400197D01*
X44876298Y-96408688D01*
X44888431Y-96417724D01*
X44900024Y-96427280D01*
X44911094Y-96437345D01*
X44921651Y-96447885D01*
X44941316Y-96470332D01*
X44959151Y-96494448D01*
X44975293Y-96520059D01*
X44989880Y-96546997D01*
X45003053Y-96575099D01*
X45014938Y-96604178D01*
X45025681Y-96634075D01*
X45035411Y-96664616D01*
X45044273Y-96695625D01*
X45052398Y-96726943D01*
X45083157Y-96728285D01*
X45112030Y-96731410D01*
X45139099Y-96736225D01*
X45164467Y-96742659D01*
X45188220Y-96750626D01*
X45210454Y-96760052D01*
X45231260Y-96770857D01*
X45235507Y-96773500D01*
X45250733Y-96782964D01*
X45268966Y-96796284D01*
X45286053Y-96810748D01*
X45302083Y-96826271D01*
X45317147Y-96842774D01*
X45331350Y-96860179D01*
X45344771Y-96878408D01*
X45369663Y-96917014D01*
X45392563Y-96957955D01*
X45414223Y-97000600D01*
X45456777Y-97088455D01*
X45479161Y-97132394D01*
X45503270Y-97175497D01*
X45527543Y-97213500D01*
X45529856Y-97217123D01*
X45544309Y-97237186D01*
X45559656Y-97256644D01*
X45590454Y-97291780D01*
X45622928Y-97324785D01*
X45656992Y-97355585D01*
X45692563Y-97384130D01*
X45729563Y-97410358D01*
X45767907Y-97434205D01*
X45807507Y-97455614D01*
X45848285Y-97474523D01*
X45890149Y-97490869D01*
X45933028Y-97504597D01*
X45976826Y-97515635D01*
X46021467Y-97523932D01*
X46066865Y-97529423D01*
X46112939Y-97532053D01*
X46159605Y-97531755D01*
X46206775Y-97528468D01*
X46238700Y-97524223D01*
X46269258Y-97518335D01*
X46298668Y-97511183D01*
X46327148Y-97503145D01*
X46382168Y-97485938D01*
X46436053Y-97469730D01*
X46463116Y-97462953D01*
X46490545Y-97457562D01*
X46518563Y-97453940D01*
X46532854Y-97452912D01*
X46547376Y-97452462D01*
X46562149Y-97452645D01*
X46577206Y-97453511D01*
X46592574Y-97455096D01*
X46608273Y-97457460D01*
X46624338Y-97460640D01*
X46640794Y-97464690D01*
X46657665Y-97469656D01*
X46674980Y-97475584D01*
X46687229Y-97480490D01*
X46699330Y-97486091D01*
X46711302Y-97492278D01*
X46723162Y-97498953D01*
X46734921Y-97506010D01*
X46746598Y-97513344D01*
X46769771Y-97528440D01*
X46792809Y-97543407D01*
X46804316Y-97550588D01*
X46815838Y-97557426D01*
X46827390Y-97563817D01*
X46838986Y-97569662D01*
X46850646Y-97574852D01*
X46862383Y-97579291D01*
X46884599Y-97586236D01*
X46905624Y-97591476D01*
X46925526Y-97595102D01*
X46944375Y-97597188D01*
X46962237Y-97597828D01*
X46979176Y-97597110D01*
X46995266Y-97595111D01*
X47010570Y-97591918D01*
X47025160Y-97587620D01*
X47039099Y-97582297D01*
X47052457Y-97576040D01*
X47065299Y-97568924D01*
X47077696Y-97561047D01*
X47089715Y-97552484D01*
X47097535Y-97546130D01*
X48525751Y-97546130D01*
X48526449Y-97553386D01*
X48528196Y-97560134D01*
X48531058Y-97566314D01*
X48537504Y-97568216D01*
X48544445Y-97568922D01*
X48551818Y-97568501D01*
X48559566Y-97567016D01*
X48567636Y-97564533D01*
X48575973Y-97561122D01*
X48584515Y-97556852D01*
X48593212Y-97551784D01*
X48602002Y-97545988D01*
X48610833Y-97539531D01*
X48628385Y-97524902D01*
X48645426Y-97508431D01*
X48661496Y-97490655D01*
X48676151Y-97472106D01*
X48688935Y-97453323D01*
X48694489Y-97444013D01*
X48699403Y-97434843D01*
X48703625Y-97425882D01*
X48707103Y-97417196D01*
X48709778Y-97408854D01*
X48711589Y-97400923D01*
X48712482Y-97393468D01*
X48712406Y-97386557D01*
X48711298Y-97380258D01*
X48709103Y-97374633D01*
X48705766Y-97369755D01*
X48701235Y-97365689D01*
X48696781Y-97363366D01*
X48691685Y-97362157D01*
X48686010Y-97362005D01*
X48679814Y-97362856D01*
X48673153Y-97364656D01*
X48666084Y-97367344D01*
X48658672Y-97370866D01*
X48650970Y-97375165D01*
X48634929Y-97385883D01*
X48618432Y-97399039D01*
X48601948Y-97414186D01*
X48585943Y-97430881D01*
X48570879Y-97448680D01*
X48557228Y-97467121D01*
X48545451Y-97485763D01*
X48540413Y-97495019D01*
X48536017Y-97504159D01*
X48532326Y-97513125D01*
X48529394Y-97521861D01*
X48527284Y-97530311D01*
X48526052Y-97538417D01*
X48525751Y-97546130D01*
X47097535Y-97546130D01*
X47112890Y-97533653D01*
X47203970Y-97448056D01*
X47229046Y-97427484D01*
X47242302Y-97417793D01*
X47256123Y-97408614D01*
X47270584Y-97400019D01*
X47285747Y-97392111D01*
X47301679Y-97384965D01*
X47318455Y-97378668D01*
X47343314Y-97370918D01*
X47367004Y-97364890D01*
X47389605Y-97360493D01*
X47411176Y-97357639D01*
X47431787Y-97356226D01*
X47451500Y-97356174D01*
X47470390Y-97357381D01*
X47488526Y-97359756D01*
X47505964Y-97363213D01*
X47522782Y-97367655D01*
X47539045Y-97372995D01*
X47554818Y-97379133D01*
X47570164Y-97385980D01*
X47585158Y-97393449D01*
X47614358Y-97409870D01*
X47642950Y-97427659D01*
X47671468Y-97446080D01*
X47700460Y-97464390D01*
X47730459Y-97481866D01*
X47746005Y-97490054D01*
X47762004Y-97497758D01*
X47778524Y-97504879D01*
X47795639Y-97511333D01*
X47813406Y-97517021D01*
X47831901Y-97521855D01*
X47851183Y-97525742D01*
X47871323Y-97528588D01*
X47888897Y-97530187D01*
X47906461Y-97531053D01*
X47923991Y-97531196D01*
X47941456Y-97530625D01*
X47958843Y-97529347D01*
X47976115Y-97527374D01*
X47993254Y-97524711D01*
X48010232Y-97521367D01*
X48027024Y-97517356D01*
X48043607Y-97512683D01*
X48059952Y-97507356D01*
X48076039Y-97501389D01*
X48091835Y-97494786D01*
X48107325Y-97487561D01*
X48122479Y-97479713D01*
X48137267Y-97471263D01*
X48151672Y-97462214D01*
X48165664Y-97452571D01*
X48179217Y-97442349D01*
X48192311Y-97431552D01*
X48204918Y-97420197D01*
X48217008Y-97408285D01*
X48228566Y-97395831D01*
X48239557Y-97382836D01*
X48249965Y-97369313D01*
X48259756Y-97355275D01*
X48268908Y-97340726D01*
X48277400Y-97325676D01*
X48285203Y-97310134D01*
X48292292Y-97294110D01*
X48298645Y-97277612D01*
X48304231Y-97260648D01*
X48309204Y-97242677D01*
X48313214Y-97225002D01*
X48316327Y-97207610D01*
X48318624Y-97190471D01*
X48321047Y-97156893D01*
X48321055Y-97149095D01*
X48893808Y-97149095D01*
X48894068Y-97151990D01*
X48894943Y-97153783D01*
X48898948Y-97156848D01*
X48903350Y-97158374D01*
X48908116Y-97158447D01*
X48913215Y-97157169D01*
X48918604Y-97154624D01*
X48924249Y-97150913D01*
X48930115Y-97146124D01*
X48936158Y-97140348D01*
X48948652Y-97126213D01*
X48961430Y-97109259D01*
X48974202Y-97090223D01*
X48986673Y-97069845D01*
X48998554Y-97048873D01*
X49009543Y-97028044D01*
X49019353Y-97008106D01*
X49027687Y-96989796D01*
X49034248Y-96973857D01*
X49038747Y-96961034D01*
X49040890Y-96952069D01*
X49040985Y-96949263D01*
X49040380Y-96947700D01*
X49034536Y-96946367D01*
X49028512Y-96946333D01*
X49022333Y-96947528D01*
X49016021Y-96949861D01*
X49009611Y-96953257D01*
X49003120Y-96957636D01*
X48996584Y-96962912D01*
X48990023Y-96969020D01*
X48983465Y-96975866D01*
X48976943Y-96983371D01*
X48964086Y-97000047D01*
X48951676Y-97018416D01*
X48939915Y-97037824D01*
X48929025Y-97057636D01*
X48919213Y-97077214D01*
X48910694Y-97095912D01*
X48903680Y-97113089D01*
X48898389Y-97128106D01*
X48895025Y-97140323D01*
X48893808Y-97149095D01*
X48321055Y-97149095D01*
X48321080Y-97124112D01*
X48319303Y-97091968D01*
X48317188Y-97069577D01*
X48493022Y-97069577D01*
X48493998Y-97080216D01*
X48496101Y-97090118D01*
X48499390Y-97099196D01*
X48503910Y-97107347D01*
X48509707Y-97114483D01*
X48517898Y-97121501D01*
X48526695Y-97126571D01*
X48536035Y-97129805D01*
X48545838Y-97131284D01*
X48556029Y-97131110D01*
X48566536Y-97129381D01*
X48577283Y-97126181D01*
X48588202Y-97121615D01*
X48599213Y-97115778D01*
X48610245Y-97108764D01*
X48621220Y-97100670D01*
X48632068Y-97091585D01*
X48642715Y-97081610D01*
X48653086Y-97070835D01*
X48663103Y-97059365D01*
X48672699Y-97047287D01*
X48681797Y-97034695D01*
X48690324Y-97021692D01*
X48698203Y-97008368D01*
X48705361Y-96994822D01*
X48711726Y-96981144D01*
X48717222Y-96967436D01*
X48721778Y-96953786D01*
X48725312Y-96940293D01*
X48727762Y-96927056D01*
X48729044Y-96914162D01*
X48729089Y-96901715D01*
X48727820Y-96889804D01*
X48725168Y-96878527D01*
X48721052Y-96867979D01*
X48715406Y-96858255D01*
X48708149Y-96849450D01*
X48697822Y-96844261D01*
X48687252Y-96840881D01*
X48676491Y-96839221D01*
X48665593Y-96839182D01*
X48654604Y-96840678D01*
X48643573Y-96843602D01*
X48632558Y-96847874D01*
X48621603Y-96853389D01*
X48610761Y-96860055D01*
X48600087Y-96867780D01*
X48589627Y-96876469D01*
X48579433Y-96886027D01*
X48569561Y-96896363D01*
X48560048Y-96907375D01*
X48550956Y-96918976D01*
X48542337Y-96931071D01*
X48526708Y-96956350D01*
X48513562Y-96982471D01*
X48508052Y-96995609D01*
X48503312Y-97008670D01*
X48499399Y-97021564D01*
X48496366Y-97034197D01*
X48494258Y-97046472D01*
X48493126Y-97058295D01*
X48493022Y-97069577D01*
X48317188Y-97069577D01*
X48316312Y-97060301D01*
X48309022Y-96997766D01*
X48305902Y-96966583D01*
X48303918Y-96935244D01*
X48303651Y-96903594D01*
X48305698Y-96871469D01*
X48307774Y-96855179D01*
X48310644Y-96838711D01*
X48314387Y-96822047D01*
X48319072Y-96805165D01*
X48324778Y-96788045D01*
X48331580Y-96770673D01*
X48339546Y-96753020D01*
X48348749Y-96735068D01*
X48363009Y-96710711D01*
X48378220Y-96688378D01*
X48394374Y-96668040D01*
X48411474Y-96649666D01*
X48429515Y-96633234D01*
X48448489Y-96618702D01*
X48454237Y-96615049D01*
X48868409Y-96615049D01*
X48869062Y-96625409D01*
X48870559Y-96635130D01*
X48872946Y-96644124D01*
X48876248Y-96652297D01*
X48880497Y-96659553D01*
X48885729Y-96665808D01*
X48895189Y-96674138D01*
X48904760Y-96680459D01*
X48914409Y-96684862D01*
X48924085Y-96687456D01*
X48933755Y-96688334D01*
X48943375Y-96687594D01*
X48952906Y-96685336D01*
X48962310Y-96681662D01*
X48971544Y-96676666D01*
X48980568Y-96670451D01*
X48989342Y-96663115D01*
X48997825Y-96654754D01*
X49005982Y-96645468D01*
X49013768Y-96635360D01*
X49021142Y-96624524D01*
X49028066Y-96613060D01*
X49040406Y-96588645D01*
X49050463Y-96562912D01*
X49057913Y-96536644D01*
X49060563Y-96523560D01*
X49062442Y-96510639D01*
X49063506Y-96497981D01*
X49063720Y-96485684D01*
X49063042Y-96473846D01*
X49061433Y-96462571D01*
X49058851Y-96451952D01*
X49055255Y-96442089D01*
X49050608Y-96433086D01*
X49044870Y-96425035D01*
X49034688Y-96419513D01*
X49024518Y-96415756D01*
X49014395Y-96413671D01*
X49004356Y-96413167D01*
X48994419Y-96414152D01*
X48984630Y-96416532D01*
X48975014Y-96420217D01*
X48965607Y-96425111D01*
X48956435Y-96431125D01*
X48947539Y-96438169D01*
X48938944Y-96446143D01*
X48930686Y-96454959D01*
X48922799Y-96464529D01*
X48915311Y-96474750D01*
X48908253Y-96485535D01*
X48901661Y-96496799D01*
X48890004Y-96520365D01*
X48880591Y-96544712D01*
X48873683Y-96569103D01*
X48871249Y-96581082D01*
X48869537Y-96592794D01*
X48868580Y-96604148D01*
X48868409Y-96615049D01*
X48454237Y-96615049D01*
X48468395Y-96606051D01*
X48489222Y-96595247D01*
X48510979Y-96586255D01*
X48533650Y-96579050D01*
X48557237Y-96573606D01*
X48581734Y-96569886D01*
X48607136Y-96567863D01*
X48633441Y-96567510D01*
X48660644Y-96568792D01*
X48688740Y-96571682D01*
X48688501Y-96552241D01*
X48688966Y-96532706D01*
X48690133Y-96513116D01*
X48692001Y-96493527D01*
X48694572Y-96473982D01*
X48697846Y-96454529D01*
X48701821Y-96435212D01*
X48706499Y-96416083D01*
X48711875Y-96397186D01*
X48717953Y-96378568D01*
X48724733Y-96360281D01*
X48732208Y-96342364D01*
X48740389Y-96324866D01*
X48749263Y-96307836D01*
X48758840Y-96291324D01*
X48769117Y-96275371D01*
X48780090Y-96260027D01*
X48791758Y-96245338D01*
X48804129Y-96231353D01*
X48817193Y-96218118D01*
X48830958Y-96205680D01*
X48845417Y-96194086D01*
X48860570Y-96183382D01*
X48876423Y-96173615D01*
X48892970Y-96164837D01*
X48894908Y-96163966D01*
X49160045Y-96163966D01*
X49160528Y-96184485D01*
X49162666Y-96203217D01*
X49164383Y-96211770D01*
X49166551Y-96219701D01*
X49169184Y-96226953D01*
X49172292Y-96233469D01*
X49175894Y-96239191D01*
X49179992Y-96244062D01*
X49182631Y-96246655D01*
X49185151Y-96248909D01*
X49187583Y-96250842D01*
X49189951Y-96252472D01*
X49192273Y-96253825D01*
X49193424Y-96254398D01*
X49194577Y-96254917D01*
X49196896Y-96255767D01*
X49199246Y-96256404D01*
X49201658Y-96256842D01*
X49204154Y-96257106D01*
X49206759Y-96257216D01*
X49209501Y-96257197D01*
X49212401Y-96257061D01*
X49215490Y-96256834D01*
X49222325Y-96256191D01*
X49221205Y-96253088D01*
X49220303Y-96249886D01*
X49219601Y-96246591D01*
X49219088Y-96243213D01*
X49218755Y-96239759D01*
X49218590Y-96236247D01*
X49218580Y-96232678D01*
X49218712Y-96229062D01*
X49219361Y-96221736D01*
X49220446Y-96214342D01*
X49221869Y-96206955D01*
X49223537Y-96199651D01*
X49227246Y-96185591D01*
X49230819Y-96172764D01*
X49232323Y-96167000D01*
X49233510Y-96161770D01*
X49234293Y-96157147D01*
X49234571Y-96153209D01*
X49234571Y-95953072D01*
X49234571Y-95952951D01*
X49229035Y-95957291D01*
X49223616Y-95962517D01*
X49218329Y-95968575D01*
X49213192Y-95975400D01*
X49203396Y-95991129D01*
X49194337Y-96009251D01*
X49186114Y-96029292D01*
X49178832Y-96050793D01*
X49172584Y-96073294D01*
X49167481Y-96096322D01*
X49163626Y-96119422D01*
X49161112Y-96142121D01*
X49160045Y-96163966D01*
X48894908Y-96163966D01*
X48910215Y-96157088D01*
X48928150Y-96150416D01*
X48946780Y-96144869D01*
X48966109Y-96140500D01*
X48986128Y-96137348D01*
X49006843Y-96135467D01*
X49028250Y-96134897D01*
X49027376Y-96094442D01*
X49027523Y-96074014D01*
X49028154Y-96053537D01*
X49029348Y-96033068D01*
X49031181Y-96012665D01*
X49033719Y-95992387D01*
X49037043Y-95972297D01*
X49041226Y-95952449D01*
X49046345Y-95932904D01*
X49052467Y-95913724D01*
X49059670Y-95894965D01*
X49068027Y-95876690D01*
X49077619Y-95858956D01*
X49088513Y-95841819D01*
X49100786Y-95825347D01*
X49106487Y-95818891D01*
X49113484Y-95811958D01*
X49121544Y-95804613D01*
X49130440Y-95796941D01*
X49169818Y-95764502D01*
X49179470Y-95756333D01*
X49188587Y-95748303D01*
X49196945Y-95740479D01*
X49204305Y-95732947D01*
X49207545Y-95729311D01*
X49210452Y-95725773D01*
X49212996Y-95722348D01*
X49215148Y-95719040D01*
X49216887Y-95715863D01*
X49218171Y-95712824D01*
X49218985Y-95709935D01*
X49219292Y-95707203D01*
X49219162Y-95696947D01*
X49218443Y-95685189D01*
X49215510Y-95657985D01*
X49210992Y-95627233D01*
X49205402Y-95594566D01*
X49193025Y-95530029D01*
X49182417Y-95477466D01*
X49157991Y-95367924D01*
X49128787Y-95261140D01*
X49094861Y-95157141D01*
X49056271Y-95055948D01*
X49013076Y-94957579D01*
X48965336Y-94862057D01*
X48913108Y-94769404D01*
X48856450Y-94679639D01*
X48795419Y-94592790D01*
X48730077Y-94508868D01*
X48660482Y-94427902D01*
X48586692Y-94349909D01*
X48508763Y-94274915D01*
X48426757Y-94202939D01*
X48340729Y-94134002D01*
X48250739Y-94068123D01*
X48170688Y-94014751D01*
X48088717Y-93965251D01*
X48004972Y-93919617D01*
X47919604Y-93877848D01*
X47832751Y-93839931D01*
X47744566Y-93805867D01*
X47655190Y-93775650D01*
X47564775Y-93749275D01*
X47473462Y-93726732D01*
X47381404Y-93708025D01*
X47195615Y-93682075D01*
X47008580Y-93671386D01*
X46821474Y-93675913D01*
X46635461Y-93695615D01*
X46451711Y-93730454D01*
X46361053Y-93753532D01*
X46271398Y-93780379D01*
X46182894Y-93810989D01*
X46095685Y-93845356D01*
X46009922Y-93883474D01*
X45925747Y-93925342D01*
X45843307Y-93970947D01*
X45762750Y-94020292D01*
X45684219Y-94073364D01*
X45607862Y-94130167D01*
X45533829Y-94190686D01*
X45462527Y-94254679D01*
X47785205Y-94254679D01*
X47821828Y-94255734D01*
X47857607Y-94258842D01*
X47892547Y-94263930D01*
X47926655Y-94270928D01*
X47959938Y-94279759D01*
X47992400Y-94290349D01*
X48024048Y-94302615D01*
X48054889Y-94316490D01*
X48084933Y-94331903D01*
X48114181Y-94348774D01*
X48142641Y-94367030D01*
X48170319Y-94386596D01*
X48197223Y-94407393D01*
X48223358Y-94429351D01*
X48273347Y-94476455D01*
X48320338Y-94527301D01*
X48364386Y-94581295D01*
X48405532Y-94637844D01*
X48443836Y-94696343D01*
X48479349Y-94756200D01*
X48512116Y-94816818D01*
X48542194Y-94877598D01*
X48569628Y-94937942D01*
X48598891Y-95006813D01*
X48618478Y-95056567D01*
X48628282Y-95083195D01*
X48637615Y-95110197D01*
X48646132Y-95136977D01*
X48653475Y-95162945D01*
X48659296Y-95187501D01*
X48663238Y-95210057D01*
X48664956Y-95230015D01*
X48664867Y-95238829D01*
X48664088Y-95246777D01*
X48662575Y-95253776D01*
X48660289Y-95259754D01*
X48657180Y-95264637D01*
X48653203Y-95268353D01*
X48638562Y-95270606D01*
X48621662Y-95272793D01*
X48603329Y-95274615D01*
X48593878Y-95275296D01*
X48584380Y-95275767D01*
X48574935Y-95275995D01*
X48565645Y-95275950D01*
X48556611Y-95275580D01*
X48547941Y-95274850D01*
X48539735Y-95273730D01*
X48532094Y-95272180D01*
X48525122Y-95270154D01*
X48521926Y-95268955D01*
X48518927Y-95267624D01*
X48517119Y-95266393D01*
X48514954Y-95264292D01*
X48509665Y-95257700D01*
X48503220Y-95248269D01*
X48495789Y-95236416D01*
X48478630Y-95207100D01*
X48459537Y-95173075D01*
X48420898Y-95104183D01*
X48404035Y-95075963D01*
X48396805Y-95064864D01*
X48390595Y-95056326D01*
X48372443Y-95035262D01*
X48351325Y-95013928D01*
X48327572Y-94992547D01*
X48301516Y-94971344D01*
X48273494Y-94950549D01*
X48243833Y-94930383D01*
X48212876Y-94911068D01*
X48180952Y-94892836D01*
X48148387Y-94875903D01*
X48115521Y-94860499D01*
X48082686Y-94846851D01*
X48050216Y-94835177D01*
X48018444Y-94825710D01*
X47987701Y-94818668D01*
X47958322Y-94814279D01*
X47930641Y-94812764D01*
X47657722Y-94812764D01*
X47777124Y-95710464D01*
X47815484Y-95936390D01*
X47838368Y-96047943D01*
X47864303Y-96158159D01*
X47893737Y-96266741D01*
X47927107Y-96373384D01*
X47964856Y-96477801D01*
X48007420Y-96579687D01*
X48027341Y-96621477D01*
X48048783Y-96662528D01*
X48093953Y-96743094D01*
X48138356Y-96822734D01*
X48158838Y-96862627D01*
X48177413Y-96902792D01*
X48193515Y-96943398D01*
X48206562Y-96984611D01*
X48211760Y-97005500D01*
X48215984Y-97026604D01*
X48219160Y-97047945D01*
X48221216Y-97069543D01*
X48222079Y-97091417D01*
X48221679Y-97113590D01*
X48219946Y-97136083D01*
X48216807Y-97158921D01*
X48212186Y-97182118D01*
X48206022Y-97205697D01*
X48198237Y-97229686D01*
X48188756Y-97254095D01*
X48182095Y-97268834D01*
X48174700Y-97283087D01*
X48166612Y-97296837D01*
X48157861Y-97310062D01*
X48148476Y-97322745D01*
X48138494Y-97334868D01*
X48127945Y-97346417D01*
X48116862Y-97357371D01*
X48105277Y-97367707D01*
X48093222Y-97377414D01*
X48080732Y-97386472D01*
X48067835Y-97394860D01*
X48054572Y-97402557D01*
X48040965Y-97409554D01*
X48027053Y-97415829D01*
X48012864Y-97421363D01*
X47998433Y-97426138D01*
X47983794Y-97430135D01*
X47968979Y-97433337D01*
X47954018Y-97435725D01*
X47938942Y-97437281D01*
X47923791Y-97437988D01*
X47908591Y-97437826D01*
X47893375Y-97436782D01*
X47878180Y-97434827D01*
X47863032Y-97431953D01*
X47847967Y-97428139D01*
X47833016Y-97423365D01*
X47818215Y-97417614D01*
X47803592Y-97410866D01*
X47789184Y-97403108D01*
X47775018Y-97394314D01*
X47752454Y-97377528D01*
X47730963Y-97357967D01*
X47710508Y-97335806D01*
X47691062Y-97311192D01*
X47672594Y-97284300D01*
X47655069Y-97255283D01*
X47622730Y-97191529D01*
X47593797Y-97121224D01*
X47568023Y-97045656D01*
X47545157Y-96966114D01*
X47524945Y-96883897D01*
X47507148Y-96800297D01*
X47491512Y-96716595D01*
X47465716Y-96554073D01*
X47429078Y-96284696D01*
X47380051Y-95917135D01*
X47336165Y-95548761D01*
X47292828Y-95180338D01*
X47245435Y-94812643D01*
X46505526Y-94812643D01*
X46522873Y-94971390D01*
X46544068Y-95129843D01*
X46592511Y-95446293D01*
X46639884Y-95762835D01*
X46659746Y-95921405D01*
X46675219Y-96080311D01*
X46680978Y-96158079D01*
X46685920Y-96239399D01*
X46689847Y-96323076D01*
X46692565Y-96407919D01*
X46693877Y-96492729D01*
X46693576Y-96576322D01*
X46691468Y-96657499D01*
X46687351Y-96735069D01*
X46678994Y-96818497D01*
X46666006Y-96896369D01*
X46648650Y-96968715D01*
X46627206Y-97035571D01*
X46601940Y-97096968D01*
X46573126Y-97152942D01*
X46541038Y-97203527D01*
X46505946Y-97248750D01*
X46468117Y-97288649D01*
X46427829Y-97323257D01*
X46385354Y-97352607D01*
X46340961Y-97376737D01*
X46294919Y-97395670D01*
X46247504Y-97409448D01*
X46198993Y-97418105D01*
X46149646Y-97421666D01*
X46099740Y-97420172D01*
X46049548Y-97413655D01*
X45999339Y-97402148D01*
X45949393Y-97385678D01*
X45899970Y-97364291D01*
X45851348Y-97338007D01*
X45803797Y-97306872D01*
X45757591Y-97270907D01*
X45712998Y-97230153D01*
X45670297Y-97184644D01*
X45629753Y-97134412D01*
X45591639Y-97079485D01*
X45556229Y-97019903D01*
X45523793Y-96955695D01*
X45494604Y-96886902D01*
X45468931Y-96813548D01*
X45462795Y-96792896D01*
X45457201Y-96771414D01*
X45452402Y-96749440D01*
X45448642Y-96727304D01*
X45447230Y-96716284D01*
X45446174Y-96705348D01*
X45445501Y-96694534D01*
X45445245Y-96683899D01*
X45445435Y-96673472D01*
X45446105Y-96663294D01*
X45447287Y-96653414D01*
X45449005Y-96643872D01*
X45451297Y-96634707D01*
X45454194Y-96625961D01*
X45457725Y-96617676D01*
X45461923Y-96609899D01*
X45466817Y-96602664D01*
X45472436Y-96596018D01*
X45478816Y-96590000D01*
X45485984Y-96584659D01*
X45493977Y-96580024D01*
X45502822Y-96576145D01*
X45512552Y-96573066D01*
X45523192Y-96570823D01*
X45534786Y-96569462D01*
X45547356Y-96569022D01*
X45560928Y-96569546D01*
X45575548Y-96571078D01*
X45641185Y-96697012D01*
X45649944Y-96712130D01*
X45659146Y-96726975D01*
X45668890Y-96741515D01*
X45679273Y-96755702D01*
X45690388Y-96769510D01*
X45702337Y-96782886D01*
X45715212Y-96795802D01*
X45729110Y-96808212D01*
X45742469Y-96818965D01*
X45756018Y-96828939D01*
X45769735Y-96838133D01*
X45783596Y-96846539D01*
X45797586Y-96854159D01*
X45811677Y-96860985D01*
X45825853Y-96867023D01*
X45840096Y-96872260D01*
X45854378Y-96876703D01*
X45868680Y-96880344D01*
X45882986Y-96883178D01*
X45897270Y-96885208D01*
X45911515Y-96886430D01*
X45925698Y-96886840D01*
X45939799Y-96886438D01*
X45953795Y-96885218D01*
X45967670Y-96883180D01*
X45981397Y-96880319D01*
X45994961Y-96876636D01*
X46008336Y-96872122D01*
X46021504Y-96866781D01*
X46034446Y-96860607D01*
X46047138Y-96853601D01*
X46059559Y-96845756D01*
X46071695Y-96837069D01*
X46083514Y-96827541D01*
X46094999Y-96817168D01*
X46106139Y-96805949D01*
X46116899Y-96793875D01*
X46127265Y-96780955D01*
X46137217Y-96767172D01*
X46146733Y-96752536D01*
X46160750Y-96727253D01*
X46173257Y-96699518D01*
X46193976Y-96637303D01*
X46209392Y-96567113D01*
X46219992Y-96490184D01*
X46226276Y-96407735D01*
X46228740Y-96320999D01*
X46227877Y-96231198D01*
X46224180Y-96139562D01*
X46210273Y-95955696D01*
X46190980Y-95779212D01*
X46152073Y-95487655D01*
X46140084Y-95403082D01*
X46127207Y-95318634D01*
X46099730Y-95149998D01*
X46071527Y-94981500D01*
X46044481Y-94812885D01*
X46002825Y-94810514D01*
X45960610Y-94809204D01*
X45874844Y-94809137D01*
X45787863Y-94811411D01*
X45700361Y-94814753D01*
X45613019Y-94817879D01*
X45526517Y-94819522D01*
X45441548Y-94818400D01*
X45399852Y-94816409D01*
X45358791Y-94813249D01*
X45343014Y-94811300D01*
X45328552Y-94808540D01*
X45315347Y-94805006D01*
X45303338Y-94800728D01*
X45292470Y-94795733D01*
X45282682Y-94790063D01*
X45273911Y-94783745D01*
X45266104Y-94776812D01*
X45259198Y-94769296D01*
X45253136Y-94761230D01*
X45247859Y-94752643D01*
X45243307Y-94743574D01*
X45239421Y-94734045D01*
X45236143Y-94724099D01*
X45231175Y-94703067D01*
X45227923Y-94680736D01*
X45225923Y-94657360D01*
X45223785Y-94608511D01*
X45222700Y-94583555D01*
X45220973Y-94558587D01*
X45218139Y-94533861D01*
X45213720Y-94509642D01*
X45137764Y-94607282D01*
X45067782Y-94708769D01*
X45003850Y-94813785D01*
X44946045Y-94922023D01*
X44894441Y-95033164D01*
X44849112Y-95146894D01*
X44810132Y-95262909D01*
X44777586Y-95380884D01*
X44751538Y-95500516D01*
X44732072Y-95621484D01*
X44719260Y-95743473D01*
X44713174Y-95866176D01*
X44465710Y-95866176D01*
X44473619Y-95721331D01*
X44490424Y-95572362D01*
X44515552Y-95426167D01*
X44548772Y-95283007D01*
X44589869Y-95143134D01*
X44638617Y-95006811D01*
X44694799Y-94874285D01*
X44758189Y-94745812D01*
X44828569Y-94621650D01*
X44905718Y-94502056D01*
X44989411Y-94387285D01*
X45079432Y-94277590D01*
X45175555Y-94173225D01*
X45277557Y-94074449D01*
X45385222Y-93981521D01*
X45498323Y-93894691D01*
X45616643Y-93814217D01*
X45739965Y-93740353D01*
X45868056Y-93673351D01*
X46000701Y-93613469D01*
X46137680Y-93560975D01*
X46278769Y-93516107D01*
X46423745Y-93479127D01*
X46572391Y-93450290D01*
X46724483Y-93429854D01*
X46879800Y-93418071D01*
X47038120Y-93415200D01*
X47199222Y-93421493D01*
X47401905Y-93443149D01*
X47596465Y-93479731D01*
X47782702Y-93530492D01*
X47960422Y-93594702D01*
X48129431Y-93671626D01*
X48289525Y-93760523D01*
X48440505Y-93860660D01*
X48582184Y-93971303D01*
X48714355Y-94091708D01*
X48836825Y-94221150D01*
X48949392Y-94358882D01*
X49051866Y-94504169D01*
X49144042Y-94656281D01*
X49225727Y-94814481D01*
X49296721Y-94978033D01*
X49356825Y-95146190D01*
X49405848Y-95318231D01*
X49443589Y-95493413D01*
X49469850Y-95670999D01*
X49472794Y-95707203D01*
X49484432Y-95850250D01*
G37*
D11*
X25925180Y-125031904D02*
X25925180Y-124460476D01*
X24925180Y-124746190D02*
X25925180Y-124746190D01*
X24925180Y-124127142D02*
X25925180Y-124127142D01*
X25925180Y-124127142D02*
X25925180Y-123746190D01*
X25925180Y-123746190D02*
X25877561Y-123650952D01*
X25877561Y-123650952D02*
X25829942Y-123603333D01*
X25829942Y-123603333D02*
X25734704Y-123555714D01*
X25734704Y-123555714D02*
X25591847Y-123555714D01*
X25591847Y-123555714D02*
X25496609Y-123603333D01*
X25496609Y-123603333D02*
X25448990Y-123650952D01*
X25448990Y-123650952D02*
X25401371Y-123746190D01*
X25401371Y-123746190D02*
X25401371Y-124127142D01*
X25829942Y-123174761D02*
X25877561Y-123127142D01*
X25877561Y-123127142D02*
X25925180Y-123031904D01*
X25925180Y-123031904D02*
X25925180Y-122793809D01*
X25925180Y-122793809D02*
X25877561Y-122698571D01*
X25877561Y-122698571D02*
X25829942Y-122650952D01*
X25829942Y-122650952D02*
X25734704Y-122603333D01*
X25734704Y-122603333D02*
X25639466Y-122603333D01*
X25639466Y-122603333D02*
X25496609Y-122650952D01*
X25496609Y-122650952D02*
X24925180Y-123222380D01*
X24925180Y-123222380D02*
X24925180Y-122603333D01*
X35665180Y-121681904D02*
X35665180Y-121110476D01*
X34665180Y-121396190D02*
X35665180Y-121396190D01*
X34665180Y-120777142D02*
X35665180Y-120777142D01*
X35665180Y-120777142D02*
X35665180Y-120396190D01*
X35665180Y-120396190D02*
X35617561Y-120300952D01*
X35617561Y-120300952D02*
X35569942Y-120253333D01*
X35569942Y-120253333D02*
X35474704Y-120205714D01*
X35474704Y-120205714D02*
X35331847Y-120205714D01*
X35331847Y-120205714D02*
X35236609Y-120253333D01*
X35236609Y-120253333D02*
X35188990Y-120300952D01*
X35188990Y-120300952D02*
X35141371Y-120396190D01*
X35141371Y-120396190D02*
X35141371Y-120777142D01*
X35665180Y-119872380D02*
X35665180Y-119253333D01*
X35665180Y-119253333D02*
X35284228Y-119586666D01*
X35284228Y-119586666D02*
X35284228Y-119443809D01*
X35284228Y-119443809D02*
X35236609Y-119348571D01*
X35236609Y-119348571D02*
X35188990Y-119300952D01*
X35188990Y-119300952D02*
X35093752Y-119253333D01*
X35093752Y-119253333D02*
X34855657Y-119253333D01*
X34855657Y-119253333D02*
X34760419Y-119300952D01*
X34760419Y-119300952D02*
X34712800Y-119348571D01*
X34712800Y-119348571D02*
X34665180Y-119443809D01*
X34665180Y-119443809D02*
X34665180Y-119729523D01*
X34665180Y-119729523D02*
X34712800Y-119824761D01*
X34712800Y-119824761D02*
X34760419Y-119872380D01*
X68235180Y-160661904D02*
X68235180Y-160090476D01*
X67235180Y-160376190D02*
X68235180Y-160376190D01*
X67235180Y-159757142D02*
X68235180Y-159757142D01*
X68235180Y-159757142D02*
X68235180Y-159376190D01*
X68235180Y-159376190D02*
X68187561Y-159280952D01*
X68187561Y-159280952D02*
X68139942Y-159233333D01*
X68139942Y-159233333D02*
X68044704Y-159185714D01*
X68044704Y-159185714D02*
X67901847Y-159185714D01*
X67901847Y-159185714D02*
X67806609Y-159233333D01*
X67806609Y-159233333D02*
X67758990Y-159280952D01*
X67758990Y-159280952D02*
X67711371Y-159376190D01*
X67711371Y-159376190D02*
X67711371Y-159757142D01*
X68235180Y-158328571D02*
X68235180Y-158519047D01*
X68235180Y-158519047D02*
X68187561Y-158614285D01*
X68187561Y-158614285D02*
X68139942Y-158661904D01*
X68139942Y-158661904D02*
X67997085Y-158757142D01*
X67997085Y-158757142D02*
X67806609Y-158804761D01*
X67806609Y-158804761D02*
X67425657Y-158804761D01*
X67425657Y-158804761D02*
X67330419Y-158757142D01*
X67330419Y-158757142D02*
X67282800Y-158709523D01*
X67282800Y-158709523D02*
X67235180Y-158614285D01*
X67235180Y-158614285D02*
X67235180Y-158423809D01*
X67235180Y-158423809D02*
X67282800Y-158328571D01*
X67282800Y-158328571D02*
X67330419Y-158280952D01*
X67330419Y-158280952D02*
X67425657Y-158233333D01*
X67425657Y-158233333D02*
X67663752Y-158233333D01*
X67663752Y-158233333D02*
X67758990Y-158280952D01*
X67758990Y-158280952D02*
X67806609Y-158328571D01*
X67806609Y-158328571D02*
X67854228Y-158423809D01*
X67854228Y-158423809D02*
X67854228Y-158614285D01*
X67854228Y-158614285D02*
X67806609Y-158709523D01*
X67806609Y-158709523D02*
X67758990Y-158757142D01*
X67758990Y-158757142D02*
X67663752Y-158804761D01*
X85005180Y-154511904D02*
X85005180Y-153940476D01*
X84005180Y-154226190D02*
X85005180Y-154226190D01*
X84005180Y-153607142D02*
X85005180Y-153607142D01*
X85005180Y-153607142D02*
X85005180Y-153226190D01*
X85005180Y-153226190D02*
X84957561Y-153130952D01*
X84957561Y-153130952D02*
X84909942Y-153083333D01*
X84909942Y-153083333D02*
X84814704Y-153035714D01*
X84814704Y-153035714D02*
X84671847Y-153035714D01*
X84671847Y-153035714D02*
X84576609Y-153083333D01*
X84576609Y-153083333D02*
X84528990Y-153130952D01*
X84528990Y-153130952D02*
X84481371Y-153226190D01*
X84481371Y-153226190D02*
X84481371Y-153607142D01*
X85005180Y-152702380D02*
X85005180Y-152035714D01*
X85005180Y-152035714D02*
X84005180Y-152464285D01*
X86275180Y-143891904D02*
X86275180Y-143320476D01*
X85275180Y-143606190D02*
X86275180Y-143606190D01*
X85275180Y-142987142D02*
X86275180Y-142987142D01*
X86275180Y-142987142D02*
X86275180Y-142606190D01*
X86275180Y-142606190D02*
X86227561Y-142510952D01*
X86227561Y-142510952D02*
X86179942Y-142463333D01*
X86179942Y-142463333D02*
X86084704Y-142415714D01*
X86084704Y-142415714D02*
X85941847Y-142415714D01*
X85941847Y-142415714D02*
X85846609Y-142463333D01*
X85846609Y-142463333D02*
X85798990Y-142510952D01*
X85798990Y-142510952D02*
X85751371Y-142606190D01*
X85751371Y-142606190D02*
X85751371Y-142987142D01*
X85846609Y-141844285D02*
X85894228Y-141939523D01*
X85894228Y-141939523D02*
X85941847Y-141987142D01*
X85941847Y-141987142D02*
X86037085Y-142034761D01*
X86037085Y-142034761D02*
X86084704Y-142034761D01*
X86084704Y-142034761D02*
X86179942Y-141987142D01*
X86179942Y-141987142D02*
X86227561Y-141939523D01*
X86227561Y-141939523D02*
X86275180Y-141844285D01*
X86275180Y-141844285D02*
X86275180Y-141653809D01*
X86275180Y-141653809D02*
X86227561Y-141558571D01*
X86227561Y-141558571D02*
X86179942Y-141510952D01*
X86179942Y-141510952D02*
X86084704Y-141463333D01*
X86084704Y-141463333D02*
X86037085Y-141463333D01*
X86037085Y-141463333D02*
X85941847Y-141510952D01*
X85941847Y-141510952D02*
X85894228Y-141558571D01*
X85894228Y-141558571D02*
X85846609Y-141653809D01*
X85846609Y-141653809D02*
X85846609Y-141844285D01*
X85846609Y-141844285D02*
X85798990Y-141939523D01*
X85798990Y-141939523D02*
X85751371Y-141987142D01*
X85751371Y-141987142D02*
X85656133Y-142034761D01*
X85656133Y-142034761D02*
X85465657Y-142034761D01*
X85465657Y-142034761D02*
X85370419Y-141987142D01*
X85370419Y-141987142D02*
X85322800Y-141939523D01*
X85322800Y-141939523D02*
X85275180Y-141844285D01*
X85275180Y-141844285D02*
X85275180Y-141653809D01*
X85275180Y-141653809D02*
X85322800Y-141558571D01*
X85322800Y-141558571D02*
X85370419Y-141510952D01*
X85370419Y-141510952D02*
X85465657Y-141463333D01*
X85465657Y-141463333D02*
X85656133Y-141463333D01*
X85656133Y-141463333D02*
X85751371Y-141510952D01*
X85751371Y-141510952D02*
X85798990Y-141558571D01*
X85798990Y-141558571D02*
X85846609Y-141653809D01*
X92035180Y-150618094D02*
X92035180Y-150046666D01*
X91035180Y-150332380D02*
X92035180Y-150332380D01*
X91035180Y-149713332D02*
X92035180Y-149713332D01*
X92035180Y-149713332D02*
X92035180Y-149332380D01*
X92035180Y-149332380D02*
X91987561Y-149237142D01*
X91987561Y-149237142D02*
X91939942Y-149189523D01*
X91939942Y-149189523D02*
X91844704Y-149141904D01*
X91844704Y-149141904D02*
X91701847Y-149141904D01*
X91701847Y-149141904D02*
X91606609Y-149189523D01*
X91606609Y-149189523D02*
X91558990Y-149237142D01*
X91558990Y-149237142D02*
X91511371Y-149332380D01*
X91511371Y-149332380D02*
X91511371Y-149713332D01*
X91035180Y-148189523D02*
X91035180Y-148760951D01*
X91035180Y-148475237D02*
X92035180Y-148475237D01*
X92035180Y-148475237D02*
X91892323Y-148570475D01*
X91892323Y-148570475D02*
X91797085Y-148665713D01*
X91797085Y-148665713D02*
X91749466Y-148760951D01*
X92035180Y-147570475D02*
X92035180Y-147475237D01*
X92035180Y-147475237D02*
X91987561Y-147379999D01*
X91987561Y-147379999D02*
X91939942Y-147332380D01*
X91939942Y-147332380D02*
X91844704Y-147284761D01*
X91844704Y-147284761D02*
X91654228Y-147237142D01*
X91654228Y-147237142D02*
X91416133Y-147237142D01*
X91416133Y-147237142D02*
X91225657Y-147284761D01*
X91225657Y-147284761D02*
X91130419Y-147332380D01*
X91130419Y-147332380D02*
X91082800Y-147379999D01*
X91082800Y-147379999D02*
X91035180Y-147475237D01*
X91035180Y-147475237D02*
X91035180Y-147570475D01*
X91035180Y-147570475D02*
X91082800Y-147665713D01*
X91082800Y-147665713D02*
X91130419Y-147713332D01*
X91130419Y-147713332D02*
X91225657Y-147760951D01*
X91225657Y-147760951D02*
X91416133Y-147808570D01*
X91416133Y-147808570D02*
X91654228Y-147808570D01*
X91654228Y-147808570D02*
X91844704Y-147760951D01*
X91844704Y-147760951D02*
X91939942Y-147713332D01*
X91939942Y-147713332D02*
X91987561Y-147665713D01*
X91987561Y-147665713D02*
X92035180Y-147570475D01*
X36533220Y-135509819D02*
X36533220Y-134509819D01*
X36533220Y-134986009D02*
X35961792Y-134986009D01*
X35961792Y-135509819D02*
X35961792Y-134509819D01*
X35104649Y-135462200D02*
X35199887Y-135509819D01*
X35199887Y-135509819D02*
X35390363Y-135509819D01*
X35390363Y-135509819D02*
X35485601Y-135462200D01*
X35485601Y-135462200D02*
X35533220Y-135366961D01*
X35533220Y-135366961D02*
X35533220Y-134986009D01*
X35533220Y-134986009D02*
X35485601Y-134890771D01*
X35485601Y-134890771D02*
X35390363Y-134843152D01*
X35390363Y-134843152D02*
X35199887Y-134843152D01*
X35199887Y-134843152D02*
X35104649Y-134890771D01*
X35104649Y-134890771D02*
X35057030Y-134986009D01*
X35057030Y-134986009D02*
X35057030Y-135081247D01*
X35057030Y-135081247D02*
X35533220Y-135176485D01*
X34199887Y-135509819D02*
X34199887Y-134986009D01*
X34199887Y-134986009D02*
X34247506Y-134890771D01*
X34247506Y-134890771D02*
X34342744Y-134843152D01*
X34342744Y-134843152D02*
X34533220Y-134843152D01*
X34533220Y-134843152D02*
X34628458Y-134890771D01*
X34199887Y-135462200D02*
X34295125Y-135509819D01*
X34295125Y-135509819D02*
X34533220Y-135509819D01*
X34533220Y-135509819D02*
X34628458Y-135462200D01*
X34628458Y-135462200D02*
X34676077Y-135366961D01*
X34676077Y-135366961D02*
X34676077Y-135271723D01*
X34676077Y-135271723D02*
X34628458Y-135176485D01*
X34628458Y-135176485D02*
X34533220Y-135128866D01*
X34533220Y-135128866D02*
X34295125Y-135128866D01*
X34295125Y-135128866D02*
X34199887Y-135081247D01*
X33866553Y-134843152D02*
X33485601Y-134843152D01*
X33723696Y-134509819D02*
X33723696Y-135366961D01*
X33723696Y-135366961D02*
X33676077Y-135462200D01*
X33676077Y-135462200D02*
X33580839Y-135509819D01*
X33580839Y-135509819D02*
X33485601Y-135509819D01*
X33199886Y-135462200D02*
X33104648Y-135509819D01*
X33104648Y-135509819D02*
X32914172Y-135509819D01*
X32914172Y-135509819D02*
X32818934Y-135462200D01*
X32818934Y-135462200D02*
X32771315Y-135366961D01*
X32771315Y-135366961D02*
X32771315Y-135319342D01*
X32771315Y-135319342D02*
X32818934Y-135224104D01*
X32818934Y-135224104D02*
X32914172Y-135176485D01*
X32914172Y-135176485D02*
X33057029Y-135176485D01*
X33057029Y-135176485D02*
X33152267Y-135128866D01*
X33152267Y-135128866D02*
X33199886Y-135033628D01*
X33199886Y-135033628D02*
X33199886Y-134986009D01*
X33199886Y-134986009D02*
X33152267Y-134890771D01*
X33152267Y-134890771D02*
X33057029Y-134843152D01*
X33057029Y-134843152D02*
X32914172Y-134843152D01*
X32914172Y-134843152D02*
X32818934Y-134890771D01*
X32342743Y-135509819D02*
X32342743Y-134843152D01*
X32342743Y-134509819D02*
X32390362Y-134557438D01*
X32390362Y-134557438D02*
X32342743Y-134605057D01*
X32342743Y-134605057D02*
X32295124Y-134557438D01*
X32295124Y-134557438D02*
X32342743Y-134509819D01*
X32342743Y-134509819D02*
X32342743Y-134605057D01*
X31866553Y-134843152D02*
X31866553Y-135509819D01*
X31866553Y-134938390D02*
X31818934Y-134890771D01*
X31818934Y-134890771D02*
X31723696Y-134843152D01*
X31723696Y-134843152D02*
X31580839Y-134843152D01*
X31580839Y-134843152D02*
X31485601Y-134890771D01*
X31485601Y-134890771D02*
X31437982Y-134986009D01*
X31437982Y-134986009D02*
X31437982Y-135509819D01*
X30961791Y-135509819D02*
X30961791Y-134509819D01*
X30866553Y-135128866D02*
X30580839Y-135509819D01*
X30580839Y-134843152D02*
X30961791Y-135224104D01*
X90883220Y-104679819D02*
X90883220Y-103679819D01*
X90883220Y-103679819D02*
X90645125Y-103679819D01*
X90645125Y-103679819D02*
X90502268Y-103727438D01*
X90502268Y-103727438D02*
X90407030Y-103822676D01*
X90407030Y-103822676D02*
X90359411Y-103917914D01*
X90359411Y-103917914D02*
X90311792Y-104108390D01*
X90311792Y-104108390D02*
X90311792Y-104251247D01*
X90311792Y-104251247D02*
X90359411Y-104441723D01*
X90359411Y-104441723D02*
X90407030Y-104536961D01*
X90407030Y-104536961D02*
X90502268Y-104632200D01*
X90502268Y-104632200D02*
X90645125Y-104679819D01*
X90645125Y-104679819D02*
X90883220Y-104679819D01*
X89930839Y-104394104D02*
X89454649Y-104394104D01*
X90026077Y-104679819D02*
X89692744Y-103679819D01*
X89692744Y-103679819D02*
X89359411Y-104679819D01*
X89168934Y-103679819D02*
X88597506Y-103679819D01*
X88883220Y-104679819D02*
X88883220Y-103679819D01*
X88311791Y-104394104D02*
X87835601Y-104394104D01*
X88407029Y-104679819D02*
X88073696Y-103679819D01*
X88073696Y-103679819D02*
X87740363Y-104679819D01*
X96588458Y-101139819D02*
X96350363Y-102139819D01*
X96350363Y-102139819D02*
X96159887Y-101425533D01*
X96159887Y-101425533D02*
X95969411Y-102139819D01*
X95969411Y-102139819D02*
X95731316Y-101139819D01*
X95397982Y-102092200D02*
X95255125Y-102139819D01*
X95255125Y-102139819D02*
X95017030Y-102139819D01*
X95017030Y-102139819D02*
X94921792Y-102092200D01*
X94921792Y-102092200D02*
X94874173Y-102044580D01*
X94874173Y-102044580D02*
X94826554Y-101949342D01*
X94826554Y-101949342D02*
X94826554Y-101854104D01*
X94826554Y-101854104D02*
X94874173Y-101758866D01*
X94874173Y-101758866D02*
X94921792Y-101711247D01*
X94921792Y-101711247D02*
X95017030Y-101663628D01*
X95017030Y-101663628D02*
X95207506Y-101616009D01*
X95207506Y-101616009D02*
X95302744Y-101568390D01*
X95302744Y-101568390D02*
X95350363Y-101520771D01*
X95350363Y-101520771D02*
X95397982Y-101425533D01*
X95397982Y-101425533D02*
X95397982Y-101330295D01*
X95397982Y-101330295D02*
X95350363Y-101235057D01*
X95350363Y-101235057D02*
X95302744Y-101187438D01*
X95302744Y-101187438D02*
X95207506Y-101139819D01*
X95207506Y-101139819D02*
X94969411Y-101139819D01*
X94969411Y-101139819D02*
X94826554Y-101187438D01*
X102630839Y-104422200D02*
X102487982Y-104469819D01*
X102487982Y-104469819D02*
X102249887Y-104469819D01*
X102249887Y-104469819D02*
X102154649Y-104422200D01*
X102154649Y-104422200D02*
X102107030Y-104374580D01*
X102107030Y-104374580D02*
X102059411Y-104279342D01*
X102059411Y-104279342D02*
X102059411Y-104184104D01*
X102059411Y-104184104D02*
X102107030Y-104088866D01*
X102107030Y-104088866D02*
X102154649Y-104041247D01*
X102154649Y-104041247D02*
X102249887Y-103993628D01*
X102249887Y-103993628D02*
X102440363Y-103946009D01*
X102440363Y-103946009D02*
X102535601Y-103898390D01*
X102535601Y-103898390D02*
X102583220Y-103850771D01*
X102583220Y-103850771D02*
X102630839Y-103755533D01*
X102630839Y-103755533D02*
X102630839Y-103660295D01*
X102630839Y-103660295D02*
X102583220Y-103565057D01*
X102583220Y-103565057D02*
X102535601Y-103517438D01*
X102535601Y-103517438D02*
X102440363Y-103469819D01*
X102440363Y-103469819D02*
X102202268Y-103469819D01*
X102202268Y-103469819D02*
X102059411Y-103517438D01*
X101059411Y-104374580D02*
X101107030Y-104422200D01*
X101107030Y-104422200D02*
X101249887Y-104469819D01*
X101249887Y-104469819D02*
X101345125Y-104469819D01*
X101345125Y-104469819D02*
X101487982Y-104422200D01*
X101487982Y-104422200D02*
X101583220Y-104326961D01*
X101583220Y-104326961D02*
X101630839Y-104231723D01*
X101630839Y-104231723D02*
X101678458Y-104041247D01*
X101678458Y-104041247D02*
X101678458Y-103898390D01*
X101678458Y-103898390D02*
X101630839Y-103707914D01*
X101630839Y-103707914D02*
X101583220Y-103612676D01*
X101583220Y-103612676D02*
X101487982Y-103517438D01*
X101487982Y-103517438D02*
X101345125Y-103469819D01*
X101345125Y-103469819D02*
X101249887Y-103469819D01*
X101249887Y-103469819D02*
X101107030Y-103517438D01*
X101107030Y-103517438D02*
X101059411Y-103565057D01*
X100630839Y-104469819D02*
X100630839Y-103469819D01*
X100059411Y-104469819D02*
X100487982Y-103898390D01*
X100059411Y-103469819D02*
X100630839Y-104041247D01*
X106419411Y-96337438D02*
X106514649Y-96289819D01*
X106514649Y-96289819D02*
X106657506Y-96289819D01*
X106657506Y-96289819D02*
X106800363Y-96337438D01*
X106800363Y-96337438D02*
X106895601Y-96432676D01*
X106895601Y-96432676D02*
X106943220Y-96527914D01*
X106943220Y-96527914D02*
X106990839Y-96718390D01*
X106990839Y-96718390D02*
X106990839Y-96861247D01*
X106990839Y-96861247D02*
X106943220Y-97051723D01*
X106943220Y-97051723D02*
X106895601Y-97146961D01*
X106895601Y-97146961D02*
X106800363Y-97242200D01*
X106800363Y-97242200D02*
X106657506Y-97289819D01*
X106657506Y-97289819D02*
X106562268Y-97289819D01*
X106562268Y-97289819D02*
X106419411Y-97242200D01*
X106419411Y-97242200D02*
X106371792Y-97194580D01*
X106371792Y-97194580D02*
X106371792Y-96861247D01*
X106371792Y-96861247D02*
X106562268Y-96861247D01*
X105943220Y-97289819D02*
X105943220Y-96289819D01*
X105943220Y-96289819D02*
X105371792Y-97289819D01*
X105371792Y-97289819D02*
X105371792Y-96289819D01*
X104895601Y-97289819D02*
X104895601Y-96289819D01*
X104895601Y-96289819D02*
X104657506Y-96289819D01*
X104657506Y-96289819D02*
X104514649Y-96337438D01*
X104514649Y-96337438D02*
X104419411Y-96432676D01*
X104419411Y-96432676D02*
X104371792Y-96527914D01*
X104371792Y-96527914D02*
X104324173Y-96718390D01*
X104324173Y-96718390D02*
X104324173Y-96861247D01*
X104324173Y-96861247D02*
X104371792Y-97051723D01*
X104371792Y-97051723D02*
X104419411Y-97146961D01*
X104419411Y-97146961D02*
X104514649Y-97242200D01*
X104514649Y-97242200D02*
X104657506Y-97289819D01*
X104657506Y-97289819D02*
X104895601Y-97289819D01*
X106509411Y-90937438D02*
X106604649Y-90889819D01*
X106604649Y-90889819D02*
X106747506Y-90889819D01*
X106747506Y-90889819D02*
X106890363Y-90937438D01*
X106890363Y-90937438D02*
X106985601Y-91032676D01*
X106985601Y-91032676D02*
X107033220Y-91127914D01*
X107033220Y-91127914D02*
X107080839Y-91318390D01*
X107080839Y-91318390D02*
X107080839Y-91461247D01*
X107080839Y-91461247D02*
X107033220Y-91651723D01*
X107033220Y-91651723D02*
X106985601Y-91746961D01*
X106985601Y-91746961D02*
X106890363Y-91842200D01*
X106890363Y-91842200D02*
X106747506Y-91889819D01*
X106747506Y-91889819D02*
X106652268Y-91889819D01*
X106652268Y-91889819D02*
X106509411Y-91842200D01*
X106509411Y-91842200D02*
X106461792Y-91794580D01*
X106461792Y-91794580D02*
X106461792Y-91461247D01*
X106461792Y-91461247D02*
X106652268Y-91461247D01*
X106033220Y-91889819D02*
X106033220Y-90889819D01*
X106033220Y-90889819D02*
X105461792Y-91889819D01*
X105461792Y-91889819D02*
X105461792Y-90889819D01*
X104985601Y-91889819D02*
X104985601Y-90889819D01*
X104985601Y-90889819D02*
X104747506Y-90889819D01*
X104747506Y-90889819D02*
X104604649Y-90937438D01*
X104604649Y-90937438D02*
X104509411Y-91032676D01*
X104509411Y-91032676D02*
X104461792Y-91127914D01*
X104461792Y-91127914D02*
X104414173Y-91318390D01*
X104414173Y-91318390D02*
X104414173Y-91461247D01*
X104414173Y-91461247D02*
X104461792Y-91651723D01*
X104461792Y-91651723D02*
X104509411Y-91746961D01*
X104509411Y-91746961D02*
X104604649Y-91842200D01*
X104604649Y-91842200D02*
X104747506Y-91889819D01*
X104747506Y-91889819D02*
X104985601Y-91889819D01*
X109951792Y-94484580D02*
X109999411Y-94532200D01*
X109999411Y-94532200D02*
X110142268Y-94579819D01*
X110142268Y-94579819D02*
X110237506Y-94579819D01*
X110237506Y-94579819D02*
X110380363Y-94532200D01*
X110380363Y-94532200D02*
X110475601Y-94436961D01*
X110475601Y-94436961D02*
X110523220Y-94341723D01*
X110523220Y-94341723D02*
X110570839Y-94151247D01*
X110570839Y-94151247D02*
X110570839Y-94008390D01*
X110570839Y-94008390D02*
X110523220Y-93817914D01*
X110523220Y-93817914D02*
X110475601Y-93722676D01*
X110475601Y-93722676D02*
X110380363Y-93627438D01*
X110380363Y-93627438D02*
X110237506Y-93579819D01*
X110237506Y-93579819D02*
X110142268Y-93579819D01*
X110142268Y-93579819D02*
X109999411Y-93627438D01*
X109999411Y-93627438D02*
X109951792Y-93675057D01*
X109094649Y-94579819D02*
X109094649Y-94056009D01*
X109094649Y-94056009D02*
X109142268Y-93960771D01*
X109142268Y-93960771D02*
X109237506Y-93913152D01*
X109237506Y-93913152D02*
X109427982Y-93913152D01*
X109427982Y-93913152D02*
X109523220Y-93960771D01*
X109094649Y-94532200D02*
X109189887Y-94579819D01*
X109189887Y-94579819D02*
X109427982Y-94579819D01*
X109427982Y-94579819D02*
X109523220Y-94532200D01*
X109523220Y-94532200D02*
X109570839Y-94436961D01*
X109570839Y-94436961D02*
X109570839Y-94341723D01*
X109570839Y-94341723D02*
X109523220Y-94246485D01*
X109523220Y-94246485D02*
X109427982Y-94198866D01*
X109427982Y-94198866D02*
X109189887Y-94198866D01*
X109189887Y-94198866D02*
X109094649Y-94151247D01*
X108618458Y-94579819D02*
X108618458Y-93913152D01*
X108618458Y-94008390D02*
X108570839Y-93960771D01*
X108570839Y-93960771D02*
X108475601Y-93913152D01*
X108475601Y-93913152D02*
X108332744Y-93913152D01*
X108332744Y-93913152D02*
X108237506Y-93960771D01*
X108237506Y-93960771D02*
X108189887Y-94056009D01*
X108189887Y-94056009D02*
X108189887Y-94579819D01*
X108189887Y-94056009D02*
X108142268Y-93960771D01*
X108142268Y-93960771D02*
X108047030Y-93913152D01*
X108047030Y-93913152D02*
X107904173Y-93913152D01*
X107904173Y-93913152D02*
X107808934Y-93960771D01*
X107808934Y-93960771D02*
X107761315Y-94056009D01*
X107761315Y-94056009D02*
X107761315Y-94579819D01*
X106666077Y-93579819D02*
X106094649Y-93579819D01*
X106380363Y-94579819D02*
X106380363Y-93579819D01*
X105761315Y-94579819D02*
X105761315Y-93913152D01*
X105761315Y-94103628D02*
X105713696Y-94008390D01*
X105713696Y-94008390D02*
X105666077Y-93960771D01*
X105666077Y-93960771D02*
X105570839Y-93913152D01*
X105570839Y-93913152D02*
X105475601Y-93913152D01*
X105142267Y-94579819D02*
X105142267Y-93913152D01*
X105142267Y-93579819D02*
X105189886Y-93627438D01*
X105189886Y-93627438D02*
X105142267Y-93675057D01*
X105142267Y-93675057D02*
X105094648Y-93627438D01*
X105094648Y-93627438D02*
X105142267Y-93579819D01*
X105142267Y-93579819D02*
X105142267Y-93675057D01*
X104237506Y-93913152D02*
X104237506Y-94722676D01*
X104237506Y-94722676D02*
X104285125Y-94817914D01*
X104285125Y-94817914D02*
X104332744Y-94865533D01*
X104332744Y-94865533D02*
X104427982Y-94913152D01*
X104427982Y-94913152D02*
X104570839Y-94913152D01*
X104570839Y-94913152D02*
X104666077Y-94865533D01*
X104237506Y-94532200D02*
X104332744Y-94579819D01*
X104332744Y-94579819D02*
X104523220Y-94579819D01*
X104523220Y-94579819D02*
X104618458Y-94532200D01*
X104618458Y-94532200D02*
X104666077Y-94484580D01*
X104666077Y-94484580D02*
X104713696Y-94389342D01*
X104713696Y-94389342D02*
X104713696Y-94103628D01*
X104713696Y-94103628D02*
X104666077Y-94008390D01*
X104666077Y-94008390D02*
X104618458Y-93960771D01*
X104618458Y-93960771D02*
X104523220Y-93913152D01*
X104523220Y-93913152D02*
X104332744Y-93913152D01*
X104332744Y-93913152D02*
X104237506Y-93960771D01*
X112111792Y-99614580D02*
X112159411Y-99662200D01*
X112159411Y-99662200D02*
X112302268Y-99709819D01*
X112302268Y-99709819D02*
X112397506Y-99709819D01*
X112397506Y-99709819D02*
X112540363Y-99662200D01*
X112540363Y-99662200D02*
X112635601Y-99566961D01*
X112635601Y-99566961D02*
X112683220Y-99471723D01*
X112683220Y-99471723D02*
X112730839Y-99281247D01*
X112730839Y-99281247D02*
X112730839Y-99138390D01*
X112730839Y-99138390D02*
X112683220Y-98947914D01*
X112683220Y-98947914D02*
X112635601Y-98852676D01*
X112635601Y-98852676D02*
X112540363Y-98757438D01*
X112540363Y-98757438D02*
X112397506Y-98709819D01*
X112397506Y-98709819D02*
X112302268Y-98709819D01*
X112302268Y-98709819D02*
X112159411Y-98757438D01*
X112159411Y-98757438D02*
X112111792Y-98805057D01*
X111254649Y-99709819D02*
X111254649Y-99186009D01*
X111254649Y-99186009D02*
X111302268Y-99090771D01*
X111302268Y-99090771D02*
X111397506Y-99043152D01*
X111397506Y-99043152D02*
X111587982Y-99043152D01*
X111587982Y-99043152D02*
X111683220Y-99090771D01*
X111254649Y-99662200D02*
X111349887Y-99709819D01*
X111349887Y-99709819D02*
X111587982Y-99709819D01*
X111587982Y-99709819D02*
X111683220Y-99662200D01*
X111683220Y-99662200D02*
X111730839Y-99566961D01*
X111730839Y-99566961D02*
X111730839Y-99471723D01*
X111730839Y-99471723D02*
X111683220Y-99376485D01*
X111683220Y-99376485D02*
X111587982Y-99328866D01*
X111587982Y-99328866D02*
X111349887Y-99328866D01*
X111349887Y-99328866D02*
X111254649Y-99281247D01*
X110778458Y-99709819D02*
X110778458Y-99043152D01*
X110778458Y-99138390D02*
X110730839Y-99090771D01*
X110730839Y-99090771D02*
X110635601Y-99043152D01*
X110635601Y-99043152D02*
X110492744Y-99043152D01*
X110492744Y-99043152D02*
X110397506Y-99090771D01*
X110397506Y-99090771D02*
X110349887Y-99186009D01*
X110349887Y-99186009D02*
X110349887Y-99709819D01*
X110349887Y-99186009D02*
X110302268Y-99090771D01*
X110302268Y-99090771D02*
X110207030Y-99043152D01*
X110207030Y-99043152D02*
X110064173Y-99043152D01*
X110064173Y-99043152D02*
X109968934Y-99090771D01*
X109968934Y-99090771D02*
X109921315Y-99186009D01*
X109921315Y-99186009D02*
X109921315Y-99709819D01*
X108730839Y-99662200D02*
X108587982Y-99709819D01*
X108587982Y-99709819D02*
X108349887Y-99709819D01*
X108349887Y-99709819D02*
X108254649Y-99662200D01*
X108254649Y-99662200D02*
X108207030Y-99614580D01*
X108207030Y-99614580D02*
X108159411Y-99519342D01*
X108159411Y-99519342D02*
X108159411Y-99424104D01*
X108159411Y-99424104D02*
X108207030Y-99328866D01*
X108207030Y-99328866D02*
X108254649Y-99281247D01*
X108254649Y-99281247D02*
X108349887Y-99233628D01*
X108349887Y-99233628D02*
X108540363Y-99186009D01*
X108540363Y-99186009D02*
X108635601Y-99138390D01*
X108635601Y-99138390D02*
X108683220Y-99090771D01*
X108683220Y-99090771D02*
X108730839Y-98995533D01*
X108730839Y-98995533D02*
X108730839Y-98900295D01*
X108730839Y-98900295D02*
X108683220Y-98805057D01*
X108683220Y-98805057D02*
X108635601Y-98757438D01*
X108635601Y-98757438D02*
X108540363Y-98709819D01*
X108540363Y-98709819D02*
X108302268Y-98709819D01*
X108302268Y-98709819D02*
X108159411Y-98757438D01*
X107873696Y-99043152D02*
X107492744Y-99043152D01*
X107730839Y-98709819D02*
X107730839Y-99566961D01*
X107730839Y-99566961D02*
X107683220Y-99662200D01*
X107683220Y-99662200D02*
X107587982Y-99709819D01*
X107587982Y-99709819D02*
X107492744Y-99709819D01*
X107159410Y-99709819D02*
X107159410Y-99043152D01*
X107159410Y-99233628D02*
X107111791Y-99138390D01*
X107111791Y-99138390D02*
X107064172Y-99090771D01*
X107064172Y-99090771D02*
X106968934Y-99043152D01*
X106968934Y-99043152D02*
X106873696Y-99043152D01*
X106397505Y-99709819D02*
X106492743Y-99662200D01*
X106492743Y-99662200D02*
X106540362Y-99614580D01*
X106540362Y-99614580D02*
X106587981Y-99519342D01*
X106587981Y-99519342D02*
X106587981Y-99233628D01*
X106587981Y-99233628D02*
X106540362Y-99138390D01*
X106540362Y-99138390D02*
X106492743Y-99090771D01*
X106492743Y-99090771D02*
X106397505Y-99043152D01*
X106397505Y-99043152D02*
X106254648Y-99043152D01*
X106254648Y-99043152D02*
X106159410Y-99090771D01*
X106159410Y-99090771D02*
X106111791Y-99138390D01*
X106111791Y-99138390D02*
X106064172Y-99233628D01*
X106064172Y-99233628D02*
X106064172Y-99519342D01*
X106064172Y-99519342D02*
X106111791Y-99614580D01*
X106111791Y-99614580D02*
X106159410Y-99662200D01*
X106159410Y-99662200D02*
X106254648Y-99709819D01*
X106254648Y-99709819D02*
X106397505Y-99709819D01*
X105635600Y-99709819D02*
X105635600Y-98709819D01*
X105635600Y-99090771D02*
X105540362Y-99043152D01*
X105540362Y-99043152D02*
X105349886Y-99043152D01*
X105349886Y-99043152D02*
X105254648Y-99090771D01*
X105254648Y-99090771D02*
X105207029Y-99138390D01*
X105207029Y-99138390D02*
X105159410Y-99233628D01*
X105159410Y-99233628D02*
X105159410Y-99519342D01*
X105159410Y-99519342D02*
X105207029Y-99614580D01*
X105207029Y-99614580D02*
X105254648Y-99662200D01*
X105254648Y-99662200D02*
X105349886Y-99709819D01*
X105349886Y-99709819D02*
X105540362Y-99709819D01*
X105540362Y-99709819D02*
X105635600Y-99662200D01*
X104349886Y-99662200D02*
X104445124Y-99709819D01*
X104445124Y-99709819D02*
X104635600Y-99709819D01*
X104635600Y-99709819D02*
X104730838Y-99662200D01*
X104730838Y-99662200D02*
X104778457Y-99566961D01*
X104778457Y-99566961D02*
X104778457Y-99186009D01*
X104778457Y-99186009D02*
X104730838Y-99090771D01*
X104730838Y-99090771D02*
X104635600Y-99043152D01*
X104635600Y-99043152D02*
X104445124Y-99043152D01*
X104445124Y-99043152D02*
X104349886Y-99090771D01*
X104349886Y-99090771D02*
X104302267Y-99186009D01*
X104302267Y-99186009D02*
X104302267Y-99281247D01*
X104302267Y-99281247D02*
X104778457Y-99376485D01*
X48441904Y-124854819D02*
X47870476Y-124854819D01*
X48156190Y-125854819D02*
X48156190Y-124854819D01*
X47537142Y-125854819D02*
X47537142Y-124854819D01*
X47537142Y-124854819D02*
X47156190Y-124854819D01*
X47156190Y-124854819D02*
X47060952Y-124902438D01*
X47060952Y-124902438D02*
X47013333Y-124950057D01*
X47013333Y-124950057D02*
X46965714Y-125045295D01*
X46965714Y-125045295D02*
X46965714Y-125188152D01*
X46965714Y-125188152D02*
X47013333Y-125283390D01*
X47013333Y-125283390D02*
X47060952Y-125331009D01*
X47060952Y-125331009D02*
X47156190Y-125378628D01*
X47156190Y-125378628D02*
X47537142Y-125378628D01*
X46108571Y-125188152D02*
X46108571Y-125854819D01*
X46346666Y-124807200D02*
X46584761Y-125521485D01*
X46584761Y-125521485D02*
X45965714Y-125521485D01*
X55711904Y-146104819D02*
X55140476Y-146104819D01*
X55426190Y-147104819D02*
X55426190Y-146104819D01*
X54807142Y-147104819D02*
X54807142Y-146104819D01*
X54807142Y-146104819D02*
X54426190Y-146104819D01*
X54426190Y-146104819D02*
X54330952Y-146152438D01*
X54330952Y-146152438D02*
X54283333Y-146200057D01*
X54283333Y-146200057D02*
X54235714Y-146295295D01*
X54235714Y-146295295D02*
X54235714Y-146438152D01*
X54235714Y-146438152D02*
X54283333Y-146533390D01*
X54283333Y-146533390D02*
X54330952Y-146581009D01*
X54330952Y-146581009D02*
X54426190Y-146628628D01*
X54426190Y-146628628D02*
X54807142Y-146628628D01*
X53330952Y-146104819D02*
X53807142Y-146104819D01*
X53807142Y-146104819D02*
X53854761Y-146581009D01*
X53854761Y-146581009D02*
X53807142Y-146533390D01*
X53807142Y-146533390D02*
X53711904Y-146485771D01*
X53711904Y-146485771D02*
X53473809Y-146485771D01*
X53473809Y-146485771D02*
X53378571Y-146533390D01*
X53378571Y-146533390D02*
X53330952Y-146581009D01*
X53330952Y-146581009D02*
X53283333Y-146676247D01*
X53283333Y-146676247D02*
X53283333Y-146914342D01*
X53283333Y-146914342D02*
X53330952Y-147009580D01*
X53330952Y-147009580D02*
X53378571Y-147057200D01*
X53378571Y-147057200D02*
X53473809Y-147104819D01*
X53473809Y-147104819D02*
X53711904Y-147104819D01*
X53711904Y-147104819D02*
X53807142Y-147057200D01*
X53807142Y-147057200D02*
X53854761Y-147009580D01*
X99591904Y-160574819D02*
X99020476Y-160574819D01*
X99306190Y-161574819D02*
X99306190Y-160574819D01*
X98687142Y-161574819D02*
X98687142Y-160574819D01*
X98687142Y-160574819D02*
X98306190Y-160574819D01*
X98306190Y-160574819D02*
X98210952Y-160622438D01*
X98210952Y-160622438D02*
X98163333Y-160670057D01*
X98163333Y-160670057D02*
X98115714Y-160765295D01*
X98115714Y-160765295D02*
X98115714Y-160908152D01*
X98115714Y-160908152D02*
X98163333Y-161003390D01*
X98163333Y-161003390D02*
X98210952Y-161051009D01*
X98210952Y-161051009D02*
X98306190Y-161098628D01*
X98306190Y-161098628D02*
X98687142Y-161098628D01*
X97639523Y-161574819D02*
X97449047Y-161574819D01*
X97449047Y-161574819D02*
X97353809Y-161527200D01*
X97353809Y-161527200D02*
X97306190Y-161479580D01*
X97306190Y-161479580D02*
X97210952Y-161336723D01*
X97210952Y-161336723D02*
X97163333Y-161146247D01*
X97163333Y-161146247D02*
X97163333Y-160765295D01*
X97163333Y-160765295D02*
X97210952Y-160670057D01*
X97210952Y-160670057D02*
X97258571Y-160622438D01*
X97258571Y-160622438D02*
X97353809Y-160574819D01*
X97353809Y-160574819D02*
X97544285Y-160574819D01*
X97544285Y-160574819D02*
X97639523Y-160622438D01*
X97639523Y-160622438D02*
X97687142Y-160670057D01*
X97687142Y-160670057D02*
X97734761Y-160765295D01*
X97734761Y-160765295D02*
X97734761Y-161003390D01*
X97734761Y-161003390D02*
X97687142Y-161098628D01*
X97687142Y-161098628D02*
X97639523Y-161146247D01*
X97639523Y-161146247D02*
X97544285Y-161193866D01*
X97544285Y-161193866D02*
X97353809Y-161193866D01*
X97353809Y-161193866D02*
X97258571Y-161146247D01*
X97258571Y-161146247D02*
X97210952Y-161098628D01*
X97210952Y-161098628D02*
X97163333Y-161003390D01*
X106091904Y-112704819D02*
X105520476Y-112704819D01*
X105806190Y-113704819D02*
X105806190Y-112704819D01*
X105187142Y-113704819D02*
X105187142Y-112704819D01*
X105187142Y-112704819D02*
X104806190Y-112704819D01*
X104806190Y-112704819D02*
X104710952Y-112752438D01*
X104710952Y-112752438D02*
X104663333Y-112800057D01*
X104663333Y-112800057D02*
X104615714Y-112895295D01*
X104615714Y-112895295D02*
X104615714Y-113038152D01*
X104615714Y-113038152D02*
X104663333Y-113133390D01*
X104663333Y-113133390D02*
X104710952Y-113181009D01*
X104710952Y-113181009D02*
X104806190Y-113228628D01*
X104806190Y-113228628D02*
X105187142Y-113228628D01*
X103663333Y-113704819D02*
X104234761Y-113704819D01*
X103949047Y-113704819D02*
X103949047Y-112704819D01*
X103949047Y-112704819D02*
X104044285Y-112847676D01*
X104044285Y-112847676D02*
X104139523Y-112942914D01*
X104139523Y-112942914D02*
X104234761Y-112990533D01*
X81440180Y-100361792D02*
X81916371Y-100695125D01*
X81440180Y-100933220D02*
X82440180Y-100933220D01*
X82440180Y-100933220D02*
X82440180Y-100552268D01*
X82440180Y-100552268D02*
X82392561Y-100457030D01*
X82392561Y-100457030D02*
X82344942Y-100409411D01*
X82344942Y-100409411D02*
X82249704Y-100361792D01*
X82249704Y-100361792D02*
X82106847Y-100361792D01*
X82106847Y-100361792D02*
X82011609Y-100409411D01*
X82011609Y-100409411D02*
X81963990Y-100457030D01*
X81963990Y-100457030D02*
X81916371Y-100552268D01*
X81916371Y-100552268D02*
X81916371Y-100933220D01*
X81440180Y-99933220D02*
X82440180Y-99933220D01*
X82440180Y-99933220D02*
X82440180Y-99695125D01*
X82440180Y-99695125D02*
X82392561Y-99552268D01*
X82392561Y-99552268D02*
X82297323Y-99457030D01*
X82297323Y-99457030D02*
X82202085Y-99409411D01*
X82202085Y-99409411D02*
X82011609Y-99361792D01*
X82011609Y-99361792D02*
X81868752Y-99361792D01*
X81868752Y-99361792D02*
X81678276Y-99409411D01*
X81678276Y-99409411D02*
X81583038Y-99457030D01*
X81583038Y-99457030D02*
X81487800Y-99552268D01*
X81487800Y-99552268D02*
X81440180Y-99695125D01*
X81440180Y-99695125D02*
X81440180Y-99933220D01*
X81916371Y-98742744D02*
X81440180Y-98742744D01*
X82440180Y-99076077D02*
X81916371Y-98742744D01*
X81916371Y-98742744D02*
X82440180Y-98409411D01*
X81440180Y-96837982D02*
X81440180Y-97314172D01*
X81440180Y-97314172D02*
X82440180Y-97314172D01*
X81963990Y-96504648D02*
X81963990Y-96171315D01*
X81440180Y-96028458D02*
X81440180Y-96504648D01*
X81440180Y-96504648D02*
X82440180Y-96504648D01*
X82440180Y-96504648D02*
X82440180Y-96028458D01*
X81440180Y-95599886D02*
X82440180Y-95599886D01*
X82440180Y-95599886D02*
X82440180Y-95361791D01*
X82440180Y-95361791D02*
X82392561Y-95218934D01*
X82392561Y-95218934D02*
X82297323Y-95123696D01*
X82297323Y-95123696D02*
X82202085Y-95076077D01*
X82202085Y-95076077D02*
X82011609Y-95028458D01*
X82011609Y-95028458D02*
X81868752Y-95028458D01*
X81868752Y-95028458D02*
X81678276Y-95076077D01*
X81678276Y-95076077D02*
X81583038Y-95123696D01*
X81583038Y-95123696D02*
X81487800Y-95218934D01*
X81487800Y-95218934D02*
X81440180Y-95361791D01*
X81440180Y-95361791D02*
X81440180Y-95599886D01*
X81821133Y-94599886D02*
X81821133Y-93837982D01*
X83970180Y-100361792D02*
X84446371Y-100695125D01*
X83970180Y-100933220D02*
X84970180Y-100933220D01*
X84970180Y-100933220D02*
X84970180Y-100552268D01*
X84970180Y-100552268D02*
X84922561Y-100457030D01*
X84922561Y-100457030D02*
X84874942Y-100409411D01*
X84874942Y-100409411D02*
X84779704Y-100361792D01*
X84779704Y-100361792D02*
X84636847Y-100361792D01*
X84636847Y-100361792D02*
X84541609Y-100409411D01*
X84541609Y-100409411D02*
X84493990Y-100457030D01*
X84493990Y-100457030D02*
X84446371Y-100552268D01*
X84446371Y-100552268D02*
X84446371Y-100933220D01*
X83970180Y-99933220D02*
X84970180Y-99933220D01*
X84970180Y-99933220D02*
X84970180Y-99695125D01*
X84970180Y-99695125D02*
X84922561Y-99552268D01*
X84922561Y-99552268D02*
X84827323Y-99457030D01*
X84827323Y-99457030D02*
X84732085Y-99409411D01*
X84732085Y-99409411D02*
X84541609Y-99361792D01*
X84541609Y-99361792D02*
X84398752Y-99361792D01*
X84398752Y-99361792D02*
X84208276Y-99409411D01*
X84208276Y-99409411D02*
X84113038Y-99457030D01*
X84113038Y-99457030D02*
X84017800Y-99552268D01*
X84017800Y-99552268D02*
X83970180Y-99695125D01*
X83970180Y-99695125D02*
X83970180Y-99933220D01*
X84446371Y-98742744D02*
X83970180Y-98742744D01*
X84970180Y-99076077D02*
X84446371Y-98742744D01*
X84446371Y-98742744D02*
X84970180Y-98409411D01*
X83970180Y-96837982D02*
X83970180Y-97314172D01*
X83970180Y-97314172D02*
X84970180Y-97314172D01*
X84493990Y-96504648D02*
X84493990Y-96171315D01*
X83970180Y-96028458D02*
X83970180Y-96504648D01*
X83970180Y-96504648D02*
X84970180Y-96504648D01*
X84970180Y-96504648D02*
X84970180Y-96028458D01*
X83970180Y-95599886D02*
X84970180Y-95599886D01*
X84970180Y-95599886D02*
X84970180Y-95361791D01*
X84970180Y-95361791D02*
X84922561Y-95218934D01*
X84922561Y-95218934D02*
X84827323Y-95123696D01*
X84827323Y-95123696D02*
X84732085Y-95076077D01*
X84732085Y-95076077D02*
X84541609Y-95028458D01*
X84541609Y-95028458D02*
X84398752Y-95028458D01*
X84398752Y-95028458D02*
X84208276Y-95076077D01*
X84208276Y-95076077D02*
X84113038Y-95123696D01*
X84113038Y-95123696D02*
X84017800Y-95218934D01*
X84017800Y-95218934D02*
X83970180Y-95361791D01*
X83970180Y-95361791D02*
X83970180Y-95599886D01*
X84351133Y-94599886D02*
X84351133Y-93837982D01*
X83970180Y-94218934D02*
X84732085Y-94218934D01*
X86690180Y-102003220D02*
X87690180Y-102003220D01*
X87690180Y-102003220D02*
X87690180Y-101622268D01*
X87690180Y-101622268D02*
X87642561Y-101527030D01*
X87642561Y-101527030D02*
X87594942Y-101479411D01*
X87594942Y-101479411D02*
X87499704Y-101431792D01*
X87499704Y-101431792D02*
X87356847Y-101431792D01*
X87356847Y-101431792D02*
X87261609Y-101479411D01*
X87261609Y-101479411D02*
X87213990Y-101527030D01*
X87213990Y-101527030D02*
X87166371Y-101622268D01*
X87166371Y-101622268D02*
X87166371Y-102003220D01*
X87690180Y-101098458D02*
X86690180Y-100860363D01*
X86690180Y-100860363D02*
X87404466Y-100669887D01*
X87404466Y-100669887D02*
X86690180Y-100479411D01*
X86690180Y-100479411D02*
X87690180Y-100241316D01*
X86690180Y-99288935D02*
X87166371Y-99622268D01*
X86690180Y-99860363D02*
X87690180Y-99860363D01*
X87690180Y-99860363D02*
X87690180Y-99479411D01*
X87690180Y-99479411D02*
X87642561Y-99384173D01*
X87642561Y-99384173D02*
X87594942Y-99336554D01*
X87594942Y-99336554D02*
X87499704Y-99288935D01*
X87499704Y-99288935D02*
X87356847Y-99288935D01*
X87356847Y-99288935D02*
X87261609Y-99336554D01*
X87261609Y-99336554D02*
X87213990Y-99384173D01*
X87213990Y-99384173D02*
X87166371Y-99479411D01*
X87166371Y-99479411D02*
X87166371Y-99860363D01*
X86737800Y-98146077D02*
X86690180Y-98003220D01*
X86690180Y-98003220D02*
X86690180Y-97765125D01*
X86690180Y-97765125D02*
X86737800Y-97669887D01*
X86737800Y-97669887D02*
X86785419Y-97622268D01*
X86785419Y-97622268D02*
X86880657Y-97574649D01*
X86880657Y-97574649D02*
X86975895Y-97574649D01*
X86975895Y-97574649D02*
X87071133Y-97622268D01*
X87071133Y-97622268D02*
X87118752Y-97669887D01*
X87118752Y-97669887D02*
X87166371Y-97765125D01*
X87166371Y-97765125D02*
X87213990Y-97955601D01*
X87213990Y-97955601D02*
X87261609Y-98050839D01*
X87261609Y-98050839D02*
X87309228Y-98098458D01*
X87309228Y-98098458D02*
X87404466Y-98146077D01*
X87404466Y-98146077D02*
X87499704Y-98146077D01*
X87499704Y-98146077D02*
X87594942Y-98098458D01*
X87594942Y-98098458D02*
X87642561Y-98050839D01*
X87642561Y-98050839D02*
X87690180Y-97955601D01*
X87690180Y-97955601D02*
X87690180Y-97717506D01*
X87690180Y-97717506D02*
X87642561Y-97574649D01*
X87356847Y-97241315D02*
X86690180Y-97050839D01*
X86690180Y-97050839D02*
X87166371Y-96860363D01*
X87166371Y-96860363D02*
X86690180Y-96669887D01*
X86690180Y-96669887D02*
X87356847Y-96479411D01*
X86690180Y-96098458D02*
X87356847Y-96098458D01*
X87690180Y-96098458D02*
X87642561Y-96146077D01*
X87642561Y-96146077D02*
X87594942Y-96098458D01*
X87594942Y-96098458D02*
X87642561Y-96050839D01*
X87642561Y-96050839D02*
X87690180Y-96098458D01*
X87690180Y-96098458D02*
X87594942Y-96098458D01*
X87356847Y-95765125D02*
X87356847Y-95384173D01*
X87690180Y-95622268D02*
X86833038Y-95622268D01*
X86833038Y-95622268D02*
X86737800Y-95574649D01*
X86737800Y-95574649D02*
X86690180Y-95479411D01*
X86690180Y-95479411D02*
X86690180Y-95384173D01*
X86737800Y-94622268D02*
X86690180Y-94717506D01*
X86690180Y-94717506D02*
X86690180Y-94907982D01*
X86690180Y-94907982D02*
X86737800Y-95003220D01*
X86737800Y-95003220D02*
X86785419Y-95050839D01*
X86785419Y-95050839D02*
X86880657Y-95098458D01*
X86880657Y-95098458D02*
X87166371Y-95098458D01*
X87166371Y-95098458D02*
X87261609Y-95050839D01*
X87261609Y-95050839D02*
X87309228Y-95003220D01*
X87309228Y-95003220D02*
X87356847Y-94907982D01*
X87356847Y-94907982D02*
X87356847Y-94717506D01*
X87356847Y-94717506D02*
X87309228Y-94622268D01*
X86690180Y-94193696D02*
X87690180Y-94193696D01*
X86690180Y-93765125D02*
X87213990Y-93765125D01*
X87213990Y-93765125D02*
X87309228Y-93812744D01*
X87309228Y-93812744D02*
X87356847Y-93907982D01*
X87356847Y-93907982D02*
X87356847Y-94050839D01*
X87356847Y-94050839D02*
X87309228Y-94146077D01*
X87309228Y-94146077D02*
X87261609Y-94193696D01*
X89290180Y-101933220D02*
X90290180Y-101933220D01*
X90290180Y-101933220D02*
X90290180Y-101552268D01*
X90290180Y-101552268D02*
X90242561Y-101457030D01*
X90242561Y-101457030D02*
X90194942Y-101409411D01*
X90194942Y-101409411D02*
X90099704Y-101361792D01*
X90099704Y-101361792D02*
X89956847Y-101361792D01*
X89956847Y-101361792D02*
X89861609Y-101409411D01*
X89861609Y-101409411D02*
X89813990Y-101457030D01*
X89813990Y-101457030D02*
X89766371Y-101552268D01*
X89766371Y-101552268D02*
X89766371Y-101933220D01*
X90290180Y-101028458D02*
X89290180Y-100790363D01*
X89290180Y-100790363D02*
X90004466Y-100599887D01*
X90004466Y-100599887D02*
X89290180Y-100409411D01*
X89290180Y-100409411D02*
X90290180Y-100171316D01*
X89290180Y-99218935D02*
X89766371Y-99552268D01*
X89290180Y-99790363D02*
X90290180Y-99790363D01*
X90290180Y-99790363D02*
X90290180Y-99409411D01*
X90290180Y-99409411D02*
X90242561Y-99314173D01*
X90242561Y-99314173D02*
X90194942Y-99266554D01*
X90194942Y-99266554D02*
X90099704Y-99218935D01*
X90099704Y-99218935D02*
X89956847Y-99218935D01*
X89956847Y-99218935D02*
X89861609Y-99266554D01*
X89861609Y-99266554D02*
X89813990Y-99314173D01*
X89813990Y-99314173D02*
X89766371Y-99409411D01*
X89766371Y-99409411D02*
X89766371Y-99790363D01*
X89337800Y-98076077D02*
X89290180Y-97933220D01*
X89290180Y-97933220D02*
X89290180Y-97695125D01*
X89290180Y-97695125D02*
X89337800Y-97599887D01*
X89337800Y-97599887D02*
X89385419Y-97552268D01*
X89385419Y-97552268D02*
X89480657Y-97504649D01*
X89480657Y-97504649D02*
X89575895Y-97504649D01*
X89575895Y-97504649D02*
X89671133Y-97552268D01*
X89671133Y-97552268D02*
X89718752Y-97599887D01*
X89718752Y-97599887D02*
X89766371Y-97695125D01*
X89766371Y-97695125D02*
X89813990Y-97885601D01*
X89813990Y-97885601D02*
X89861609Y-97980839D01*
X89861609Y-97980839D02*
X89909228Y-98028458D01*
X89909228Y-98028458D02*
X90004466Y-98076077D01*
X90004466Y-98076077D02*
X90099704Y-98076077D01*
X90099704Y-98076077D02*
X90194942Y-98028458D01*
X90194942Y-98028458D02*
X90242561Y-97980839D01*
X90242561Y-97980839D02*
X90290180Y-97885601D01*
X90290180Y-97885601D02*
X90290180Y-97647506D01*
X90290180Y-97647506D02*
X90242561Y-97504649D01*
X89956847Y-97171315D02*
X89290180Y-96980839D01*
X89290180Y-96980839D02*
X89766371Y-96790363D01*
X89766371Y-96790363D02*
X89290180Y-96599887D01*
X89290180Y-96599887D02*
X89956847Y-96409411D01*
X89290180Y-96028458D02*
X89956847Y-96028458D01*
X90290180Y-96028458D02*
X90242561Y-96076077D01*
X90242561Y-96076077D02*
X90194942Y-96028458D01*
X90194942Y-96028458D02*
X90242561Y-95980839D01*
X90242561Y-95980839D02*
X90290180Y-96028458D01*
X90290180Y-96028458D02*
X90194942Y-96028458D01*
X89956847Y-95695125D02*
X89956847Y-95314173D01*
X90290180Y-95552268D02*
X89433038Y-95552268D01*
X89433038Y-95552268D02*
X89337800Y-95504649D01*
X89337800Y-95504649D02*
X89290180Y-95409411D01*
X89290180Y-95409411D02*
X89290180Y-95314173D01*
X89337800Y-94552268D02*
X89290180Y-94647506D01*
X89290180Y-94647506D02*
X89290180Y-94837982D01*
X89290180Y-94837982D02*
X89337800Y-94933220D01*
X89337800Y-94933220D02*
X89385419Y-94980839D01*
X89385419Y-94980839D02*
X89480657Y-95028458D01*
X89480657Y-95028458D02*
X89766371Y-95028458D01*
X89766371Y-95028458D02*
X89861609Y-94980839D01*
X89861609Y-94980839D02*
X89909228Y-94933220D01*
X89909228Y-94933220D02*
X89956847Y-94837982D01*
X89956847Y-94837982D02*
X89956847Y-94647506D01*
X89956847Y-94647506D02*
X89909228Y-94552268D01*
X89290180Y-94123696D02*
X90290180Y-94123696D01*
X89290180Y-93695125D02*
X89813990Y-93695125D01*
X89813990Y-93695125D02*
X89909228Y-93742744D01*
X89909228Y-93742744D02*
X89956847Y-93837982D01*
X89956847Y-93837982D02*
X89956847Y-93980839D01*
X89956847Y-93980839D02*
X89909228Y-94076077D01*
X89909228Y-94076077D02*
X89861609Y-94123696D01*
X91800180Y-100983220D02*
X92800180Y-100983220D01*
X92800180Y-100983220D02*
X92800180Y-100602268D01*
X92800180Y-100602268D02*
X92752561Y-100507030D01*
X92752561Y-100507030D02*
X92704942Y-100459411D01*
X92704942Y-100459411D02*
X92609704Y-100411792D01*
X92609704Y-100411792D02*
X92466847Y-100411792D01*
X92466847Y-100411792D02*
X92371609Y-100459411D01*
X92371609Y-100459411D02*
X92323990Y-100507030D01*
X92323990Y-100507030D02*
X92276371Y-100602268D01*
X92276371Y-100602268D02*
X92276371Y-100983220D01*
X92800180Y-100078458D02*
X91800180Y-99840363D01*
X91800180Y-99840363D02*
X92514466Y-99649887D01*
X92514466Y-99649887D02*
X91800180Y-99459411D01*
X91800180Y-99459411D02*
X92800180Y-99221316D01*
X91800180Y-98268935D02*
X92276371Y-98602268D01*
X91800180Y-98840363D02*
X92800180Y-98840363D01*
X92800180Y-98840363D02*
X92800180Y-98459411D01*
X92800180Y-98459411D02*
X92752561Y-98364173D01*
X92752561Y-98364173D02*
X92704942Y-98316554D01*
X92704942Y-98316554D02*
X92609704Y-98268935D01*
X92609704Y-98268935D02*
X92466847Y-98268935D01*
X92466847Y-98268935D02*
X92371609Y-98316554D01*
X92371609Y-98316554D02*
X92323990Y-98364173D01*
X92323990Y-98364173D02*
X92276371Y-98459411D01*
X92276371Y-98459411D02*
X92276371Y-98840363D01*
X91800180Y-96602268D02*
X91800180Y-97078458D01*
X91800180Y-97078458D02*
X92800180Y-97078458D01*
X92323990Y-96268934D02*
X92323990Y-95935601D01*
X91800180Y-95792744D02*
X91800180Y-96268934D01*
X91800180Y-96268934D02*
X92800180Y-96268934D01*
X92800180Y-96268934D02*
X92800180Y-95792744D01*
X91800180Y-95364172D02*
X92800180Y-95364172D01*
X92800180Y-95364172D02*
X92800180Y-95126077D01*
X92800180Y-95126077D02*
X92752561Y-94983220D01*
X92752561Y-94983220D02*
X92657323Y-94887982D01*
X92657323Y-94887982D02*
X92562085Y-94840363D01*
X92562085Y-94840363D02*
X92371609Y-94792744D01*
X92371609Y-94792744D02*
X92228752Y-94792744D01*
X92228752Y-94792744D02*
X92038276Y-94840363D01*
X92038276Y-94840363D02*
X91943038Y-94887982D01*
X91943038Y-94887982D02*
X91847800Y-94983220D01*
X91847800Y-94983220D02*
X91800180Y-95126077D01*
X91800180Y-95126077D02*
X91800180Y-95364172D01*
X92181133Y-94364172D02*
X92181133Y-93602268D01*
X91800180Y-93983220D02*
X92562085Y-93983220D01*
X93600180Y-111202744D02*
X93600180Y-110583697D01*
X93600180Y-110583697D02*
X93219228Y-110917030D01*
X93219228Y-110917030D02*
X93219228Y-110774173D01*
X93219228Y-110774173D02*
X93171609Y-110678935D01*
X93171609Y-110678935D02*
X93123990Y-110631316D01*
X93123990Y-110631316D02*
X93028752Y-110583697D01*
X93028752Y-110583697D02*
X92790657Y-110583697D01*
X92790657Y-110583697D02*
X92695419Y-110631316D01*
X92695419Y-110631316D02*
X92647800Y-110678935D01*
X92647800Y-110678935D02*
X92600180Y-110774173D01*
X92600180Y-110774173D02*
X92600180Y-111059887D01*
X92600180Y-111059887D02*
X92647800Y-111155125D01*
X92647800Y-111155125D02*
X92695419Y-111202744D01*
X93600180Y-110297982D02*
X92600180Y-109964649D01*
X92600180Y-109964649D02*
X93600180Y-109631316D01*
X93600180Y-109393220D02*
X93600180Y-108774173D01*
X93600180Y-108774173D02*
X93219228Y-109107506D01*
X93219228Y-109107506D02*
X93219228Y-108964649D01*
X93219228Y-108964649D02*
X93171609Y-108869411D01*
X93171609Y-108869411D02*
X93123990Y-108821792D01*
X93123990Y-108821792D02*
X93028752Y-108774173D01*
X93028752Y-108774173D02*
X92790657Y-108774173D01*
X92790657Y-108774173D02*
X92695419Y-108821792D01*
X92695419Y-108821792D02*
X92647800Y-108869411D01*
X92647800Y-108869411D02*
X92600180Y-108964649D01*
X92600180Y-108964649D02*
X92600180Y-109250363D01*
X92600180Y-109250363D02*
X92647800Y-109345601D01*
X92647800Y-109345601D02*
X92695419Y-109393220D01*
X94030180Y-100723220D02*
X95030180Y-100723220D01*
X95030180Y-100723220D02*
X95030180Y-100342268D01*
X95030180Y-100342268D02*
X94982561Y-100247030D01*
X94982561Y-100247030D02*
X94934942Y-100199411D01*
X94934942Y-100199411D02*
X94839704Y-100151792D01*
X94839704Y-100151792D02*
X94696847Y-100151792D01*
X94696847Y-100151792D02*
X94601609Y-100199411D01*
X94601609Y-100199411D02*
X94553990Y-100247030D01*
X94553990Y-100247030D02*
X94506371Y-100342268D01*
X94506371Y-100342268D02*
X94506371Y-100723220D01*
X95030180Y-99818458D02*
X94030180Y-99580363D01*
X94030180Y-99580363D02*
X94744466Y-99389887D01*
X94744466Y-99389887D02*
X94030180Y-99199411D01*
X94030180Y-99199411D02*
X95030180Y-98961316D01*
X94030180Y-98008935D02*
X94506371Y-98342268D01*
X94030180Y-98580363D02*
X95030180Y-98580363D01*
X95030180Y-98580363D02*
X95030180Y-98199411D01*
X95030180Y-98199411D02*
X94982561Y-98104173D01*
X94982561Y-98104173D02*
X94934942Y-98056554D01*
X94934942Y-98056554D02*
X94839704Y-98008935D01*
X94839704Y-98008935D02*
X94696847Y-98008935D01*
X94696847Y-98008935D02*
X94601609Y-98056554D01*
X94601609Y-98056554D02*
X94553990Y-98104173D01*
X94553990Y-98104173D02*
X94506371Y-98199411D01*
X94506371Y-98199411D02*
X94506371Y-98580363D01*
X94030180Y-96342268D02*
X94030180Y-96818458D01*
X94030180Y-96818458D02*
X95030180Y-96818458D01*
X94553990Y-96008934D02*
X94553990Y-95675601D01*
X94030180Y-95532744D02*
X94030180Y-96008934D01*
X94030180Y-96008934D02*
X95030180Y-96008934D01*
X95030180Y-96008934D02*
X95030180Y-95532744D01*
X94030180Y-95104172D02*
X95030180Y-95104172D01*
X95030180Y-95104172D02*
X95030180Y-94866077D01*
X95030180Y-94866077D02*
X94982561Y-94723220D01*
X94982561Y-94723220D02*
X94887323Y-94627982D01*
X94887323Y-94627982D02*
X94792085Y-94580363D01*
X94792085Y-94580363D02*
X94601609Y-94532744D01*
X94601609Y-94532744D02*
X94458752Y-94532744D01*
X94458752Y-94532744D02*
X94268276Y-94580363D01*
X94268276Y-94580363D02*
X94173038Y-94627982D01*
X94173038Y-94627982D02*
X94077800Y-94723220D01*
X94077800Y-94723220D02*
X94030180Y-94866077D01*
X94030180Y-94866077D02*
X94030180Y-95104172D01*
X94411133Y-94104172D02*
X94411133Y-93342268D01*
X96192561Y-110869411D02*
X96240180Y-110964649D01*
X96240180Y-110964649D02*
X96240180Y-111107506D01*
X96240180Y-111107506D02*
X96192561Y-111250363D01*
X96192561Y-111250363D02*
X96097323Y-111345601D01*
X96097323Y-111345601D02*
X96002085Y-111393220D01*
X96002085Y-111393220D02*
X95811609Y-111440839D01*
X95811609Y-111440839D02*
X95668752Y-111440839D01*
X95668752Y-111440839D02*
X95478276Y-111393220D01*
X95478276Y-111393220D02*
X95383038Y-111345601D01*
X95383038Y-111345601D02*
X95287800Y-111250363D01*
X95287800Y-111250363D02*
X95240180Y-111107506D01*
X95240180Y-111107506D02*
X95240180Y-111012268D01*
X95240180Y-111012268D02*
X95287800Y-110869411D01*
X95287800Y-110869411D02*
X95335419Y-110821792D01*
X95335419Y-110821792D02*
X95668752Y-110821792D01*
X95668752Y-110821792D02*
X95668752Y-111012268D01*
X95240180Y-110393220D02*
X96240180Y-110393220D01*
X96240180Y-110393220D02*
X95240180Y-109821792D01*
X95240180Y-109821792D02*
X96240180Y-109821792D01*
X95240180Y-109345601D02*
X96240180Y-109345601D01*
X96240180Y-109345601D02*
X96240180Y-109107506D01*
X96240180Y-109107506D02*
X96192561Y-108964649D01*
X96192561Y-108964649D02*
X96097323Y-108869411D01*
X96097323Y-108869411D02*
X96002085Y-108821792D01*
X96002085Y-108821792D02*
X95811609Y-108774173D01*
X95811609Y-108774173D02*
X95668752Y-108774173D01*
X95668752Y-108774173D02*
X95478276Y-108821792D01*
X95478276Y-108821792D02*
X95383038Y-108869411D01*
X95383038Y-108869411D02*
X95287800Y-108964649D01*
X95287800Y-108964649D02*
X95240180Y-109107506D01*
X95240180Y-109107506D02*
X95240180Y-109345601D01*
X98832561Y-110869411D02*
X98880180Y-110964649D01*
X98880180Y-110964649D02*
X98880180Y-111107506D01*
X98880180Y-111107506D02*
X98832561Y-111250363D01*
X98832561Y-111250363D02*
X98737323Y-111345601D01*
X98737323Y-111345601D02*
X98642085Y-111393220D01*
X98642085Y-111393220D02*
X98451609Y-111440839D01*
X98451609Y-111440839D02*
X98308752Y-111440839D01*
X98308752Y-111440839D02*
X98118276Y-111393220D01*
X98118276Y-111393220D02*
X98023038Y-111345601D01*
X98023038Y-111345601D02*
X97927800Y-111250363D01*
X97927800Y-111250363D02*
X97880180Y-111107506D01*
X97880180Y-111107506D02*
X97880180Y-111012268D01*
X97880180Y-111012268D02*
X97927800Y-110869411D01*
X97927800Y-110869411D02*
X97975419Y-110821792D01*
X97975419Y-110821792D02*
X98308752Y-110821792D01*
X98308752Y-110821792D02*
X98308752Y-111012268D01*
X97880180Y-110393220D02*
X98880180Y-110393220D01*
X98880180Y-110393220D02*
X97880180Y-109821792D01*
X97880180Y-109821792D02*
X98880180Y-109821792D01*
X97880180Y-109345601D02*
X98880180Y-109345601D01*
X98880180Y-109345601D02*
X98880180Y-109107506D01*
X98880180Y-109107506D02*
X98832561Y-108964649D01*
X98832561Y-108964649D02*
X98737323Y-108869411D01*
X98737323Y-108869411D02*
X98642085Y-108821792D01*
X98642085Y-108821792D02*
X98451609Y-108774173D01*
X98451609Y-108774173D02*
X98308752Y-108774173D01*
X98308752Y-108774173D02*
X98118276Y-108821792D01*
X98118276Y-108821792D02*
X98023038Y-108869411D01*
X98023038Y-108869411D02*
X97927800Y-108964649D01*
X97927800Y-108964649D02*
X97880180Y-109107506D01*
X97880180Y-109107506D02*
X97880180Y-109345601D01*
D12*
X44333438Y-101192398D02*
X44333438Y-99692398D01*
X44333438Y-99692398D02*
X43762009Y-99692398D01*
X43762009Y-99692398D02*
X43619152Y-99763827D01*
X43619152Y-99763827D02*
X43547723Y-99835255D01*
X43547723Y-99835255D02*
X43476295Y-99978112D01*
X43476295Y-99978112D02*
X43476295Y-100192398D01*
X43476295Y-100192398D02*
X43547723Y-100335255D01*
X43547723Y-100335255D02*
X43619152Y-100406684D01*
X43619152Y-100406684D02*
X43762009Y-100478112D01*
X43762009Y-100478112D02*
X44333438Y-100478112D01*
X42833438Y-101192398D02*
X42833438Y-100192398D01*
X42833438Y-100478112D02*
X42762009Y-100335255D01*
X42762009Y-100335255D02*
X42690581Y-100263827D01*
X42690581Y-100263827D02*
X42547723Y-100192398D01*
X42547723Y-100192398D02*
X42404866Y-100192398D01*
X41690581Y-101192398D02*
X41833438Y-101120970D01*
X41833438Y-101120970D02*
X41904867Y-101049541D01*
X41904867Y-101049541D02*
X41976295Y-100906684D01*
X41976295Y-100906684D02*
X41976295Y-100478112D01*
X41976295Y-100478112D02*
X41904867Y-100335255D01*
X41904867Y-100335255D02*
X41833438Y-100263827D01*
X41833438Y-100263827D02*
X41690581Y-100192398D01*
X41690581Y-100192398D02*
X41476295Y-100192398D01*
X41476295Y-100192398D02*
X41333438Y-100263827D01*
X41333438Y-100263827D02*
X41262010Y-100335255D01*
X41262010Y-100335255D02*
X41190581Y-100478112D01*
X41190581Y-100478112D02*
X41190581Y-100906684D01*
X41190581Y-100906684D02*
X41262010Y-101049541D01*
X41262010Y-101049541D02*
X41333438Y-101120970D01*
X41333438Y-101120970D02*
X41476295Y-101192398D01*
X41476295Y-101192398D02*
X41690581Y-101192398D01*
X40762009Y-100192398D02*
X40190581Y-100192398D01*
X40547724Y-99692398D02*
X40547724Y-100978112D01*
X40547724Y-100978112D02*
X40476295Y-101120970D01*
X40476295Y-101120970D02*
X40333438Y-101192398D01*
X40333438Y-101192398D02*
X40190581Y-101192398D01*
X39476295Y-101192398D02*
X39619152Y-101120970D01*
X39619152Y-101120970D02*
X39690581Y-101049541D01*
X39690581Y-101049541D02*
X39762009Y-100906684D01*
X39762009Y-100906684D02*
X39762009Y-100478112D01*
X39762009Y-100478112D02*
X39690581Y-100335255D01*
X39690581Y-100335255D02*
X39619152Y-100263827D01*
X39619152Y-100263827D02*
X39476295Y-100192398D01*
X39476295Y-100192398D02*
X39262009Y-100192398D01*
X39262009Y-100192398D02*
X39119152Y-100263827D01*
X39119152Y-100263827D02*
X39047724Y-100335255D01*
X39047724Y-100335255D02*
X38976295Y-100478112D01*
X38976295Y-100478112D02*
X38976295Y-100906684D01*
X38976295Y-100906684D02*
X39047724Y-101049541D01*
X39047724Y-101049541D02*
X39119152Y-101120970D01*
X39119152Y-101120970D02*
X39262009Y-101192398D01*
X39262009Y-101192398D02*
X39476295Y-101192398D01*
X37690581Y-100192398D02*
X37690581Y-101192398D01*
X38047723Y-99620970D02*
X38404866Y-100692398D01*
X38404866Y-100692398D02*
X37476295Y-100692398D01*
D13*
X37532155Y-103809638D02*
X36865489Y-105809638D01*
X36865489Y-105809638D02*
X36198822Y-103809638D01*
X35532155Y-105809638D02*
X35532155Y-103809638D01*
X33436917Y-105809638D02*
X34103584Y-104857257D01*
X34579774Y-105809638D02*
X34579774Y-103809638D01*
X34579774Y-103809638D02*
X33817869Y-103809638D01*
X33817869Y-103809638D02*
X33627393Y-103904876D01*
X33627393Y-103904876D02*
X33532155Y-104000114D01*
X33532155Y-104000114D02*
X33436917Y-104190590D01*
X33436917Y-104190590D02*
X33436917Y-104476304D01*
X33436917Y-104476304D02*
X33532155Y-104666780D01*
X33532155Y-104666780D02*
X33627393Y-104762019D01*
X33627393Y-104762019D02*
X33817869Y-104857257D01*
X33817869Y-104857257D02*
X34579774Y-104857257D01*
X32579774Y-105047733D02*
X31055965Y-105047733D01*
X31817869Y-105809638D02*
X31817869Y-104285828D01*
X37532155Y-109119638D02*
X36865489Y-111119638D01*
X36865489Y-111119638D02*
X36198822Y-109119638D01*
X35532155Y-111119638D02*
X35532155Y-109119638D01*
X33436917Y-111119638D02*
X34103584Y-110167257D01*
X34579774Y-111119638D02*
X34579774Y-109119638D01*
X34579774Y-109119638D02*
X33817869Y-109119638D01*
X33817869Y-109119638D02*
X33627393Y-109214876D01*
X33627393Y-109214876D02*
X33532155Y-109310114D01*
X33532155Y-109310114D02*
X33436917Y-109500590D01*
X33436917Y-109500590D02*
X33436917Y-109786304D01*
X33436917Y-109786304D02*
X33532155Y-109976780D01*
X33532155Y-109976780D02*
X33627393Y-110072019D01*
X33627393Y-110072019D02*
X33817869Y-110167257D01*
X33817869Y-110167257D02*
X34579774Y-110167257D01*
X32579774Y-110357733D02*
X31055965Y-110357733D01*
X54790123Y-100078822D02*
X54885361Y-100269298D01*
X54885361Y-100269298D02*
X54885361Y-100555012D01*
X54885361Y-100555012D02*
X54790123Y-100840727D01*
X54790123Y-100840727D02*
X54599647Y-101031203D01*
X54599647Y-101031203D02*
X54409171Y-101126441D01*
X54409171Y-101126441D02*
X54028219Y-101221679D01*
X54028219Y-101221679D02*
X53742504Y-101221679D01*
X53742504Y-101221679D02*
X53361552Y-101126441D01*
X53361552Y-101126441D02*
X53171076Y-101031203D01*
X53171076Y-101031203D02*
X52980600Y-100840727D01*
X52980600Y-100840727D02*
X52885361Y-100555012D01*
X52885361Y-100555012D02*
X52885361Y-100364536D01*
X52885361Y-100364536D02*
X52980600Y-100078822D01*
X52980600Y-100078822D02*
X53075838Y-99983584D01*
X53075838Y-99983584D02*
X53742504Y-99983584D01*
X53742504Y-99983584D02*
X53742504Y-100364536D01*
X52885361Y-99126441D02*
X54885361Y-99126441D01*
X54885361Y-99126441D02*
X52885361Y-97983584D01*
X52885361Y-97983584D02*
X54885361Y-97983584D01*
X52885361Y-97031203D02*
X54885361Y-97031203D01*
X54885361Y-97031203D02*
X54885361Y-96555013D01*
X54885361Y-96555013D02*
X54790123Y-96269298D01*
X54790123Y-96269298D02*
X54599647Y-96078822D01*
X54599647Y-96078822D02*
X54409171Y-95983584D01*
X54409171Y-95983584D02*
X54028219Y-95888346D01*
X54028219Y-95888346D02*
X53742504Y-95888346D01*
X53742504Y-95888346D02*
X53361552Y-95983584D01*
X53361552Y-95983584D02*
X53171076Y-96078822D01*
X53171076Y-96078822D02*
X52980600Y-96269298D01*
X52980600Y-96269298D02*
X52885361Y-96555013D01*
X52885361Y-96555013D02*
X52885361Y-97031203D01*
X60060361Y-98024060D02*
X60060361Y-98976441D01*
X60060361Y-98976441D02*
X59107980Y-99071679D01*
X59107980Y-99071679D02*
X59203219Y-98976441D01*
X59203219Y-98976441D02*
X59298457Y-98785965D01*
X59298457Y-98785965D02*
X59298457Y-98309774D01*
X59298457Y-98309774D02*
X59203219Y-98119298D01*
X59203219Y-98119298D02*
X59107980Y-98024060D01*
X59107980Y-98024060D02*
X58917504Y-97928822D01*
X58917504Y-97928822D02*
X58441314Y-97928822D01*
X58441314Y-97928822D02*
X58250838Y-98024060D01*
X58250838Y-98024060D02*
X58155600Y-98119298D01*
X58155600Y-98119298D02*
X58060361Y-98309774D01*
X58060361Y-98309774D02*
X58060361Y-98785965D01*
X58060361Y-98785965D02*
X58155600Y-98976441D01*
X58155600Y-98976441D02*
X58250838Y-99071679D01*
X60060361Y-97357393D02*
X58060361Y-96690727D01*
X58060361Y-96690727D02*
X60060361Y-96024060D01*
D11*
X42379033Y-160219119D02*
X42379033Y-160933404D01*
X42379033Y-160933404D02*
X42426652Y-161076261D01*
X42426652Y-161076261D02*
X42521890Y-161171500D01*
X42521890Y-161171500D02*
X42664747Y-161219119D01*
X42664747Y-161219119D02*
X42759985Y-161219119D01*
X41855223Y-161219119D02*
X41664747Y-161219119D01*
X41664747Y-161219119D02*
X41569509Y-161171500D01*
X41569509Y-161171500D02*
X41521890Y-161123880D01*
X41521890Y-161123880D02*
X41426652Y-160981023D01*
X41426652Y-160981023D02*
X41379033Y-160790547D01*
X41379033Y-160790547D02*
X41379033Y-160409595D01*
X41379033Y-160409595D02*
X41426652Y-160314357D01*
X41426652Y-160314357D02*
X41474271Y-160266738D01*
X41474271Y-160266738D02*
X41569509Y-160219119D01*
X41569509Y-160219119D02*
X41759985Y-160219119D01*
X41759985Y-160219119D02*
X41855223Y-160266738D01*
X41855223Y-160266738D02*
X41902842Y-160314357D01*
X41902842Y-160314357D02*
X41950461Y-160409595D01*
X41950461Y-160409595D02*
X41950461Y-160647690D01*
X41950461Y-160647690D02*
X41902842Y-160742928D01*
X41902842Y-160742928D02*
X41855223Y-160790547D01*
X41855223Y-160790547D02*
X41759985Y-160838166D01*
X41759985Y-160838166D02*
X41569509Y-160838166D01*
X41569509Y-160838166D02*
X41474271Y-160790547D01*
X41474271Y-160790547D02*
X41426652Y-160742928D01*
X41426652Y-160742928D02*
X41379033Y-160647690D01*
X30723333Y-100474819D02*
X30723333Y-101189104D01*
X30723333Y-101189104D02*
X30770952Y-101331961D01*
X30770952Y-101331961D02*
X30866190Y-101427200D01*
X30866190Y-101427200D02*
X31009047Y-101474819D01*
X31009047Y-101474819D02*
X31104285Y-101474819D01*
X30342380Y-100474819D02*
X29723333Y-100474819D01*
X29723333Y-100474819D02*
X30056666Y-100855771D01*
X30056666Y-100855771D02*
X29913809Y-100855771D01*
X29913809Y-100855771D02*
X29818571Y-100903390D01*
X29818571Y-100903390D02*
X29770952Y-100951009D01*
X29770952Y-100951009D02*
X29723333Y-101046247D01*
X29723333Y-101046247D02*
X29723333Y-101284342D01*
X29723333Y-101284342D02*
X29770952Y-101379580D01*
X29770952Y-101379580D02*
X29818571Y-101427200D01*
X29818571Y-101427200D02*
X29913809Y-101474819D01*
X29913809Y-101474819D02*
X30199523Y-101474819D01*
X30199523Y-101474819D02*
X30294761Y-101427200D01*
X30294761Y-101427200D02*
X30342380Y-101379580D01*
X50288433Y-91447520D02*
X50288433Y-92161805D01*
X50288433Y-92161805D02*
X50336052Y-92304662D01*
X50336052Y-92304662D02*
X50431290Y-92399901D01*
X50431290Y-92399901D02*
X50574147Y-92447520D01*
X50574147Y-92447520D02*
X50669385Y-92447520D01*
X49288433Y-92447520D02*
X49859861Y-92447520D01*
X49574147Y-92447520D02*
X49574147Y-91447520D01*
X49574147Y-91447520D02*
X49669385Y-91590377D01*
X49669385Y-91590377D02*
X49764623Y-91685615D01*
X49764623Y-91685615D02*
X49859861Y-91733234D01*
X102193333Y-101254819D02*
X102193333Y-101969104D01*
X102193333Y-101969104D02*
X102240952Y-102111961D01*
X102240952Y-102111961D02*
X102336190Y-102207200D01*
X102336190Y-102207200D02*
X102479047Y-102254819D01*
X102479047Y-102254819D02*
X102574285Y-102254819D01*
X101288571Y-101588152D02*
X101288571Y-102254819D01*
X101526666Y-101207200D02*
X101764761Y-101921485D01*
X101764761Y-101921485D02*
X101145714Y-101921485D01*
X112674819Y-145926666D02*
X113389104Y-145926666D01*
X113389104Y-145926666D02*
X113531961Y-145879047D01*
X113531961Y-145879047D02*
X113627200Y-145783809D01*
X113627200Y-145783809D02*
X113674819Y-145640952D01*
X113674819Y-145640952D02*
X113674819Y-145545714D01*
X113103390Y-146545714D02*
X113055771Y-146450476D01*
X113055771Y-146450476D02*
X113008152Y-146402857D01*
X113008152Y-146402857D02*
X112912914Y-146355238D01*
X112912914Y-146355238D02*
X112865295Y-146355238D01*
X112865295Y-146355238D02*
X112770057Y-146402857D01*
X112770057Y-146402857D02*
X112722438Y-146450476D01*
X112722438Y-146450476D02*
X112674819Y-146545714D01*
X112674819Y-146545714D02*
X112674819Y-146736190D01*
X112674819Y-146736190D02*
X112722438Y-146831428D01*
X112722438Y-146831428D02*
X112770057Y-146879047D01*
X112770057Y-146879047D02*
X112865295Y-146926666D01*
X112865295Y-146926666D02*
X112912914Y-146926666D01*
X112912914Y-146926666D02*
X113008152Y-146879047D01*
X113008152Y-146879047D02*
X113055771Y-146831428D01*
X113055771Y-146831428D02*
X113103390Y-146736190D01*
X113103390Y-146736190D02*
X113103390Y-146545714D01*
X113103390Y-146545714D02*
X113151009Y-146450476D01*
X113151009Y-146450476D02*
X113198628Y-146402857D01*
X113198628Y-146402857D02*
X113293866Y-146355238D01*
X113293866Y-146355238D02*
X113484342Y-146355238D01*
X113484342Y-146355238D02*
X113579580Y-146402857D01*
X113579580Y-146402857D02*
X113627200Y-146450476D01*
X113627200Y-146450476D02*
X113674819Y-146545714D01*
X113674819Y-146545714D02*
X113674819Y-146736190D01*
X113674819Y-146736190D02*
X113627200Y-146831428D01*
X113627200Y-146831428D02*
X113579580Y-146879047D01*
X113579580Y-146879047D02*
X113484342Y-146926666D01*
X113484342Y-146926666D02*
X113293866Y-146926666D01*
X113293866Y-146926666D02*
X113198628Y-146879047D01*
X113198628Y-146879047D02*
X113151009Y-146831428D01*
X113151009Y-146831428D02*
X113103390Y-146736190D01*
X100414819Y-106706666D02*
X101129104Y-106706666D01*
X101129104Y-106706666D02*
X101271961Y-106659047D01*
X101271961Y-106659047D02*
X101367200Y-106563809D01*
X101367200Y-106563809D02*
X101414819Y-106420952D01*
X101414819Y-106420952D02*
X101414819Y-106325714D01*
X100414819Y-107659047D02*
X100414819Y-107182857D01*
X100414819Y-107182857D02*
X100891009Y-107135238D01*
X100891009Y-107135238D02*
X100843390Y-107182857D01*
X100843390Y-107182857D02*
X100795771Y-107278095D01*
X100795771Y-107278095D02*
X100795771Y-107516190D01*
X100795771Y-107516190D02*
X100843390Y-107611428D01*
X100843390Y-107611428D02*
X100891009Y-107659047D01*
X100891009Y-107659047D02*
X100986247Y-107706666D01*
X100986247Y-107706666D02*
X101224342Y-107706666D01*
X101224342Y-107706666D02*
X101319580Y-107659047D01*
X101319580Y-107659047D02*
X101367200Y-107611428D01*
X101367200Y-107611428D02*
X101414819Y-107516190D01*
X101414819Y-107516190D02*
X101414819Y-107278095D01*
X101414819Y-107278095D02*
X101367200Y-107182857D01*
X101367200Y-107182857D02*
X101319580Y-107135238D01*
X91413333Y-87154819D02*
X91413333Y-87869104D01*
X91413333Y-87869104D02*
X91460952Y-88011961D01*
X91460952Y-88011961D02*
X91556190Y-88107200D01*
X91556190Y-88107200D02*
X91699047Y-88154819D01*
X91699047Y-88154819D02*
X91794285Y-88154819D01*
X91032380Y-87154819D02*
X90365714Y-87154819D01*
X90365714Y-87154819D02*
X90794285Y-88154819D01*
%TO.C,J9*%
D14*
X28682101Y-162050000D02*
X42067901Y-162050000D01*
X28682101Y-164147300D02*
X28682101Y-162050000D01*
X28682101Y-176299400D02*
X28682101Y-167623500D01*
X42067901Y-162050000D02*
X42067901Y-164147300D01*
X42067901Y-167623500D02*
X42067901Y-176299400D01*
X42067901Y-176299400D02*
X28682101Y-176299400D01*
D15*
X38976601Y-161397000D02*
G75*
G02*
X38773401Y-161397000I-101600J0D01*
G01*
X38773401Y-161397000D02*
G75*
G02*
X38976601Y-161397000I101600J0D01*
G01*
%TO.C,J3*%
D14*
X22300700Y-102404100D02*
X30149300Y-102404100D01*
X22300700Y-112665700D02*
X22300700Y-102404100D01*
X30149300Y-102404100D02*
X30149300Y-112665700D01*
X30149300Y-112665700D02*
X22300700Y-112665700D01*
D16*
X26308701Y-100626100D02*
G75*
G02*
X25546701Y-100626100I-381000J0D01*
G01*
X25546701Y-100626100D02*
G75*
G02*
X26308701Y-100626100I381000J0D01*
G01*
%TO.C,J1*%
D14*
X51384300Y-86905700D02*
X61645900Y-86905700D01*
X51384300Y-94754300D02*
X51384300Y-86905700D01*
X61645900Y-86905700D02*
X61645900Y-94754300D01*
X61645900Y-94754300D02*
X51384300Y-94754300D01*
D16*
X63804900Y-90532701D02*
G75*
G02*
X63042900Y-90532701I-381000J0D01*
G01*
X63042900Y-90532701D02*
G75*
G02*
X63804900Y-90532701I381000J0D01*
G01*
%TO.C,J4*%
D17*
X98245000Y-90300000D02*
X98245000Y-100680000D01*
X100895000Y-90300000D02*
X98245000Y-90300000D01*
X100895000Y-92950000D02*
X100895000Y-90300000D01*
X103545000Y-90300000D02*
X102165000Y-90300000D01*
X103545000Y-91680000D02*
X103545000Y-90300000D01*
X103545000Y-92950000D02*
X100895000Y-92950000D01*
X103545000Y-92950000D02*
X103545000Y-100680000D01*
X103545000Y-100680000D02*
X98245000Y-100680000D01*
%TO.C,J8*%
X106605000Y-116695000D02*
X106605000Y-118025000D01*
X106605000Y-119295000D02*
X106605000Y-167615000D01*
X107935000Y-116695000D02*
X106605000Y-116695000D01*
X109205000Y-116695000D02*
X109205000Y-119295000D01*
X109205000Y-119295000D02*
X106605000Y-119295000D01*
X111805000Y-116695000D02*
X109205000Y-116695000D01*
X111805000Y-116695000D02*
X111805000Y-167615000D01*
X111805000Y-167615000D02*
X106605000Y-167615000D01*
%TO.C,J5*%
X91840000Y-102840000D02*
X91840000Y-104220000D01*
X91840000Y-105490000D02*
X91840000Y-108140000D01*
X91840000Y-108140000D02*
X99680000Y-108140000D01*
X93220000Y-102840000D02*
X91840000Y-102840000D01*
X94490000Y-102840000D02*
X94490000Y-105490000D01*
X94490000Y-102840000D02*
X99680000Y-102840000D01*
X94490000Y-105490000D02*
X91840000Y-105490000D01*
X99680000Y-102840000D02*
X99680000Y-108140000D01*
%TO.C,J7*%
X81730000Y-91890000D02*
X81730000Y-89130000D01*
X94540000Y-89130000D02*
X81730000Y-89130000D01*
X94540000Y-91890000D02*
X81730000Y-91890000D01*
X94540000Y-91890000D02*
X94540000Y-89130000D01*
X95810000Y-91890000D02*
X97190000Y-91890000D01*
X97190000Y-91890000D02*
X97190000Y-90510000D01*
%TD*%
%LPC*%
D18*
%TO.C,TP9*%
X96270350Y-160745000D03*
%TD*%
%TO.C,TP8*%
X85830000Y-140290000D03*
%TD*%
%TO.C,TP7*%
X84180000Y-155660000D03*
%TD*%
D19*
%TO.C,H2*%
X114400000Y-166000000D03*
%TD*%
%TO.C,H8*%
X114400000Y-126000000D03*
%TD*%
D18*
%TO.C,TP4*%
X49730000Y-125460000D03*
%TD*%
%TO.C,TP2*%
X25380000Y-126280000D03*
%TD*%
D20*
%TO.C,J2*%
X76590000Y-101840000D03*
D21*
X79130000Y-101840000D03*
%TD*%
D22*
%TO.C,MH4*%
X60205000Y-171155000D03*
%TD*%
%TO.C,MH1*%
X109205000Y-113155000D03*
%TD*%
D18*
%TO.C,TP6*%
X69330000Y-159420000D03*
%TD*%
%TO.C,TP3*%
X33340000Y-121090000D03*
%TD*%
%TO.C,TP10*%
X89880000Y-149600000D03*
%TD*%
D22*
%TO.C,MH2*%
X109205000Y-171155000D03*
%TD*%
D23*
%TO.C,J6*%
X94500000Y-168080000D03*
X100280000Y-168080000D03*
D24*
X93070000Y-167580000D03*
X101710000Y-167580000D03*
D25*
X93070000Y-171730000D03*
X101710000Y-171730000D03*
%TD*%
D18*
%TO.C,TP5*%
X52080000Y-146470000D03*
%TD*%
D19*
%TO.C,H1*%
X23900000Y-166000000D03*
%TD*%
%TO.C,H7*%
X54400000Y-126000000D03*
%TD*%
D26*
%TO.C,U3*%
X84133333Y-125016667D03*
X83000000Y-125016667D03*
X81866667Y-125016667D03*
X84133333Y-126150000D03*
X83000000Y-126150000D03*
X81866667Y-126150000D03*
X84133333Y-127283333D03*
X83000000Y-127283333D03*
X81866667Y-127283333D03*
%TD*%
D27*
%TO.C,TP1*%
X104940000Y-110810000D03*
%TD*%
D28*
%TO.C,J9*%
X38875001Y-163175000D03*
X36375001Y-163175000D03*
X34375000Y-163175000D03*
X31875002Y-163175000D03*
D29*
X41945001Y-165885400D03*
X28805001Y-165885400D03*
%TD*%
D22*
%TO.C,H6*%
X113900000Y-171640000D03*
%TD*%
D30*
%TO.C,J3*%
X25927701Y-105034900D03*
X25927701Y-110034900D03*
%TD*%
%TO.C,J1*%
X59015100Y-90532701D03*
X54015100Y-90532701D03*
%TD*%
D22*
%TO.C,H5*%
X113900000Y-92640000D03*
%TD*%
D20*
%TO.C,J4*%
X102165000Y-91680000D03*
D21*
X99625000Y-91680000D03*
X102165000Y-94220000D03*
X99625000Y-94220000D03*
X102165000Y-96760000D03*
X99625000Y-96760000D03*
X102165000Y-99300000D03*
X99625000Y-99300000D03*
%TD*%
D22*
%TO.C,H4*%
X23900000Y-171640000D03*
%TD*%
D20*
%TO.C,J8*%
X107935000Y-118025000D03*
D31*
X110475000Y-118025000D03*
X107935000Y-120565000D03*
X110475000Y-120565000D03*
X107935000Y-123105000D03*
X110475000Y-123105000D03*
X107935000Y-125645000D03*
X110475000Y-125645000D03*
X107935000Y-128185000D03*
X110475000Y-128185000D03*
X107935000Y-130725000D03*
X110475000Y-130725000D03*
X107935000Y-133265000D03*
X110475000Y-133265000D03*
X107935000Y-135805000D03*
X110475000Y-135805000D03*
X107935000Y-138345000D03*
X110475000Y-138345000D03*
X107935000Y-140885000D03*
X110475000Y-140885000D03*
X107935000Y-143425000D03*
X110475000Y-143425000D03*
X107935000Y-145965000D03*
X110475000Y-145965000D03*
X107935000Y-148505000D03*
X110475000Y-148505000D03*
X107935000Y-151045000D03*
X110475000Y-151045000D03*
X107935000Y-153585000D03*
X110475000Y-153585000D03*
X107935000Y-156125000D03*
X110475000Y-156125000D03*
X107935000Y-158665000D03*
X110475000Y-158665000D03*
X107935000Y-161205000D03*
X110475000Y-161205000D03*
X107935000Y-163745000D03*
X110475000Y-163745000D03*
X107935000Y-166285000D03*
X110475000Y-166285000D03*
%TD*%
D20*
%TO.C,J5*%
X93220000Y-104220000D03*
D21*
X93220000Y-106760000D03*
X95760000Y-104220000D03*
X95760000Y-106760000D03*
X98300000Y-104220000D03*
X98300000Y-106760000D03*
%TD*%
D22*
%TO.C,H3*%
X23900000Y-92640000D03*
%TD*%
D20*
%TO.C,J7*%
X95810000Y-90510000D03*
D21*
X93270000Y-90510000D03*
X90730000Y-90510000D03*
X88190000Y-90510000D03*
X85650000Y-90510000D03*
X83110000Y-90510000D03*
%TD*%
G36*
X29843039Y-135919685D02*
G01*
X29888794Y-135972489D01*
X29900000Y-136024000D01*
X29900000Y-142776000D01*
X29880315Y-142843039D01*
X29827511Y-142888794D01*
X29776000Y-142900000D01*
X23024000Y-142900000D01*
X22956961Y-142880315D01*
X22911206Y-142827511D01*
X22900000Y-142776000D01*
X22900000Y-136024000D01*
X22919685Y-135956961D01*
X22972489Y-135911206D01*
X23024000Y-135900000D01*
X29776000Y-135900000D01*
X29843039Y-135919685D01*
G37*
G36*
X29843039Y-143019685D02*
G01*
X29888794Y-143072489D01*
X29900000Y-143124000D01*
X29900000Y-149876000D01*
X29880315Y-149943039D01*
X29827511Y-149988794D01*
X29776000Y-150000000D01*
X23024000Y-150000000D01*
X22956961Y-149980315D01*
X22911206Y-149927511D01*
X22900000Y-149876000D01*
X22900000Y-143124000D01*
X22919685Y-143056961D01*
X22972489Y-143011206D01*
X23024000Y-143000000D01*
X29776000Y-143000000D01*
X29843039Y-143019685D01*
G37*
G36*
X44043039Y-150119685D02*
G01*
X44088794Y-150172489D01*
X44100000Y-150224000D01*
X44100000Y-156976000D01*
X44080315Y-157043039D01*
X44027511Y-157088794D01*
X43976000Y-157100000D01*
X37224000Y-157100000D01*
X37156961Y-157080315D01*
X37111206Y-157027511D01*
X37100000Y-156976000D01*
X37100000Y-150224000D01*
X37119685Y-150156961D01*
X37172489Y-150111206D01*
X37224000Y-150100000D01*
X43976000Y-150100000D01*
X44043039Y-150119685D01*
G37*
G36*
X36943039Y-150119685D02*
G01*
X36988794Y-150172489D01*
X37000000Y-150224000D01*
X37000000Y-156976000D01*
X36980315Y-157043039D01*
X36927511Y-157088794D01*
X36876000Y-157100000D01*
X30124000Y-157100000D01*
X30056961Y-157080315D01*
X30011206Y-157027511D01*
X30000000Y-156976000D01*
X30000000Y-150224000D01*
X30019685Y-150156961D01*
X30072489Y-150111206D01*
X30124000Y-150100000D01*
X36876000Y-150100000D01*
X36943039Y-150119685D01*
G37*
G36*
X29843039Y-150119685D02*
G01*
X29888794Y-150172489D01*
X29900000Y-150224000D01*
X29900000Y-156976000D01*
X29880315Y-157043039D01*
X29827511Y-157088794D01*
X29776000Y-157100000D01*
X23024000Y-157100000D01*
X22956961Y-157080315D01*
X22911206Y-157027511D01*
X22900000Y-156976000D01*
X22900000Y-150224000D01*
X22919685Y-150156961D01*
X22972489Y-150111206D01*
X23024000Y-150100000D01*
X29776000Y-150100000D01*
X29843039Y-150119685D01*
G37*
G36*
X44043039Y-143019685D02*
G01*
X44088794Y-143072489D01*
X44100000Y-143124000D01*
X44100000Y-149876000D01*
X44080315Y-149943039D01*
X44027511Y-149988794D01*
X43976000Y-150000000D01*
X37224000Y-150000000D01*
X37156961Y-149980315D01*
X37111206Y-149927511D01*
X37100000Y-149876000D01*
X37100000Y-143124000D01*
X37119685Y-143056961D01*
X37172489Y-143011206D01*
X37224000Y-143000000D01*
X43976000Y-143000000D01*
X44043039Y-143019685D01*
G37*
G36*
X36943039Y-135919685D02*
G01*
X36988794Y-135972489D01*
X37000000Y-136024000D01*
X37000000Y-142776000D01*
X36980315Y-142843039D01*
X36927511Y-142888794D01*
X36876000Y-142900000D01*
X30124000Y-142900000D01*
X30056961Y-142880315D01*
X30011206Y-142827511D01*
X30000000Y-142776000D01*
X30000000Y-136024000D01*
X30019685Y-135956961D01*
X30072489Y-135911206D01*
X30124000Y-135900000D01*
X36876000Y-135900000D01*
X36943039Y-135919685D01*
G37*
G36*
X44043039Y-135919685D02*
G01*
X44088794Y-135972489D01*
X44100000Y-136024000D01*
X44100000Y-142776000D01*
X44080315Y-142843039D01*
X44027511Y-142888794D01*
X43976000Y-142900000D01*
X37224000Y-142900000D01*
X37156961Y-142880315D01*
X37111206Y-142827511D01*
X37100000Y-142776000D01*
X37100000Y-136024000D01*
X37119685Y-135956961D01*
X37172489Y-135911206D01*
X37224000Y-135900000D01*
X43976000Y-135900000D01*
X44043039Y-135919685D01*
G37*
G36*
X36943039Y-143019685D02*
G01*
X36988794Y-143072489D01*
X37000000Y-143124000D01*
X37000000Y-149876000D01*
X36980315Y-149943039D01*
X36927511Y-149988794D01*
X36876000Y-150000000D01*
X30124000Y-150000000D01*
X30056961Y-149980315D01*
X30011206Y-149927511D01*
X30000000Y-149876000D01*
X30000000Y-143124000D01*
X30019685Y-143056961D01*
X30072489Y-143011206D01*
X30124000Y-143000000D01*
X36876000Y-143000000D01*
X36943039Y-143019685D01*
G37*
%LPD*%
M02*
