%TF.GenerationSoftware,KiCad,Pcbnew,10.0.4*%
%TF.CreationDate,2026-07-18T10:14:22-04:00*%
%TF.ProjectId,The_Second_Board_To_Rule_Them_All,5468655f-5365-4636-9f6e-645f426f6172,rev?*%
%TF.SameCoordinates,Original*%
%TF.FileFunction,Paste,Top*%
%TF.FilePolarity,Positive*%
%FSLAX46Y46*%
G04 Gerber Fmt 4.6, Leading zero omitted, Abs format (unit mm)*
G04 Created by KiCad (PCBNEW 10.0.4) date 2026-07-18 10:14:22*
%MOMM*%
%LPD*%
G01*
G04 APERTURE LIST*
G04 Aperture macros list*
%AMRoundRect*
0 Rectangle with rounded corners*
0 $1 Rounding radius*
0 $2 $3 $4 $5 $6 $7 $8 $9 X,Y pos of 4 corners*
0 Add a 4 corners polygon primitive as box body*
4,1,4,$2,$3,$4,$5,$6,$7,$8,$9,$2,$3,0*
0 Add four circle primitives for the rounded corners*
1,1,$1+$1,$2,$3*
1,1,$1+$1,$4,$5*
1,1,$1+$1,$6,$7*
1,1,$1+$1,$8,$9*
0 Add four rect primitives between the rounded corners*
20,1,$1+$1,$2,$3,$4,$5,0*
20,1,$1+$1,$4,$5,$6,$7,0*
20,1,$1+$1,$6,$7,$8,$9,0*
20,1,$1+$1,$8,$9,$2,$3,0*%
G04 Aperture macros list end*
%ADD10C,0.000000*%
%ADD11C,0.100000*%
%ADD12RoundRect,0.200000X-0.200000X-0.275000X0.200000X-0.275000X0.200000X0.275000X-0.200000X0.275000X0*%
%ADD13RoundRect,0.135000X0.135000X0.185000X-0.135000X0.185000X-0.135000X-0.185000X0.135000X-0.185000X0*%
%ADD14R,1.244600X1.244600*%
%ADD15RoundRect,0.135000X-0.185000X0.135000X-0.185000X-0.135000X0.185000X-0.135000X0.185000X0.135000X0*%
%ADD16RoundRect,0.250000X1.000000X0.900000X-1.000000X0.900000X-1.000000X-0.900000X1.000000X-0.900000X0*%
%ADD17RoundRect,0.135000X0.185000X-0.135000X0.185000X0.135000X-0.185000X0.135000X-0.185000X-0.135000X0*%
%ADD18RoundRect,0.200000X0.200000X0.275000X-0.200000X0.275000X-0.200000X-0.275000X0.200000X-0.275000X0*%
%ADD19RoundRect,0.140000X0.140000X0.170000X-0.140000X0.170000X-0.140000X-0.170000X0.140000X-0.170000X0*%
%ADD20R,0.540000X0.560000*%
%ADD21RoundRect,0.250000X-0.650000X0.325000X-0.650000X-0.325000X0.650000X-0.325000X0.650000X0.325000X0*%
%ADD22RoundRect,0.135000X-0.135000X-0.185000X0.135000X-0.185000X0.135000X0.185000X-0.135000X0.185000X0*%
%ADD23RoundRect,0.225000X0.250000X-0.225000X0.250000X0.225000X-0.250000X0.225000X-0.250000X-0.225000X0*%
%ADD24RoundRect,0.225000X0.225000X0.250000X-0.225000X0.250000X-0.225000X-0.250000X0.225000X-0.250000X0*%
%ADD25RoundRect,0.250000X0.475000X-0.250000X0.475000X0.250000X-0.475000X0.250000X-0.475000X-0.250000X0*%
%ADD26RoundRect,0.250000X-0.475000X0.250000X-0.475000X-0.250000X0.475000X-0.250000X0.475000X0.250000X0*%
%ADD27R,0.417985X1.955432*%
%ADD28R,0.977900X0.558800*%
%ADD29RoundRect,0.140000X-0.170000X0.140000X-0.170000X-0.140000X0.170000X-0.140000X0.170000X0.140000X0*%
%ADD30RoundRect,0.150000X-0.825000X-0.150000X0.825000X-0.150000X0.825000X0.150000X-0.825000X0.150000X0*%
%ADD31R,0.530000X0.470000*%
%ADD32R,1.498600X3.606800*%
%ADD33RoundRect,0.250000X-0.450000X0.350000X-0.450000X-0.350000X0.450000X-0.350000X0.450000X0.350000X0*%
%ADD34RoundRect,0.150000X0.150000X-0.587500X0.150000X0.587500X-0.150000X0.587500X-0.150000X-0.587500X0*%
%ADD35RoundRect,0.250000X0.650000X-0.325000X0.650000X0.325000X-0.650000X0.325000X-0.650000X-0.325000X0*%
%ADD36RoundRect,0.140000X0.170000X-0.140000X0.170000X0.140000X-0.170000X0.140000X-0.170000X-0.140000X0*%
%ADD37R,2.000000X1.500000*%
%ADD38R,2.000000X3.800000*%
%ADD39RoundRect,0.150000X0.150000X-0.512500X0.150000X0.512500X-0.150000X0.512500X-0.150000X-0.512500X0*%
%ADD40R,1.016000X1.752600*%
%ADD41RoundRect,0.225000X-0.225000X-0.250000X0.225000X-0.250000X0.225000X0.250000X-0.225000X0.250000X0*%
%ADD42RoundRect,0.250000X-0.250000X-0.475000X0.250000X-0.475000X0.250000X0.475000X-0.250000X0.475000X0*%
%ADD43RoundRect,0.218750X0.256250X-0.218750X0.256250X0.218750X-0.256250X0.218750X-0.256250X-0.218750X0*%
%ADD44R,0.900000X0.600000*%
%ADD45RoundRect,0.125000X-0.400000X0.175000X-0.400000X-0.175000X0.400000X-0.175000X0.400000X0.175000X0*%
%ADD46RoundRect,0.250000X-1.000000X-0.650000X1.000000X-0.650000X1.000000X0.650000X-1.000000X0.650000X0*%
%ADD47RoundRect,0.125000X0.400000X-0.175000X0.400000X0.175000X-0.400000X0.175000X-0.400000X-0.175000X0*%
%ADD48R,1.200000X1.400000*%
%ADD49RoundRect,0.218750X0.218750X0.256250X-0.218750X0.256250X-0.218750X-0.256250X0.218750X-0.256250X0*%
%ADD50RoundRect,0.243750X-0.243750X-0.456250X0.243750X-0.456250X0.243750X0.456250X-0.243750X0.456250X0*%
%ADD51RoundRect,0.225000X-0.250000X0.225000X-0.250000X-0.225000X0.250000X-0.225000X0.250000X0.225000X0*%
%ADD52RoundRect,0.250000X1.000000X0.650000X-1.000000X0.650000X-1.000000X-0.650000X1.000000X-0.650000X0*%
%ADD53RoundRect,0.250000X0.362500X1.425000X-0.362500X1.425000X-0.362500X-1.425000X0.362500X-1.425000X0*%
%ADD54RoundRect,0.200000X-0.275000X0.200000X-0.275000X-0.200000X0.275000X-0.200000X0.275000X0.200000X0*%
%ADD55RoundRect,0.250000X-0.450000X0.262500X-0.450000X-0.262500X0.450000X-0.262500X0.450000X0.262500X0*%
%ADD56RoundRect,0.150000X0.512500X0.150000X-0.512500X0.150000X-0.512500X-0.150000X0.512500X-0.150000X0*%
%ADD57RoundRect,0.250000X-0.625000X0.312500X-0.625000X-0.312500X0.625000X-0.312500X0.625000X0.312500X0*%
%ADD58RoundRect,0.250000X0.450000X-0.350000X0.450000X0.350000X-0.450000X0.350000X-0.450000X-0.350000X0*%
%ADD59RoundRect,0.250000X0.350000X0.450000X-0.350000X0.450000X-0.350000X-0.450000X0.350000X-0.450000X0*%
%ADD60RoundRect,0.225000X-0.375000X0.225000X-0.375000X-0.225000X0.375000X-0.225000X0.375000X0.225000X0*%
%ADD61RoundRect,0.150000X-0.587500X-0.150000X0.587500X-0.150000X0.587500X0.150000X-0.587500X0.150000X0*%
%ADD62RoundRect,0.140000X-0.140000X-0.170000X0.140000X-0.170000X0.140000X0.170000X-0.140000X0.170000X0*%
%ADD63RoundRect,0.250000X0.450000X-0.262500X0.450000X0.262500X-0.450000X0.262500X-0.450000X-0.262500X0*%
%ADD64R,0.550000X0.300000*%
%ADD65R,0.994662X0.300000*%
%ADD66R,0.150000X2.786250*%
%ADD67RoundRect,0.087500X0.537500X0.087500X-0.537500X0.087500X-0.537500X-0.087500X0.537500X-0.087500X0*%
%ADD68R,0.558800X0.977900*%
%ADD69R,0.600000X0.420000*%
%ADD70O,0.600000X0.420000*%
%ADD71RoundRect,0.250000X0.850000X0.350000X-0.850000X0.350000X-0.850000X-0.350000X0.850000X-0.350000X0*%
%ADD72RoundRect,0.150000X0.587500X0.150000X-0.587500X0.150000X-0.587500X-0.150000X0.587500X-0.150000X0*%
%ADD73R,0.600000X1.150000*%
%ADD74R,0.300000X1.150000*%
%ADD75RoundRect,0.250000X0.250000X0.475000X-0.250000X0.475000X-0.250000X-0.475000X0.250000X-0.475000X0*%
%ADD76RoundRect,0.250000X0.262500X0.450000X-0.262500X0.450000X-0.262500X-0.450000X0.262500X-0.450000X0*%
%ADD77R,0.254000X0.812800*%
%ADD78R,0.812800X0.254000*%
%ADD79R,1.700000X0.700000*%
%ADD80RoundRect,0.150000X-0.150000X0.587500X-0.150000X-0.587500X0.150000X-0.587500X0.150000X0.587500X0*%
%ADD81RoundRect,0.250000X-0.325000X-0.650000X0.325000X-0.650000X0.325000X0.650000X-0.325000X0.650000X0*%
%ADD82RoundRect,0.125000X-1.375000X0.175000X-1.375000X-0.175000X1.375000X-0.175000X1.375000X0.175000X0*%
%ADD83RoundRect,0.125000X-0.175000X1.375000X-0.175000X-1.375000X0.175000X-1.375000X0.175000X1.375000X0*%
%ADD84RoundRect,0.055000X-0.055000X-0.335000X0.055000X-0.335000X0.055000X0.335000X-0.055000X0.335000X0*%
%ADD85RoundRect,0.055000X-0.335000X0.055000X-0.335000X-0.055000X0.335000X-0.055000X0.335000X0.055000X0*%
%ADD86R,0.133333X0.133333*%
%ADD87R,3.606800X1.498600*%
%ADD88RoundRect,0.200000X0.275000X-0.200000X0.275000X0.200000X-0.275000X0.200000X-0.275000X-0.200000X0*%
%ADD89R,1.955432X0.417985*%
G04 APERTURE END LIST*
D10*
%TO.C,Q1*%
G36*
X72003371Y-91138783D02*
G01*
X72019001Y-91199661D01*
X72042139Y-91258100D01*
X72072419Y-91313178D01*
X72109362Y-91364027D01*
X72152388Y-91409845D01*
X72200817Y-91449909D01*
X72253885Y-91483587D01*
X72310756Y-91510348D01*
X72370532Y-91529771D01*
X72432271Y-91541548D01*
X72495000Y-91545495D01*
X72557729Y-91541548D01*
X72619468Y-91529771D01*
X72679244Y-91510348D01*
X72736115Y-91483587D01*
X72789183Y-91449909D01*
X72837612Y-91409845D01*
X72880638Y-91364027D01*
X72917581Y-91313178D01*
X72920000Y-91308777D01*
X72920000Y-92181222D01*
X72917581Y-92176822D01*
X72880638Y-92125973D01*
X72837612Y-92080155D01*
X72789183Y-92040091D01*
X72736115Y-92006413D01*
X72679244Y-91979652D01*
X72619468Y-91960229D01*
X72557729Y-91948452D01*
X72495000Y-91944506D01*
X72432271Y-91948452D01*
X72370532Y-91960229D01*
X72310756Y-91979652D01*
X72253885Y-92006413D01*
X72200817Y-92040091D01*
X72152388Y-92080155D01*
X72109362Y-92125973D01*
X72072419Y-92176822D01*
X72042139Y-92231900D01*
X72019001Y-92290339D01*
X72003371Y-92351217D01*
X71995493Y-92413574D01*
X71995000Y-92445000D01*
X71995493Y-92476426D01*
X72003371Y-92538783D01*
X72019001Y-92599661D01*
X72042139Y-92658100D01*
X72072419Y-92713178D01*
X72109362Y-92764027D01*
X72152388Y-92809845D01*
X72200817Y-92849909D01*
X72253885Y-92883587D01*
X72310756Y-92910348D01*
X72340461Y-92920000D01*
X71449539Y-92920000D01*
X71479244Y-92910348D01*
X71536115Y-92883587D01*
X71589183Y-92849909D01*
X71637612Y-92809845D01*
X71680638Y-92764027D01*
X71717581Y-92713178D01*
X71747861Y-92658100D01*
X71770999Y-92599661D01*
X71786629Y-92538783D01*
X71794507Y-92476426D01*
X71794507Y-92413574D01*
X71786629Y-92351217D01*
X71770999Y-92290339D01*
X71747861Y-92231900D01*
X71717581Y-92176822D01*
X71680638Y-92125973D01*
X71637612Y-92080155D01*
X71589183Y-92040091D01*
X71536115Y-92006413D01*
X71479244Y-91979652D01*
X71419468Y-91960229D01*
X71357729Y-91948452D01*
X71295000Y-91944506D01*
X71232271Y-91948452D01*
X71170532Y-91960229D01*
X71110756Y-91979652D01*
X71053885Y-92006413D01*
X71000817Y-92040091D01*
X70952388Y-92080155D01*
X70909362Y-92125973D01*
X70872419Y-92176822D01*
X70842139Y-92231900D01*
X70819001Y-92290339D01*
X70803371Y-92351217D01*
X70795493Y-92413574D01*
X70795000Y-92445000D01*
X70795493Y-92476426D01*
X70803371Y-92538783D01*
X70819001Y-92599661D01*
X70842139Y-92658100D01*
X70872419Y-92713178D01*
X70909362Y-92764027D01*
X70952388Y-92809845D01*
X71000817Y-92849909D01*
X71053885Y-92883587D01*
X71110756Y-92910348D01*
X71140461Y-92920000D01*
X70249539Y-92920000D01*
X70279244Y-92910348D01*
X70336115Y-92883587D01*
X70389183Y-92849909D01*
X70437612Y-92809845D01*
X70480638Y-92764027D01*
X70517581Y-92713178D01*
X70547861Y-92658100D01*
X70570999Y-92599661D01*
X70586629Y-92538783D01*
X70594507Y-92476426D01*
X70594507Y-92413574D01*
X70586629Y-92351217D01*
X70570999Y-92290339D01*
X70547861Y-92231900D01*
X70517581Y-92176822D01*
X70480638Y-92125973D01*
X70437612Y-92080155D01*
X70389183Y-92040091D01*
X70336115Y-92006413D01*
X70279244Y-91979652D01*
X70219468Y-91960229D01*
X70170000Y-91950792D01*
X70170000Y-91539207D01*
X70219468Y-91529771D01*
X70279244Y-91510348D01*
X70336115Y-91483587D01*
X70389183Y-91449909D01*
X70437612Y-91409845D01*
X70480638Y-91364027D01*
X70517581Y-91313178D01*
X70547861Y-91258100D01*
X70570999Y-91199661D01*
X70586629Y-91138783D01*
X70594507Y-91076426D01*
X70594507Y-91045000D01*
X70795000Y-91045000D01*
X70795493Y-91076426D01*
X70803371Y-91138783D01*
X70819001Y-91199661D01*
X70842139Y-91258100D01*
X70872419Y-91313178D01*
X70909362Y-91364027D01*
X70952388Y-91409845D01*
X71000817Y-91449909D01*
X71053885Y-91483587D01*
X71110756Y-91510348D01*
X71170532Y-91529771D01*
X71232271Y-91541548D01*
X71295000Y-91545495D01*
X71357729Y-91541548D01*
X71419468Y-91529771D01*
X71479244Y-91510348D01*
X71536115Y-91483587D01*
X71589183Y-91449909D01*
X71637612Y-91409845D01*
X71680638Y-91364027D01*
X71717581Y-91313178D01*
X71747861Y-91258100D01*
X71770999Y-91199661D01*
X71786629Y-91138783D01*
X71794507Y-91076426D01*
X71794507Y-91013574D01*
X71786629Y-90951217D01*
X71770999Y-90890339D01*
X71747861Y-90831900D01*
X71717581Y-90776822D01*
X71680638Y-90725973D01*
X71637612Y-90680155D01*
X71589183Y-90640091D01*
X71536115Y-90606413D01*
X71479244Y-90579652D01*
X71419468Y-90560229D01*
X71357729Y-90548452D01*
X71295000Y-90544505D01*
X71232271Y-90548452D01*
X71170532Y-90560229D01*
X71110756Y-90579652D01*
X71053885Y-90606413D01*
X71000817Y-90640091D01*
X70952388Y-90680155D01*
X70909362Y-90725973D01*
X70872419Y-90776822D01*
X70842139Y-90831900D01*
X70819001Y-90890339D01*
X70803371Y-90951217D01*
X70795493Y-91013574D01*
X70795000Y-91045000D01*
X70594507Y-91045000D01*
X70594507Y-91013574D01*
X70586629Y-90951217D01*
X70570999Y-90890339D01*
X70547861Y-90831900D01*
X70517581Y-90776822D01*
X70480638Y-90725973D01*
X70437612Y-90680155D01*
X70389183Y-90640091D01*
X70336115Y-90606413D01*
X70279244Y-90579652D01*
X70219468Y-90560229D01*
X70170000Y-90550793D01*
X70170000Y-90139208D01*
X70219468Y-90129771D01*
X70279244Y-90110348D01*
X70336115Y-90083587D01*
X70389183Y-90049909D01*
X70437612Y-90009845D01*
X70480638Y-89964027D01*
X70517581Y-89913178D01*
X70547861Y-89858100D01*
X70570999Y-89799661D01*
X70586629Y-89738783D01*
X70594507Y-89676426D01*
X70594507Y-89613574D01*
X70586629Y-89551217D01*
X70570999Y-89490339D01*
X70547861Y-89431900D01*
X70517581Y-89376822D01*
X70480638Y-89325973D01*
X70437612Y-89280155D01*
X70389183Y-89240091D01*
X70336115Y-89206413D01*
X70279244Y-89179652D01*
X70249539Y-89170000D01*
X71140461Y-89170000D01*
X71110756Y-89179652D01*
X71053885Y-89206413D01*
X71000817Y-89240091D01*
X70952388Y-89280155D01*
X70909362Y-89325973D01*
X70872419Y-89376822D01*
X70842139Y-89431900D01*
X70819001Y-89490339D01*
X70803371Y-89551217D01*
X70795493Y-89613574D01*
X70795000Y-89645000D01*
X70795493Y-89676426D01*
X70803371Y-89738783D01*
X70819001Y-89799661D01*
X70842139Y-89858100D01*
X70872419Y-89913178D01*
X70909362Y-89964027D01*
X70952388Y-90009845D01*
X71000817Y-90049909D01*
X71053885Y-90083587D01*
X71110756Y-90110348D01*
X71170532Y-90129771D01*
X71232271Y-90141548D01*
X71295000Y-90145494D01*
X71357729Y-90141548D01*
X71419468Y-90129771D01*
X71479244Y-90110348D01*
X71536115Y-90083587D01*
X71589183Y-90049909D01*
X71637612Y-90009845D01*
X71680638Y-89964027D01*
X71717581Y-89913178D01*
X71747861Y-89858100D01*
X71770999Y-89799661D01*
X71786629Y-89738783D01*
X71794507Y-89676426D01*
X71794507Y-89613574D01*
X71786629Y-89551217D01*
X71770999Y-89490339D01*
X71747861Y-89431900D01*
X71717581Y-89376822D01*
X71680638Y-89325973D01*
X71637612Y-89280155D01*
X71589183Y-89240091D01*
X71536115Y-89206413D01*
X71479244Y-89179652D01*
X71449539Y-89170000D01*
X72340461Y-89170000D01*
X72310756Y-89179652D01*
X72253885Y-89206413D01*
X72200817Y-89240091D01*
X72152388Y-89280155D01*
X72109362Y-89325973D01*
X72072419Y-89376822D01*
X72042139Y-89431900D01*
X72019001Y-89490339D01*
X72003371Y-89551217D01*
X71995493Y-89613574D01*
X71995000Y-89645000D01*
X71995493Y-89676426D01*
X72003371Y-89738783D01*
X72019001Y-89799661D01*
X72042139Y-89858100D01*
X72072419Y-89913178D01*
X72109362Y-89964027D01*
X72152388Y-90009845D01*
X72200817Y-90049909D01*
X72253885Y-90083587D01*
X72310756Y-90110348D01*
X72370532Y-90129771D01*
X72432271Y-90141548D01*
X72495000Y-90145494D01*
X72557729Y-90141548D01*
X72619468Y-90129771D01*
X72679244Y-90110348D01*
X72736115Y-90083587D01*
X72789183Y-90049909D01*
X72837612Y-90009845D01*
X72880638Y-89964027D01*
X72917581Y-89913178D01*
X72920000Y-89908778D01*
X72920000Y-90781223D01*
X72917581Y-90776822D01*
X72880638Y-90725973D01*
X72837612Y-90680155D01*
X72789183Y-90640091D01*
X72736115Y-90606413D01*
X72679244Y-90579652D01*
X72619468Y-90560229D01*
X72557729Y-90548452D01*
X72495000Y-90544505D01*
X72432271Y-90548452D01*
X72370532Y-90560229D01*
X72310756Y-90579652D01*
X72253885Y-90606413D01*
X72200817Y-90640091D01*
X72152388Y-90680155D01*
X72109362Y-90725973D01*
X72072419Y-90776822D01*
X72042139Y-90831900D01*
X72019001Y-90890339D01*
X72003371Y-90951217D01*
X71995493Y-91013574D01*
X71995000Y-91045000D01*
X71995493Y-91076426D01*
X72003371Y-91138783D01*
G37*
%TO.C,D2*%
G36*
X57355671Y-103489030D02*
G01*
X57436777Y-103543223D01*
X57490970Y-103624329D01*
X57510000Y-103720000D01*
X57510000Y-105020000D01*
X57490970Y-105115671D01*
X57436777Y-105196777D01*
X57355671Y-105250970D01*
X57260000Y-105270000D01*
X55260000Y-105270000D01*
X55164329Y-105250970D01*
X55083223Y-105196777D01*
X55029030Y-105115671D01*
X55010000Y-105020000D01*
X55010000Y-104398572D01*
X55860509Y-104398572D01*
X55868642Y-104455135D01*
X55884741Y-104509964D01*
X55908480Y-104561944D01*
X55939374Y-104610017D01*
X55976796Y-104653204D01*
X56019983Y-104690626D01*
X56068056Y-104721520D01*
X56120036Y-104745259D01*
X56174865Y-104761358D01*
X56231428Y-104769491D01*
X56288572Y-104769491D01*
X56345135Y-104761358D01*
X56399964Y-104745259D01*
X56451944Y-104721520D01*
X56500017Y-104690626D01*
X56543204Y-104653204D01*
X56580626Y-104610017D01*
X56611520Y-104561944D01*
X56635259Y-104509964D01*
X56651358Y-104455135D01*
X56659491Y-104398572D01*
X56660000Y-104370000D01*
X56659491Y-104341428D01*
X56651358Y-104284865D01*
X56635259Y-104230036D01*
X56611520Y-104178056D01*
X56580626Y-104129983D01*
X56543204Y-104086796D01*
X56500017Y-104049374D01*
X56451944Y-104018480D01*
X56399964Y-103994741D01*
X56345135Y-103978642D01*
X56288572Y-103970509D01*
X56231428Y-103970509D01*
X56174865Y-103978642D01*
X56120036Y-103994741D01*
X56068056Y-104018480D01*
X56019983Y-104049374D01*
X55976796Y-104086796D01*
X55939374Y-104129983D01*
X55908480Y-104178056D01*
X55884741Y-104230036D01*
X55868642Y-104284865D01*
X55860509Y-104341428D01*
X55860509Y-104398572D01*
X55010000Y-104398572D01*
X55010000Y-104341428D01*
X55010000Y-103720000D01*
X55029030Y-103624329D01*
X55083223Y-103543223D01*
X55164329Y-103489030D01*
X55260000Y-103470000D01*
X57260000Y-103470000D01*
X57355671Y-103489030D01*
G37*
%TO.C,Q3*%
G36*
X78080756Y-95109652D02*
G01*
X78023885Y-95136413D01*
X77970817Y-95170091D01*
X77922388Y-95210155D01*
X77879362Y-95255973D01*
X77842419Y-95306822D01*
X77812139Y-95361900D01*
X77789001Y-95420339D01*
X77773371Y-95481217D01*
X77765493Y-95543574D01*
X77765493Y-95606426D01*
X77773371Y-95668783D01*
X77789001Y-95729661D01*
X77812139Y-95788100D01*
X77842419Y-95843178D01*
X77879362Y-95894027D01*
X77922388Y-95939845D01*
X77970817Y-95979909D01*
X78023885Y-96013587D01*
X78080756Y-96040348D01*
X78140532Y-96059771D01*
X78202271Y-96071548D01*
X78265000Y-96075494D01*
X78327729Y-96071548D01*
X78389468Y-96059771D01*
X78449244Y-96040348D01*
X78506115Y-96013587D01*
X78559183Y-95979909D01*
X78607612Y-95939845D01*
X78650638Y-95894027D01*
X78687581Y-95843178D01*
X78717861Y-95788100D01*
X78740999Y-95729661D01*
X78756629Y-95668783D01*
X78764507Y-95606426D01*
X78765000Y-95575000D01*
X78764507Y-95543574D01*
X78756629Y-95481217D01*
X78740999Y-95420339D01*
X78717861Y-95361900D01*
X78687581Y-95306822D01*
X78650638Y-95255973D01*
X78607612Y-95210155D01*
X78559183Y-95170091D01*
X78506115Y-95136413D01*
X78449244Y-95109652D01*
X78419539Y-95100000D01*
X79310461Y-95100000D01*
X79280756Y-95109652D01*
X79223885Y-95136413D01*
X79170817Y-95170091D01*
X79122388Y-95210155D01*
X79079362Y-95255973D01*
X79042419Y-95306822D01*
X79012139Y-95361900D01*
X78989001Y-95420339D01*
X78973371Y-95481217D01*
X78965493Y-95543574D01*
X78965493Y-95606426D01*
X78973371Y-95668783D01*
X78989001Y-95729661D01*
X79012139Y-95788100D01*
X79042419Y-95843178D01*
X79079362Y-95894027D01*
X79122388Y-95939845D01*
X79170817Y-95979909D01*
X79223885Y-96013587D01*
X79280756Y-96040348D01*
X79340532Y-96059771D01*
X79390000Y-96069208D01*
X79390000Y-96480793D01*
X79340532Y-96490229D01*
X79280756Y-96509652D01*
X79223885Y-96536413D01*
X79170817Y-96570091D01*
X79122388Y-96610155D01*
X79079362Y-96655973D01*
X79042419Y-96706822D01*
X79012139Y-96761900D01*
X78989001Y-96820339D01*
X78973371Y-96881217D01*
X78965493Y-96943574D01*
X78965493Y-97006426D01*
X78973371Y-97068783D01*
X78989001Y-97129661D01*
X79012139Y-97188100D01*
X79042419Y-97243178D01*
X79079362Y-97294027D01*
X79122388Y-97339845D01*
X79170817Y-97379909D01*
X79223885Y-97413587D01*
X79280756Y-97440348D01*
X79340532Y-97459771D01*
X79390000Y-97469207D01*
X79390000Y-97880792D01*
X79340532Y-97890229D01*
X79280756Y-97909652D01*
X79223885Y-97936413D01*
X79170817Y-97970091D01*
X79122388Y-98010155D01*
X79079362Y-98055973D01*
X79042419Y-98106822D01*
X79012139Y-98161900D01*
X78989001Y-98220339D01*
X78973371Y-98281217D01*
X78965493Y-98343574D01*
X78965493Y-98406426D01*
X78973371Y-98468783D01*
X78989001Y-98529661D01*
X79012139Y-98588100D01*
X79042419Y-98643178D01*
X79079362Y-98694027D01*
X79122388Y-98739845D01*
X79170817Y-98779909D01*
X79223885Y-98813587D01*
X79280756Y-98840348D01*
X79310461Y-98850000D01*
X78419539Y-98850000D01*
X78449244Y-98840348D01*
X78506115Y-98813587D01*
X78559183Y-98779909D01*
X78607612Y-98739845D01*
X78650638Y-98694027D01*
X78687581Y-98643178D01*
X78717861Y-98588100D01*
X78740999Y-98529661D01*
X78756629Y-98468783D01*
X78764507Y-98406426D01*
X78765000Y-98375000D01*
X78764507Y-98343574D01*
X78756629Y-98281217D01*
X78740999Y-98220339D01*
X78717861Y-98161900D01*
X78687581Y-98106822D01*
X78650638Y-98055973D01*
X78607612Y-98010155D01*
X78559183Y-97970091D01*
X78506115Y-97936413D01*
X78449244Y-97909652D01*
X78389468Y-97890229D01*
X78327729Y-97878452D01*
X78265000Y-97874506D01*
X78202271Y-97878452D01*
X78140532Y-97890229D01*
X78080756Y-97909652D01*
X78023885Y-97936413D01*
X77970817Y-97970091D01*
X77922388Y-98010155D01*
X77879362Y-98055973D01*
X77842419Y-98106822D01*
X77812139Y-98161900D01*
X77789001Y-98220339D01*
X77773371Y-98281217D01*
X77765493Y-98343574D01*
X77765493Y-98406426D01*
X77773371Y-98468783D01*
X77789001Y-98529661D01*
X77812139Y-98588100D01*
X77842419Y-98643178D01*
X77879362Y-98694027D01*
X77922388Y-98739845D01*
X77970817Y-98779909D01*
X78023885Y-98813587D01*
X78080756Y-98840348D01*
X78110461Y-98850000D01*
X77219539Y-98850000D01*
X77249244Y-98840348D01*
X77306115Y-98813587D01*
X77359183Y-98779909D01*
X77407612Y-98739845D01*
X77450638Y-98694027D01*
X77487581Y-98643178D01*
X77517861Y-98588100D01*
X77540999Y-98529661D01*
X77556629Y-98468783D01*
X77564507Y-98406426D01*
X77565000Y-98375000D01*
X77564507Y-98343574D01*
X77556629Y-98281217D01*
X77540999Y-98220339D01*
X77517861Y-98161900D01*
X77487581Y-98106822D01*
X77450638Y-98055973D01*
X77407612Y-98010155D01*
X77359183Y-97970091D01*
X77306115Y-97936413D01*
X77249244Y-97909652D01*
X77189468Y-97890229D01*
X77127729Y-97878452D01*
X77065000Y-97874506D01*
X77002271Y-97878452D01*
X76940532Y-97890229D01*
X76880756Y-97909652D01*
X76823885Y-97936413D01*
X76770817Y-97970091D01*
X76722388Y-98010155D01*
X76679362Y-98055973D01*
X76642419Y-98106822D01*
X76640000Y-98111222D01*
X76640000Y-97238777D01*
X76642419Y-97243178D01*
X76679362Y-97294027D01*
X76722388Y-97339845D01*
X76770817Y-97379909D01*
X76823885Y-97413587D01*
X76880756Y-97440348D01*
X76940532Y-97459771D01*
X77002271Y-97471548D01*
X77065000Y-97475495D01*
X77127729Y-97471548D01*
X77189468Y-97459771D01*
X77249244Y-97440348D01*
X77306115Y-97413587D01*
X77359183Y-97379909D01*
X77407612Y-97339845D01*
X77450638Y-97294027D01*
X77487581Y-97243178D01*
X77517861Y-97188100D01*
X77540999Y-97129661D01*
X77556629Y-97068783D01*
X77564507Y-97006426D01*
X77765493Y-97006426D01*
X77773371Y-97068783D01*
X77789001Y-97129661D01*
X77812139Y-97188100D01*
X77842419Y-97243178D01*
X77879362Y-97294027D01*
X77922388Y-97339845D01*
X77970817Y-97379909D01*
X78023885Y-97413587D01*
X78080756Y-97440348D01*
X78140532Y-97459771D01*
X78202271Y-97471548D01*
X78265000Y-97475495D01*
X78327729Y-97471548D01*
X78389468Y-97459771D01*
X78449244Y-97440348D01*
X78506115Y-97413587D01*
X78559183Y-97379909D01*
X78607612Y-97339845D01*
X78650638Y-97294027D01*
X78687581Y-97243178D01*
X78717861Y-97188100D01*
X78740999Y-97129661D01*
X78756629Y-97068783D01*
X78764507Y-97006426D01*
X78765000Y-96975000D01*
X78764507Y-96943574D01*
X78756629Y-96881217D01*
X78740999Y-96820339D01*
X78717861Y-96761900D01*
X78687581Y-96706822D01*
X78650638Y-96655973D01*
X78607612Y-96610155D01*
X78559183Y-96570091D01*
X78506115Y-96536413D01*
X78449244Y-96509652D01*
X78389468Y-96490229D01*
X78327729Y-96478452D01*
X78265000Y-96474505D01*
X78202271Y-96478452D01*
X78140532Y-96490229D01*
X78080756Y-96509652D01*
X78023885Y-96536413D01*
X77970817Y-96570091D01*
X77922388Y-96610155D01*
X77879362Y-96655973D01*
X77842419Y-96706822D01*
X77812139Y-96761900D01*
X77789001Y-96820339D01*
X77773371Y-96881217D01*
X77765493Y-96943574D01*
X77765493Y-97006426D01*
X77564507Y-97006426D01*
X77565000Y-96975000D01*
X77564507Y-96943574D01*
X77556629Y-96881217D01*
X77540999Y-96820339D01*
X77517861Y-96761900D01*
X77487581Y-96706822D01*
X77450638Y-96655973D01*
X77407612Y-96610155D01*
X77359183Y-96570091D01*
X77306115Y-96536413D01*
X77249244Y-96509652D01*
X77189468Y-96490229D01*
X77127729Y-96478452D01*
X77065000Y-96474505D01*
X77002271Y-96478452D01*
X76940532Y-96490229D01*
X76880756Y-96509652D01*
X76823885Y-96536413D01*
X76770817Y-96570091D01*
X76722388Y-96610155D01*
X76679362Y-96655973D01*
X76642419Y-96706822D01*
X76640000Y-96711223D01*
X76640000Y-95838778D01*
X76642419Y-95843178D01*
X76679362Y-95894027D01*
X76722388Y-95939845D01*
X76770817Y-95979909D01*
X76823885Y-96013587D01*
X76880756Y-96040348D01*
X76940532Y-96059771D01*
X77002271Y-96071548D01*
X77065000Y-96075494D01*
X77127729Y-96071548D01*
X77189468Y-96059771D01*
X77249244Y-96040348D01*
X77306115Y-96013587D01*
X77359183Y-95979909D01*
X77407612Y-95939845D01*
X77450638Y-95894027D01*
X77487581Y-95843178D01*
X77517861Y-95788100D01*
X77540999Y-95729661D01*
X77556629Y-95668783D01*
X77564507Y-95606426D01*
X77565000Y-95575000D01*
X77564507Y-95543574D01*
X77556629Y-95481217D01*
X77540999Y-95420339D01*
X77517861Y-95361900D01*
X77487581Y-95306822D01*
X77450638Y-95255973D01*
X77407612Y-95210155D01*
X77359183Y-95170091D01*
X77306115Y-95136413D01*
X77249244Y-95109652D01*
X77219539Y-95100000D01*
X78110461Y-95100000D01*
X78080756Y-95109652D01*
G37*
%TO.C,L1*%
G36*
X56028572Y-106665000D02*
G01*
X57028572Y-106665000D01*
X57865000Y-106665000D01*
X57954931Y-106682888D01*
X58031170Y-106733830D01*
X58082112Y-106810069D01*
X58100000Y-106900000D01*
X58100000Y-108780000D01*
X58082112Y-108869931D01*
X58031170Y-108946170D01*
X57954931Y-108997112D01*
X57865000Y-109015000D01*
X54935000Y-109015000D01*
X54845069Y-108997112D01*
X54768830Y-108946170D01*
X54717888Y-108869931D01*
X54700000Y-108780000D01*
X54700000Y-108336428D01*
X55600509Y-108336428D01*
X55600509Y-108393572D01*
X55608642Y-108450135D01*
X55624741Y-108504964D01*
X55648480Y-108556944D01*
X55679374Y-108605017D01*
X55716796Y-108648204D01*
X55759983Y-108685626D01*
X55808056Y-108716520D01*
X55860036Y-108740259D01*
X55914865Y-108756358D01*
X55971428Y-108764491D01*
X56000000Y-108765000D01*
X56028572Y-108764491D01*
X56085135Y-108756358D01*
X56139964Y-108740259D01*
X56191944Y-108716520D01*
X56240017Y-108685626D01*
X56283204Y-108648204D01*
X56320626Y-108605017D01*
X56351520Y-108556944D01*
X56375259Y-108504964D01*
X56391358Y-108450135D01*
X56399491Y-108393572D01*
X56399491Y-108336428D01*
X56600509Y-108336428D01*
X56600509Y-108393572D01*
X56608642Y-108450135D01*
X56624741Y-108504964D01*
X56648480Y-108556944D01*
X56679374Y-108605017D01*
X56716796Y-108648204D01*
X56759983Y-108685626D01*
X56808056Y-108716520D01*
X56860036Y-108740259D01*
X56914865Y-108756358D01*
X56971428Y-108764491D01*
X57000000Y-108765000D01*
X57028572Y-108764491D01*
X57085135Y-108756358D01*
X57139964Y-108740259D01*
X57191944Y-108716520D01*
X57240017Y-108685626D01*
X57283204Y-108648204D01*
X57320626Y-108605017D01*
X57351520Y-108556944D01*
X57375259Y-108504964D01*
X57391358Y-108450135D01*
X57399491Y-108393572D01*
X57399491Y-108336428D01*
X57391358Y-108279865D01*
X57375259Y-108225036D01*
X57351520Y-108173056D01*
X57320626Y-108124983D01*
X57283204Y-108081796D01*
X57240017Y-108044374D01*
X57191944Y-108013480D01*
X57139964Y-107989741D01*
X57085135Y-107973642D01*
X57028572Y-107965509D01*
X56971428Y-107965509D01*
X56914865Y-107973642D01*
X56860036Y-107989741D01*
X56808056Y-108013480D01*
X56759983Y-108044374D01*
X56716796Y-108081796D01*
X56679374Y-108124983D01*
X56648480Y-108173056D01*
X56624741Y-108225036D01*
X56608642Y-108279865D01*
X56600509Y-108336428D01*
X56399491Y-108336428D01*
X56391358Y-108279865D01*
X56375259Y-108225036D01*
X56351520Y-108173056D01*
X56320626Y-108124983D01*
X56283204Y-108081796D01*
X56240017Y-108044374D01*
X56191944Y-108013480D01*
X56139964Y-107989741D01*
X56085135Y-107973642D01*
X56028572Y-107965509D01*
X55971428Y-107965509D01*
X55914865Y-107973642D01*
X55860036Y-107989741D01*
X55808056Y-108013480D01*
X55759983Y-108044374D01*
X55716796Y-108081796D01*
X55679374Y-108124983D01*
X55648480Y-108173056D01*
X55624741Y-108225036D01*
X55608642Y-108279865D01*
X55600509Y-108336428D01*
X54700000Y-108336428D01*
X54700000Y-107336428D01*
X55600509Y-107336428D01*
X55600509Y-107393572D01*
X55608642Y-107450135D01*
X55624741Y-107504964D01*
X55648480Y-107556944D01*
X55679374Y-107605017D01*
X55716796Y-107648204D01*
X55759983Y-107685626D01*
X55808056Y-107716520D01*
X55860036Y-107740259D01*
X55914865Y-107756358D01*
X55971428Y-107764491D01*
X56000000Y-107765000D01*
X56028572Y-107764491D01*
X56085135Y-107756358D01*
X56139964Y-107740259D01*
X56191944Y-107716520D01*
X56240017Y-107685626D01*
X56283204Y-107648204D01*
X56320626Y-107605017D01*
X56351520Y-107556944D01*
X56375259Y-107504964D01*
X56391358Y-107450135D01*
X56399491Y-107393572D01*
X56399491Y-107336428D01*
X56600509Y-107336428D01*
X56600509Y-107393572D01*
X56608642Y-107450135D01*
X56624741Y-107504964D01*
X56648480Y-107556944D01*
X56679374Y-107605017D01*
X56716796Y-107648204D01*
X56759983Y-107685626D01*
X56808056Y-107716520D01*
X56860036Y-107740259D01*
X56914865Y-107756358D01*
X56971428Y-107764491D01*
X57000000Y-107765000D01*
X57028572Y-107764491D01*
X57085135Y-107756358D01*
X57139964Y-107740259D01*
X57191944Y-107716520D01*
X57240017Y-107685626D01*
X57283204Y-107648204D01*
X57320626Y-107605017D01*
X57351520Y-107556944D01*
X57375259Y-107504964D01*
X57391358Y-107450135D01*
X57399491Y-107393572D01*
X57399491Y-107336428D01*
X57391358Y-107279865D01*
X57375259Y-107225036D01*
X57351520Y-107173056D01*
X57320626Y-107124983D01*
X57283204Y-107081796D01*
X57240017Y-107044374D01*
X57191944Y-107013480D01*
X57139964Y-106989741D01*
X57085135Y-106973642D01*
X57028572Y-106965509D01*
X56971428Y-106965509D01*
X56914865Y-106973642D01*
X56860036Y-106989741D01*
X56808056Y-107013480D01*
X56759983Y-107044374D01*
X56716796Y-107081796D01*
X56679374Y-107124983D01*
X56648480Y-107173056D01*
X56624741Y-107225036D01*
X56608642Y-107279865D01*
X56600509Y-107336428D01*
X56399491Y-107336428D01*
X56391358Y-107279865D01*
X56375259Y-107225036D01*
X56351520Y-107173056D01*
X56320626Y-107124983D01*
X56283204Y-107081796D01*
X56240017Y-107044374D01*
X56191944Y-107013480D01*
X56139964Y-106989741D01*
X56085135Y-106973642D01*
X56028572Y-106965509D01*
X55971428Y-106965509D01*
X55914865Y-106973642D01*
X55860036Y-106989741D01*
X55808056Y-107013480D01*
X55759983Y-107044374D01*
X55716796Y-107081796D01*
X55679374Y-107124983D01*
X55648480Y-107173056D01*
X55624741Y-107225036D01*
X55608642Y-107279865D01*
X55600509Y-107336428D01*
X54700000Y-107336428D01*
X54700000Y-106900000D01*
X54717888Y-106810069D01*
X54768830Y-106733830D01*
X54845069Y-106682888D01*
X54935000Y-106665000D01*
X56028572Y-106665000D01*
G37*
G36*
X56028572Y-112715000D02*
G01*
X57028572Y-112715000D01*
X57865000Y-112715000D01*
X57954931Y-112732888D01*
X58031170Y-112783830D01*
X58082112Y-112860069D01*
X58100000Y-112950000D01*
X58100000Y-114830000D01*
X58082112Y-114919931D01*
X58031170Y-114996170D01*
X57954931Y-115047112D01*
X57865000Y-115065000D01*
X54935000Y-115065000D01*
X54845069Y-115047112D01*
X54768830Y-114996170D01*
X54717888Y-114919931D01*
X54700000Y-114830000D01*
X54700000Y-114386428D01*
X55600509Y-114386428D01*
X55600509Y-114443572D01*
X55608642Y-114500135D01*
X55624741Y-114554964D01*
X55648480Y-114606944D01*
X55679374Y-114655017D01*
X55716796Y-114698204D01*
X55759983Y-114735626D01*
X55808056Y-114766520D01*
X55860036Y-114790259D01*
X55914865Y-114806358D01*
X55971428Y-114814491D01*
X56000000Y-114815000D01*
X56028572Y-114814491D01*
X56085135Y-114806358D01*
X56139964Y-114790259D01*
X56191944Y-114766520D01*
X56240017Y-114735626D01*
X56283204Y-114698204D01*
X56320626Y-114655017D01*
X56351520Y-114606944D01*
X56375259Y-114554964D01*
X56391358Y-114500135D01*
X56399491Y-114443572D01*
X56399491Y-114386428D01*
X56600509Y-114386428D01*
X56600509Y-114443572D01*
X56608642Y-114500135D01*
X56624741Y-114554964D01*
X56648480Y-114606944D01*
X56679374Y-114655017D01*
X56716796Y-114698204D01*
X56759983Y-114735626D01*
X56808056Y-114766520D01*
X56860036Y-114790259D01*
X56914865Y-114806358D01*
X56971428Y-114814491D01*
X57000000Y-114815000D01*
X57028572Y-114814491D01*
X57085135Y-114806358D01*
X57139964Y-114790259D01*
X57191944Y-114766520D01*
X57240017Y-114735626D01*
X57283204Y-114698204D01*
X57320626Y-114655017D01*
X57351520Y-114606944D01*
X57375259Y-114554964D01*
X57391358Y-114500135D01*
X57399491Y-114443572D01*
X57399491Y-114386428D01*
X57391358Y-114329865D01*
X57375259Y-114275036D01*
X57351520Y-114223056D01*
X57320626Y-114174983D01*
X57283204Y-114131796D01*
X57240017Y-114094374D01*
X57191944Y-114063480D01*
X57139964Y-114039741D01*
X57085135Y-114023642D01*
X57028572Y-114015509D01*
X56971428Y-114015509D01*
X56914865Y-114023642D01*
X56860036Y-114039741D01*
X56808056Y-114063480D01*
X56759983Y-114094374D01*
X56716796Y-114131796D01*
X56679374Y-114174983D01*
X56648480Y-114223056D01*
X56624741Y-114275036D01*
X56608642Y-114329865D01*
X56600509Y-114386428D01*
X56399491Y-114386428D01*
X56391358Y-114329865D01*
X56375259Y-114275036D01*
X56351520Y-114223056D01*
X56320626Y-114174983D01*
X56283204Y-114131796D01*
X56240017Y-114094374D01*
X56191944Y-114063480D01*
X56139964Y-114039741D01*
X56085135Y-114023642D01*
X56028572Y-114015509D01*
X55971428Y-114015509D01*
X55914865Y-114023642D01*
X55860036Y-114039741D01*
X55808056Y-114063480D01*
X55759983Y-114094374D01*
X55716796Y-114131796D01*
X55679374Y-114174983D01*
X55648480Y-114223056D01*
X55624741Y-114275036D01*
X55608642Y-114329865D01*
X55600509Y-114386428D01*
X54700000Y-114386428D01*
X54700000Y-113386428D01*
X55600509Y-113386428D01*
X55600509Y-113443572D01*
X55608642Y-113500135D01*
X55624741Y-113554964D01*
X55648480Y-113606944D01*
X55679374Y-113655017D01*
X55716796Y-113698204D01*
X55759983Y-113735626D01*
X55808056Y-113766520D01*
X55860036Y-113790259D01*
X55914865Y-113806358D01*
X55971428Y-113814491D01*
X56000000Y-113815000D01*
X56028572Y-113814491D01*
X56085135Y-113806358D01*
X56139964Y-113790259D01*
X56191944Y-113766520D01*
X56240017Y-113735626D01*
X56283204Y-113698204D01*
X56320626Y-113655017D01*
X56351520Y-113606944D01*
X56375259Y-113554964D01*
X56391358Y-113500135D01*
X56399491Y-113443572D01*
X56399491Y-113386428D01*
X56600509Y-113386428D01*
X56600509Y-113443572D01*
X56608642Y-113500135D01*
X56624741Y-113554964D01*
X56648480Y-113606944D01*
X56679374Y-113655017D01*
X56716796Y-113698204D01*
X56759983Y-113735626D01*
X56808056Y-113766520D01*
X56860036Y-113790259D01*
X56914865Y-113806358D01*
X56971428Y-113814491D01*
X57000000Y-113815000D01*
X57028572Y-113814491D01*
X57085135Y-113806358D01*
X57139964Y-113790259D01*
X57191944Y-113766520D01*
X57240017Y-113735626D01*
X57283204Y-113698204D01*
X57320626Y-113655017D01*
X57351520Y-113606944D01*
X57375259Y-113554964D01*
X57391358Y-113500135D01*
X57399491Y-113443572D01*
X57399491Y-113386428D01*
X57391358Y-113329865D01*
X57375259Y-113275036D01*
X57351520Y-113223056D01*
X57320626Y-113174983D01*
X57283204Y-113131796D01*
X57240017Y-113094374D01*
X57191944Y-113063480D01*
X57139964Y-113039741D01*
X57085135Y-113023642D01*
X57028572Y-113015509D01*
X56971428Y-113015509D01*
X56914865Y-113023642D01*
X56860036Y-113039741D01*
X56808056Y-113063480D01*
X56759983Y-113094374D01*
X56716796Y-113131796D01*
X56679374Y-113174983D01*
X56648480Y-113223056D01*
X56624741Y-113275036D01*
X56608642Y-113329865D01*
X56600509Y-113386428D01*
X56399491Y-113386428D01*
X56391358Y-113329865D01*
X56375259Y-113275036D01*
X56351520Y-113223056D01*
X56320626Y-113174983D01*
X56283204Y-113131796D01*
X56240017Y-113094374D01*
X56191944Y-113063480D01*
X56139964Y-113039741D01*
X56085135Y-113023642D01*
X56028572Y-113015509D01*
X55971428Y-113015509D01*
X55914865Y-113023642D01*
X55860036Y-113039741D01*
X55808056Y-113063480D01*
X55759983Y-113094374D01*
X55716796Y-113131796D01*
X55679374Y-113174983D01*
X55648480Y-113223056D01*
X55624741Y-113275036D01*
X55608642Y-113329865D01*
X55600509Y-113386428D01*
X54700000Y-113386428D01*
X54700000Y-112950000D01*
X54717888Y-112860069D01*
X54768830Y-112783830D01*
X54845069Y-112732888D01*
X54935000Y-112715000D01*
X56028572Y-112715000D01*
G37*
%TO.C,Q9*%
G36*
X27830000Y-117870000D02*
G01*
X27706727Y-117870000D01*
X27722581Y-117848178D01*
X27752861Y-117793100D01*
X27775999Y-117734661D01*
X27791629Y-117673783D01*
X27799507Y-117611426D01*
X27799507Y-117548574D01*
X27791629Y-117486217D01*
X27775999Y-117425339D01*
X27752861Y-117366900D01*
X27722581Y-117311822D01*
X27685638Y-117260973D01*
X27642612Y-117215155D01*
X27594183Y-117175091D01*
X27541115Y-117141413D01*
X27484244Y-117114652D01*
X27424468Y-117095229D01*
X27362729Y-117083452D01*
X27300000Y-117079506D01*
X27237271Y-117083452D01*
X27175532Y-117095229D01*
X27115756Y-117114652D01*
X27058885Y-117141413D01*
X27005817Y-117175091D01*
X26957388Y-117215155D01*
X26914362Y-117260973D01*
X26877419Y-117311822D01*
X26847139Y-117366900D01*
X26824001Y-117425339D01*
X26808371Y-117486217D01*
X26800493Y-117548574D01*
X26800000Y-117580000D01*
X26800493Y-117611426D01*
X26808371Y-117673783D01*
X26824001Y-117734661D01*
X26847139Y-117793100D01*
X26877419Y-117848178D01*
X26893273Y-117870000D01*
X25206727Y-117870000D01*
X25222581Y-117848178D01*
X25252861Y-117793100D01*
X25275999Y-117734661D01*
X25291629Y-117673783D01*
X25299507Y-117611426D01*
X25299507Y-117548574D01*
X25291629Y-117486217D01*
X25275999Y-117425339D01*
X25252861Y-117366900D01*
X25222581Y-117311822D01*
X25185638Y-117260973D01*
X25142612Y-117215155D01*
X25094183Y-117175091D01*
X25041115Y-117141413D01*
X24984244Y-117114652D01*
X24924468Y-117095229D01*
X24862729Y-117083452D01*
X24800000Y-117079506D01*
X24737271Y-117083452D01*
X24675532Y-117095229D01*
X24615756Y-117114652D01*
X24558885Y-117141413D01*
X24505817Y-117175091D01*
X24457388Y-117215155D01*
X24414362Y-117260973D01*
X24377419Y-117311822D01*
X24347139Y-117366900D01*
X24324001Y-117425339D01*
X24308371Y-117486217D01*
X24300493Y-117548574D01*
X24300000Y-117580000D01*
X24300493Y-117611426D01*
X24308371Y-117673783D01*
X24324001Y-117734661D01*
X24347139Y-117793100D01*
X24377419Y-117848178D01*
X24393273Y-117870000D01*
X22706727Y-117870000D01*
X22722581Y-117848178D01*
X22752861Y-117793100D01*
X22775999Y-117734661D01*
X22791629Y-117673783D01*
X22799507Y-117611426D01*
X22799507Y-117548574D01*
X22791629Y-117486217D01*
X22775999Y-117425339D01*
X22752861Y-117366900D01*
X22722581Y-117311822D01*
X22685638Y-117260973D01*
X22642612Y-117215155D01*
X22594183Y-117175091D01*
X22541115Y-117141413D01*
X22484244Y-117114652D01*
X22424468Y-117095229D01*
X22362729Y-117083452D01*
X22300000Y-117079506D01*
X22237271Y-117083452D01*
X22175532Y-117095229D01*
X22115756Y-117114652D01*
X22058885Y-117141413D01*
X22005817Y-117175091D01*
X21957388Y-117215155D01*
X21914362Y-117260973D01*
X21877419Y-117311822D01*
X21847139Y-117366900D01*
X21824001Y-117425339D01*
X21808371Y-117486217D01*
X21800493Y-117548574D01*
X21800000Y-117580000D01*
X21800493Y-117611426D01*
X21808371Y-117673783D01*
X21824001Y-117734661D01*
X21847139Y-117793100D01*
X21877419Y-117848178D01*
X21893273Y-117870000D01*
X21770000Y-117870000D01*
X21770000Y-115080000D01*
X21800000Y-115080000D01*
X21800493Y-115111426D01*
X21808371Y-115173783D01*
X21824001Y-115234661D01*
X21847139Y-115293100D01*
X21877419Y-115348178D01*
X21914362Y-115399027D01*
X21957388Y-115444845D01*
X22005817Y-115484909D01*
X22058885Y-115518587D01*
X22115756Y-115545348D01*
X22175532Y-115564771D01*
X22237271Y-115576548D01*
X22300000Y-115580495D01*
X22362729Y-115576548D01*
X22424468Y-115564771D01*
X22484244Y-115545348D01*
X22541115Y-115518587D01*
X22594183Y-115484909D01*
X22642612Y-115444845D01*
X22685638Y-115399027D01*
X22722581Y-115348178D01*
X22752861Y-115293100D01*
X22775999Y-115234661D01*
X22791629Y-115173783D01*
X22799507Y-115111426D01*
X22799507Y-115080000D01*
X24300000Y-115080000D01*
X24300493Y-115111426D01*
X24308371Y-115173783D01*
X24324001Y-115234661D01*
X24347139Y-115293100D01*
X24377419Y-115348178D01*
X24414362Y-115399027D01*
X24457388Y-115444845D01*
X24505817Y-115484909D01*
X24558885Y-115518587D01*
X24615756Y-115545348D01*
X24675532Y-115564771D01*
X24737271Y-115576548D01*
X24800000Y-115580495D01*
X24862729Y-115576548D01*
X24924468Y-115564771D01*
X24984244Y-115545348D01*
X25041115Y-115518587D01*
X25094183Y-115484909D01*
X25142612Y-115444845D01*
X25185638Y-115399027D01*
X25222581Y-115348178D01*
X25252861Y-115293100D01*
X25275999Y-115234661D01*
X25291629Y-115173783D01*
X25299507Y-115111426D01*
X25299507Y-115080000D01*
X26800000Y-115080000D01*
X26800493Y-115111426D01*
X26808371Y-115173783D01*
X26824001Y-115234661D01*
X26847139Y-115293100D01*
X26877419Y-115348178D01*
X26914362Y-115399027D01*
X26957388Y-115444845D01*
X27005817Y-115484909D01*
X27058885Y-115518587D01*
X27115756Y-115545348D01*
X27175532Y-115564771D01*
X27237271Y-115576548D01*
X27300000Y-115580495D01*
X27362729Y-115576548D01*
X27424468Y-115564771D01*
X27484244Y-115545348D01*
X27541115Y-115518587D01*
X27594183Y-115484909D01*
X27642612Y-115444845D01*
X27685638Y-115399027D01*
X27722581Y-115348178D01*
X27752861Y-115293100D01*
X27775999Y-115234661D01*
X27791629Y-115173783D01*
X27799507Y-115111426D01*
X27799507Y-115048574D01*
X27791629Y-114986217D01*
X27775999Y-114925339D01*
X27752861Y-114866900D01*
X27722581Y-114811822D01*
X27685638Y-114760973D01*
X27642612Y-114715155D01*
X27594183Y-114675091D01*
X27541115Y-114641413D01*
X27484244Y-114614652D01*
X27424468Y-114595229D01*
X27362729Y-114583452D01*
X27300000Y-114579505D01*
X27237271Y-114583452D01*
X27175532Y-114595229D01*
X27115756Y-114614652D01*
X27058885Y-114641413D01*
X27005817Y-114675091D01*
X26957388Y-114715155D01*
X26914362Y-114760973D01*
X26877419Y-114811822D01*
X26847139Y-114866900D01*
X26824001Y-114925339D01*
X26808371Y-114986217D01*
X26800493Y-115048574D01*
X26800000Y-115080000D01*
X25299507Y-115080000D01*
X25299507Y-115048574D01*
X25291629Y-114986217D01*
X25275999Y-114925339D01*
X25252861Y-114866900D01*
X25222581Y-114811822D01*
X25185638Y-114760973D01*
X25142612Y-114715155D01*
X25094183Y-114675091D01*
X25041115Y-114641413D01*
X24984244Y-114614652D01*
X24924468Y-114595229D01*
X24862729Y-114583452D01*
X24800000Y-114579505D01*
X24737271Y-114583452D01*
X24675532Y-114595229D01*
X24615756Y-114614652D01*
X24558885Y-114641413D01*
X24505817Y-114675091D01*
X24457388Y-114715155D01*
X24414362Y-114760973D01*
X24377419Y-114811822D01*
X24347139Y-114866900D01*
X24324001Y-114925339D01*
X24308371Y-114986217D01*
X24300493Y-115048574D01*
X24300000Y-115080000D01*
X22799507Y-115080000D01*
X22799507Y-115048574D01*
X22791629Y-114986217D01*
X22775999Y-114925339D01*
X22752861Y-114866900D01*
X22722581Y-114811822D01*
X22685638Y-114760973D01*
X22642612Y-114715155D01*
X22594183Y-114675091D01*
X22541115Y-114641413D01*
X22484244Y-114614652D01*
X22424468Y-114595229D01*
X22362729Y-114583452D01*
X22300000Y-114579505D01*
X22237271Y-114583452D01*
X22175532Y-114595229D01*
X22115756Y-114614652D01*
X22058885Y-114641413D01*
X22005817Y-114675091D01*
X21957388Y-114715155D01*
X21914362Y-114760973D01*
X21877419Y-114811822D01*
X21847139Y-114866900D01*
X21824001Y-114925339D01*
X21808371Y-114986217D01*
X21800493Y-115048574D01*
X21800000Y-115080000D01*
X21770000Y-115080000D01*
X21770000Y-112290000D01*
X21893273Y-112290000D01*
X21877419Y-112311822D01*
X21847139Y-112366900D01*
X21824001Y-112425339D01*
X21808371Y-112486217D01*
X21800493Y-112548574D01*
X21800000Y-112580000D01*
X21800493Y-112611426D01*
X21808371Y-112673783D01*
X21824001Y-112734661D01*
X21847139Y-112793100D01*
X21877419Y-112848178D01*
X21914362Y-112899027D01*
X21957388Y-112944845D01*
X22005817Y-112984909D01*
X22058885Y-113018587D01*
X22115756Y-113045348D01*
X22175532Y-113064771D01*
X22237271Y-113076548D01*
X22300000Y-113080494D01*
X22362729Y-113076548D01*
X22424468Y-113064771D01*
X22484244Y-113045348D01*
X22541115Y-113018587D01*
X22594183Y-112984909D01*
X22642612Y-112944845D01*
X22685638Y-112899027D01*
X22722581Y-112848178D01*
X22752861Y-112793100D01*
X22775999Y-112734661D01*
X22791629Y-112673783D01*
X22799507Y-112611426D01*
X22799507Y-112548574D01*
X22791629Y-112486217D01*
X22775999Y-112425339D01*
X22752861Y-112366900D01*
X22722581Y-112311822D01*
X22706727Y-112290000D01*
X24393273Y-112290000D01*
X24377419Y-112311822D01*
X24347139Y-112366900D01*
X24324001Y-112425339D01*
X24308371Y-112486217D01*
X24300493Y-112548574D01*
X24300000Y-112580000D01*
X24300493Y-112611426D01*
X24308371Y-112673783D01*
X24324001Y-112734661D01*
X24347139Y-112793100D01*
X24377419Y-112848178D01*
X24414362Y-112899027D01*
X24457388Y-112944845D01*
X24505817Y-112984909D01*
X24558885Y-113018587D01*
X24615756Y-113045348D01*
X24675532Y-113064771D01*
X24737271Y-113076548D01*
X24800000Y-113080494D01*
X24862729Y-113076548D01*
X24924468Y-113064771D01*
X24984244Y-113045348D01*
X25041115Y-113018587D01*
X25094183Y-112984909D01*
X25142612Y-112944845D01*
X25185638Y-112899027D01*
X25222581Y-112848178D01*
X25252861Y-112793100D01*
X25275999Y-112734661D01*
X25291629Y-112673783D01*
X25299507Y-112611426D01*
X25299507Y-112548574D01*
X25291629Y-112486217D01*
X25275999Y-112425339D01*
X25252861Y-112366900D01*
X25222581Y-112311822D01*
X25206727Y-112290000D01*
X26893273Y-112290000D01*
X26877419Y-112311822D01*
X26847139Y-112366900D01*
X26824001Y-112425339D01*
X26808371Y-112486217D01*
X26800493Y-112548574D01*
X26800000Y-112580000D01*
X26800493Y-112611426D01*
X26808371Y-112673783D01*
X26824001Y-112734661D01*
X26847139Y-112793100D01*
X26877419Y-112848178D01*
X26914362Y-112899027D01*
X26957388Y-112944845D01*
X27005817Y-112984909D01*
X27058885Y-113018587D01*
X27115756Y-113045348D01*
X27175532Y-113064771D01*
X27237271Y-113076548D01*
X27300000Y-113080494D01*
X27362729Y-113076548D01*
X27424468Y-113064771D01*
X27484244Y-113045348D01*
X27541115Y-113018587D01*
X27594183Y-112984909D01*
X27642612Y-112944845D01*
X27685638Y-112899027D01*
X27722581Y-112848178D01*
X27752861Y-112793100D01*
X27775999Y-112734661D01*
X27791629Y-112673783D01*
X27799507Y-112611426D01*
X27799507Y-112548574D01*
X27791629Y-112486217D01*
X27775999Y-112425339D01*
X27752861Y-112366900D01*
X27722581Y-112311822D01*
X27706727Y-112290000D01*
X27830000Y-112290000D01*
X27830000Y-115111426D01*
X27830000Y-117870000D01*
G37*
D11*
%TO.C,U1*%
X61226607Y-105340004D02*
X61269794Y-105377426D01*
X61317867Y-105408320D01*
X61369847Y-105432059D01*
X61424676Y-105448158D01*
X61481239Y-105456291D01*
X61538383Y-105456291D01*
X61594946Y-105448158D01*
X61649775Y-105432059D01*
X61701755Y-105408320D01*
X61749828Y-105377426D01*
X61793015Y-105340004D01*
X61830437Y-105296817D01*
X61861331Y-105248744D01*
X61885070Y-105196764D01*
X61901169Y-105141935D01*
X61909302Y-105085372D01*
X61909302Y-105028228D01*
X61901169Y-104971665D01*
X61885070Y-104916836D01*
X61861331Y-104864856D01*
X61830437Y-104816783D01*
X61793015Y-104773596D01*
X61749828Y-104736174D01*
X61735242Y-104726800D01*
X62284380Y-104726800D01*
X62269794Y-104736174D01*
X62226607Y-104773596D01*
X62189185Y-104816783D01*
X62158291Y-104864856D01*
X62134552Y-104916836D01*
X62118453Y-104971665D01*
X62110320Y-105028228D01*
X62110320Y-105085372D01*
X62118453Y-105141935D01*
X62134552Y-105196764D01*
X62158291Y-105248744D01*
X62189185Y-105296817D01*
X62226607Y-105340004D01*
X62269794Y-105377426D01*
X62317867Y-105408320D01*
X62369847Y-105432059D01*
X62424676Y-105448158D01*
X62481239Y-105456291D01*
X62538383Y-105456291D01*
X62594946Y-105448158D01*
X62649775Y-105432059D01*
X62701755Y-105408320D01*
X62749828Y-105377426D01*
X62793015Y-105340004D01*
X62830437Y-105296817D01*
X62839811Y-105282230D01*
X62839811Y-105831370D01*
X62830437Y-105816783D01*
X62793015Y-105773596D01*
X62749828Y-105736174D01*
X62701755Y-105705280D01*
X62649775Y-105681541D01*
X62594946Y-105665442D01*
X62538383Y-105657309D01*
X62509811Y-105656800D01*
X62481239Y-105657309D01*
X62424676Y-105665442D01*
X62369847Y-105681541D01*
X62317867Y-105705280D01*
X62269794Y-105736174D01*
X62226607Y-105773596D01*
X62189185Y-105816783D01*
X62158291Y-105864856D01*
X62134552Y-105916836D01*
X62118453Y-105971665D01*
X62110320Y-106028228D01*
X62110320Y-106085372D01*
X62118453Y-106141935D01*
X62134552Y-106196764D01*
X62158291Y-106248744D01*
X62189185Y-106296817D01*
X62226607Y-106340004D01*
X62269794Y-106377426D01*
X62284380Y-106386800D01*
X61735242Y-106386800D01*
X61749828Y-106377426D01*
X61793015Y-106340004D01*
X61830437Y-106296817D01*
X61861331Y-106248744D01*
X61885070Y-106196764D01*
X61901169Y-106141935D01*
X61909302Y-106085372D01*
X61909302Y-106028228D01*
X61901169Y-105971665D01*
X61885070Y-105916836D01*
X61861331Y-105864856D01*
X61830437Y-105816783D01*
X61793015Y-105773596D01*
X61749828Y-105736174D01*
X61701755Y-105705280D01*
X61649775Y-105681541D01*
X61594946Y-105665442D01*
X61538383Y-105657309D01*
X61509811Y-105656800D01*
X61481239Y-105657309D01*
X61424676Y-105665442D01*
X61369847Y-105681541D01*
X61317867Y-105705280D01*
X61269794Y-105736174D01*
X61226607Y-105773596D01*
X61189812Y-105816059D01*
X61189812Y-105297541D01*
X61226607Y-105340004D01*
G36*
X62269794Y-104736174D02*
G01*
X62226607Y-104773596D01*
X62189185Y-104816783D01*
X62158291Y-104864856D01*
X62134552Y-104916836D01*
X62118453Y-104971665D01*
X62110320Y-105028228D01*
X62110320Y-105085372D01*
X62118453Y-105141935D01*
X62134552Y-105196764D01*
X62158291Y-105248744D01*
X62189185Y-105296817D01*
X62226607Y-105340004D01*
X62269794Y-105377426D01*
X62317867Y-105408320D01*
X62369847Y-105432059D01*
X62424676Y-105448158D01*
X62481239Y-105456291D01*
X62538383Y-105456291D01*
X62594946Y-105448158D01*
X62649775Y-105432059D01*
X62701755Y-105408320D01*
X62749828Y-105377426D01*
X62793015Y-105340004D01*
X62830437Y-105296817D01*
X62839811Y-105282230D01*
X62839811Y-105831370D01*
X62830437Y-105816783D01*
X62793015Y-105773596D01*
X62749828Y-105736174D01*
X62701755Y-105705280D01*
X62649775Y-105681541D01*
X62594946Y-105665442D01*
X62538383Y-105657309D01*
X62509811Y-105656800D01*
X62481239Y-105657309D01*
X62424676Y-105665442D01*
X62369847Y-105681541D01*
X62317867Y-105705280D01*
X62269794Y-105736174D01*
X62226607Y-105773596D01*
X62189185Y-105816783D01*
X62158291Y-105864856D01*
X62134552Y-105916836D01*
X62118453Y-105971665D01*
X62110320Y-106028228D01*
X62110320Y-106085372D01*
X62118453Y-106141935D01*
X62134552Y-106196764D01*
X62158291Y-106248744D01*
X62189185Y-106296817D01*
X62226607Y-106340004D01*
X62269794Y-106377426D01*
X62284380Y-106386800D01*
X61735242Y-106386800D01*
X61749828Y-106377426D01*
X61793015Y-106340004D01*
X61830437Y-106296817D01*
X61861331Y-106248744D01*
X61885070Y-106196764D01*
X61901169Y-106141935D01*
X61909302Y-106085372D01*
X61909302Y-106028228D01*
X61901169Y-105971665D01*
X61885070Y-105916836D01*
X61861331Y-105864856D01*
X61830437Y-105816783D01*
X61793015Y-105773596D01*
X61749828Y-105736174D01*
X61701755Y-105705280D01*
X61649775Y-105681541D01*
X61594946Y-105665442D01*
X61538383Y-105657309D01*
X61509811Y-105656800D01*
X61481239Y-105657309D01*
X61424676Y-105665442D01*
X61369847Y-105681541D01*
X61317867Y-105705280D01*
X61269794Y-105736174D01*
X61226607Y-105773596D01*
X61189812Y-105816059D01*
X61189812Y-105297541D01*
X61226607Y-105340004D01*
X61269794Y-105377426D01*
X61317867Y-105408320D01*
X61369847Y-105432059D01*
X61424676Y-105448158D01*
X61481239Y-105456291D01*
X61538383Y-105456291D01*
X61594946Y-105448158D01*
X61649775Y-105432059D01*
X61701755Y-105408320D01*
X61749828Y-105377426D01*
X61793015Y-105340004D01*
X61830437Y-105296817D01*
X61861331Y-105248744D01*
X61885070Y-105196764D01*
X61901169Y-105141935D01*
X61909302Y-105085372D01*
X61909302Y-105028228D01*
X61901169Y-104971665D01*
X61885070Y-104916836D01*
X61861331Y-104864856D01*
X61830437Y-104816783D01*
X61793015Y-104773596D01*
X61749828Y-104736174D01*
X61735242Y-104726800D01*
X62284380Y-104726800D01*
X62269794Y-104736174D01*
G37*
%TD*%
D12*
%TO.C,R80*%
X76700000Y-153900000D03*
X78350000Y-153900000D03*
%TD*%
D13*
%TO.C,R45*%
X106070000Y-119570000D03*
X105050000Y-119570000D03*
%TD*%
D14*
%TO.C,SW2*%
X68354800Y-131200000D03*
X72825200Y-131200000D03*
%TD*%
D15*
%TO.C,R16*%
X70535000Y-108420000D03*
X70535000Y-109440000D03*
%TD*%
D16*
%TO.C,D1*%
X72250000Y-96350000D03*
X67950000Y-96350000D03*
%TD*%
D17*
%TO.C,R104*%
X94570000Y-110415000D03*
X94570000Y-109395000D03*
%TD*%
D18*
%TO.C,R56*%
X64895000Y-120130000D03*
X63245000Y-120130000D03*
%TD*%
D17*
%TO.C,R20*%
X75030000Y-130150000D03*
X75030000Y-129130000D03*
%TD*%
D15*
%TO.C,R88*%
X95450350Y-152850000D03*
X95450350Y-153870000D03*
%TD*%
D19*
%TO.C,C82*%
X88890350Y-157365000D03*
X87930350Y-157365000D03*
%TD*%
D20*
%TO.C,U16*%
X90925000Y-111410000D03*
X92855000Y-111410000D03*
X92855000Y-110400000D03*
X90925000Y-110400000D03*
%TD*%
D12*
%TO.C,R1*%
X60390000Y-102060000D03*
X62040000Y-102060000D03*
%TD*%
D21*
%TO.C,C26*%
X30247449Y-105692142D03*
X30247449Y-108642142D03*
%TD*%
D17*
%TO.C,R93*%
X99040350Y-159940000D03*
X99040350Y-158920000D03*
%TD*%
D21*
%TO.C,C18*%
X43393368Y-105695714D03*
X43393368Y-108645714D03*
%TD*%
D17*
%TO.C,R53*%
X35614901Y-172614300D03*
X35614901Y-171594300D03*
%TD*%
D22*
%TO.C,R50*%
X103450000Y-166180000D03*
X104470000Y-166180000D03*
%TD*%
D23*
%TO.C,C2*%
X67110000Y-103180000D03*
X67110000Y-101630000D03*
%TD*%
D24*
%TO.C,C7*%
X92125000Y-133750000D03*
X90575000Y-133750000D03*
%TD*%
D25*
%TO.C,C11*%
X60210000Y-100440000D03*
X60210000Y-98540000D03*
%TD*%
D19*
%TO.C,C40*%
X88030000Y-94780000D03*
X87070000Y-94780000D03*
%TD*%
D26*
%TO.C,C57*%
X61270000Y-136650000D03*
X61270000Y-138550000D03*
%TD*%
D22*
%TO.C,R14*%
X105950000Y-93500000D03*
X106970000Y-93500000D03*
%TD*%
D21*
%TO.C,C16*%
X48651735Y-105699285D03*
X48651735Y-108649285D03*
%TD*%
D27*
%TO.C,U11*%
X77250001Y-155809616D03*
X76600000Y-155809616D03*
X75950001Y-155809616D03*
X75300000Y-155809616D03*
X74649999Y-155809616D03*
X74000000Y-155809616D03*
X73349999Y-155809616D03*
X73349999Y-161560384D03*
X74000000Y-161560384D03*
X74649999Y-161560384D03*
X75300000Y-161560384D03*
X75950001Y-161560384D03*
X76600000Y-161560384D03*
X77250001Y-161560384D03*
%TD*%
D28*
%TO.C,U14*%
X81529850Y-158695000D03*
X81529850Y-159645001D03*
X81529850Y-160595002D03*
X84260350Y-160595002D03*
X84260350Y-159645001D03*
X84260350Y-158695000D03*
%TD*%
D29*
%TO.C,C44*%
X78560000Y-132240000D03*
X78560000Y-133200000D03*
%TD*%
D15*
%TO.C,R39*%
X83340000Y-136950000D03*
X83340000Y-137970000D03*
%TD*%
%TO.C,R78*%
X75510000Y-153220000D03*
X75510000Y-154240000D03*
%TD*%
D22*
%TO.C,R44*%
X103110000Y-119570000D03*
X104130000Y-119570000D03*
%TD*%
D30*
%TO.C,U6*%
X37620000Y-125945000D03*
X37620000Y-127215000D03*
X37620000Y-128485000D03*
X37620000Y-129755000D03*
X42570000Y-129755000D03*
X42570000Y-128485000D03*
X42570000Y-127215000D03*
X42570000Y-125945000D03*
%TD*%
D17*
%TO.C,R58*%
X34780000Y-129495000D03*
X34780000Y-128475000D03*
%TD*%
D31*
%TO.C,C28*%
X90080000Y-128730000D03*
X90080000Y-129760000D03*
%TD*%
D32*
%TO.C,C15*%
X44867449Y-102065042D03*
X44867449Y-93759242D03*
%TD*%
D15*
%TO.C,R89*%
X85386667Y-137803333D03*
X85386667Y-138823333D03*
%TD*%
%TO.C,R22*%
X92890000Y-120690000D03*
X92890000Y-121710000D03*
%TD*%
D33*
%TO.C,R33*%
X69210000Y-117370000D03*
X69210000Y-119370000D03*
%TD*%
D17*
%TO.C,R49*%
X86875000Y-97727500D03*
X86875000Y-96707500D03*
%TD*%
D34*
%TO.C,Q8*%
X62150000Y-123815000D03*
X64050000Y-123815000D03*
X63100000Y-121940000D03*
%TD*%
D35*
%TO.C,C81*%
X86390350Y-163065000D03*
X86390350Y-160115000D03*
%TD*%
D34*
%TO.C,Q5*%
X87040000Y-100090000D03*
X88940000Y-100090000D03*
X87990000Y-98215000D03*
%TD*%
D36*
%TO.C,C45*%
X76300000Y-121930000D03*
X76300000Y-120970000D03*
%TD*%
D37*
%TO.C,U2*%
X83170000Y-114680000D03*
X83170000Y-112380000D03*
D38*
X76870000Y-112380000D03*
D37*
X83170000Y-110080000D03*
%TD*%
D15*
%TO.C,R36*%
X106050000Y-133590000D03*
X106050000Y-134610000D03*
%TD*%
D21*
%TO.C,C17*%
X46022551Y-105699285D03*
X46022551Y-108649285D03*
%TD*%
D19*
%TO.C,C52*%
X35760000Y-130475000D03*
X34800000Y-130475000D03*
%TD*%
D36*
%TO.C,C10*%
X73350000Y-100280000D03*
X73350000Y-99320000D03*
%TD*%
D39*
%TO.C,U4*%
X103080000Y-161645000D03*
X104030000Y-161645000D03*
X104980000Y-161645000D03*
X104980000Y-159370000D03*
X104030000Y-159370000D03*
X103080000Y-159370000D03*
%TD*%
D34*
%TO.C,Q4*%
X91130000Y-98085000D03*
X93030000Y-98085000D03*
X92080000Y-96210000D03*
%TD*%
D17*
%TO.C,R18*%
X97170000Y-95010000D03*
X97170000Y-93990000D03*
%TD*%
D40*
%TO.C,D12*%
X76700400Y-146500000D03*
X70299600Y-146500000D03*
%TD*%
D41*
%TO.C,C86*%
X99075000Y-115525000D03*
X100625000Y-115525000D03*
%TD*%
D21*
%TO.C,C59*%
X57750000Y-137815000D03*
X57750000Y-140765000D03*
%TD*%
D13*
%TO.C,R59*%
X34770000Y-126995000D03*
X33750000Y-126995000D03*
%TD*%
D15*
%TO.C,R27*%
X88000000Y-132880000D03*
X88000000Y-133900000D03*
%TD*%
%TO.C,R94*%
X97890350Y-158920000D03*
X97890350Y-159940000D03*
%TD*%
D21*
%TO.C,C23*%
X32876633Y-105702857D03*
X32876633Y-108652857D03*
%TD*%
D22*
%TO.C,R47*%
X64100000Y-129650000D03*
X65120000Y-129650000D03*
%TD*%
D42*
%TO.C,C84*%
X90850000Y-113785000D03*
X92750000Y-113785000D03*
%TD*%
D43*
%TO.C,D6*%
X73100000Y-107177500D03*
X73100000Y-105602500D03*
%TD*%
D26*
%TO.C,C51*%
X61190000Y-119090000D03*
X61190000Y-120990000D03*
%TD*%
D44*
%TO.C,Q1*%
X69045000Y-92950000D03*
X69045000Y-91680000D03*
X69045000Y-90410000D03*
X69045000Y-89140000D03*
D45*
X74770000Y-92950000D03*
X74770000Y-91680000D03*
X74770000Y-90410000D03*
X74770000Y-89140000D03*
%TD*%
D17*
%TO.C,R60*%
X35780000Y-126995000D03*
X35780000Y-125975000D03*
%TD*%
D34*
%TO.C,D14*%
X90330000Y-147260000D03*
X92230000Y-147260000D03*
X91280000Y-145385000D03*
%TD*%
D13*
%TO.C,R21*%
X91860000Y-131350000D03*
X90840000Y-131350000D03*
%TD*%
%TO.C,R28*%
X90740000Y-107380000D03*
X89720000Y-107380000D03*
%TD*%
D22*
%TO.C,R85*%
X76720000Y-163390000D03*
X77740000Y-163390000D03*
%TD*%
D46*
%TO.C,D2*%
X52260000Y-104370000D03*
%TD*%
D17*
%TO.C,R91*%
X88270000Y-149410000D03*
X88270000Y-148390000D03*
%TD*%
D21*
%TO.C,C21*%
X35505816Y-105706428D03*
X35505816Y-108656428D03*
%TD*%
D15*
%TO.C,R13*%
X72300000Y-99340000D03*
X72300000Y-100360000D03*
%TD*%
D13*
%TO.C,R10*%
X77210000Y-89140000D03*
X76190000Y-89140000D03*
%TD*%
D46*
%TO.C,D8*%
X84800000Y-170320000D03*
X88800000Y-170320000D03*
%TD*%
D44*
%TO.C,Q3*%
X80515000Y-95070000D03*
X80515000Y-96340000D03*
X80515000Y-97610000D03*
X80515000Y-98880000D03*
D47*
X74790000Y-95070000D03*
X74790000Y-96340000D03*
X74790000Y-97610000D03*
X74790000Y-98880000D03*
%TD*%
D48*
%TO.C,Y1*%
X69977500Y-125037500D03*
X69977500Y-127237500D03*
X71677500Y-127237500D03*
X71677500Y-125037500D03*
%TD*%
D42*
%TO.C,C6*%
X63290000Y-100260000D03*
X65190000Y-100260000D03*
%TD*%
D49*
%TO.C,FB2*%
X102854250Y-149685000D03*
X101279250Y-149685000D03*
%TD*%
D26*
%TO.C,C50*%
X44930000Y-126140000D03*
X44930000Y-128040000D03*
%TD*%
D50*
%TO.C,D3*%
X105955000Y-91840000D03*
X107830000Y-91840000D03*
%TD*%
D17*
%TO.C,R87*%
X90730350Y-152605000D03*
X90730350Y-151585000D03*
%TD*%
D15*
%TO.C,R48*%
X92080000Y-93680000D03*
X92080000Y-94700000D03*
%TD*%
%TO.C,R86*%
X84360000Y-136990000D03*
X84360000Y-138010000D03*
%TD*%
D39*
%TO.C,U17*%
X97800000Y-111635000D03*
X98750000Y-111635000D03*
X99700000Y-111635000D03*
X99700000Y-109360000D03*
X97800000Y-109360000D03*
%TD*%
D51*
%TO.C,C71*%
X69320000Y-161575000D03*
X69320000Y-163125000D03*
%TD*%
D29*
%TO.C,C34*%
X83040000Y-133680000D03*
X83040000Y-134640000D03*
%TD*%
D52*
%TO.C,D9*%
X36600000Y-166000000D03*
X32600000Y-166000000D03*
%TD*%
D29*
%TO.C,C42*%
X82050000Y-133770000D03*
X82050000Y-134730000D03*
%TD*%
D43*
%TO.C,D5*%
X70535000Y-107177500D03*
X70535000Y-105602500D03*
%TD*%
D19*
%TO.C,C46*%
X114430000Y-120230000D03*
X113470000Y-120230000D03*
%TD*%
D21*
%TO.C,C63*%
X38720000Y-155735000D03*
X38720000Y-158685000D03*
%TD*%
D53*
%TO.C,R74*%
X50175000Y-146480000D03*
X44250000Y-146480000D03*
%TD*%
D22*
%TO.C,R77*%
X60450000Y-146570000D03*
X61470000Y-146570000D03*
%TD*%
%TO.C,R25*%
X89880000Y-104280000D03*
X90900000Y-104280000D03*
%TD*%
D25*
%TO.C,C72*%
X82450350Y-153950000D03*
X82450350Y-152050000D03*
%TD*%
D15*
%TO.C,R69*%
X65300000Y-134460000D03*
X65300000Y-135480000D03*
%TD*%
D13*
%TO.C,R99*%
X89070350Y-158505000D03*
X88050350Y-158505000D03*
%TD*%
D52*
%TO.C,D10*%
X27607500Y-120710000D03*
X23607500Y-120710000D03*
%TD*%
D36*
%TO.C,C87*%
X89700000Y-112135000D03*
X89700000Y-111175000D03*
%TD*%
D22*
%TO.C,R26*%
X89710000Y-106420000D03*
X90730000Y-106420000D03*
%TD*%
D54*
%TO.C,R67*%
X33250000Y-117075000D03*
X33250000Y-118725000D03*
%TD*%
D55*
%TO.C,R72*%
X51220000Y-137435000D03*
X51220000Y-139260000D03*
%TD*%
D56*
%TO.C,U10*%
X55610000Y-137390000D03*
X55610000Y-136440000D03*
X55610000Y-135490000D03*
X53335000Y-135490000D03*
X53335000Y-137390000D03*
%TD*%
D36*
%TO.C,C43*%
X80800000Y-118630000D03*
X80800000Y-117670000D03*
%TD*%
D17*
%TO.C,R105*%
X94570000Y-112385000D03*
X94570000Y-111365000D03*
%TD*%
D22*
%TO.C,R84*%
X75680000Y-164390000D03*
X76700000Y-164390000D03*
%TD*%
D57*
%TO.C,R15*%
X27620000Y-123507500D03*
X27620000Y-126432500D03*
%TD*%
D58*
%TO.C,R98*%
X91060350Y-163150000D03*
X91060350Y-161150000D03*
%TD*%
D18*
%TO.C,R6*%
X65100000Y-96970000D03*
X63450000Y-96970000D03*
%TD*%
D22*
%TO.C,R81*%
X79740000Y-154280000D03*
X80760000Y-154280000D03*
%TD*%
D34*
%TO.C,Q7*%
X37854901Y-169859300D03*
X39754901Y-169859300D03*
X38804901Y-167984300D03*
%TD*%
D54*
%TO.C,R4*%
X66770000Y-107660000D03*
X66770000Y-109310000D03*
%TD*%
D59*
%TO.C,R61*%
X46450000Y-120150000D03*
X44450000Y-120150000D03*
%TD*%
D53*
%TO.C,R66*%
X45325000Y-113140000D03*
X39400000Y-113140000D03*
%TD*%
D19*
%TO.C,C38*%
X75180000Y-124850000D03*
X74220000Y-124850000D03*
%TD*%
D60*
%TO.C,D4*%
X27600000Y-128100000D03*
X27600000Y-131400000D03*
%TD*%
D22*
%TO.C,R103*%
X87990000Y-135350000D03*
X89010000Y-135350000D03*
%TD*%
D15*
%TO.C,R57*%
X67670000Y-116910000D03*
X67670000Y-117930000D03*
%TD*%
D13*
%TO.C,R76*%
X73040000Y-165100000D03*
X72020000Y-165100000D03*
%TD*%
D61*
%TO.C,Q6*%
X33044901Y-168904300D03*
X33044901Y-170804300D03*
X34919901Y-169854300D03*
%TD*%
D62*
%TO.C,C1*%
X64890000Y-103380000D03*
X65850000Y-103380000D03*
%TD*%
D32*
%TO.C,C13*%
X33437449Y-102065042D03*
X33437449Y-93759242D03*
%TD*%
D63*
%TO.C,R64*%
X36950000Y-119962500D03*
X36950000Y-118137500D03*
%TD*%
D41*
%TO.C,C47*%
X113295000Y-118050000D03*
X114845000Y-118050000D03*
%TD*%
D62*
%TO.C,C61*%
X57105000Y-136440000D03*
X58065000Y-136440000D03*
%TD*%
D13*
%TO.C,R51*%
X95950000Y-165610000D03*
X94930000Y-165610000D03*
%TD*%
D29*
%TO.C,C76*%
X86400000Y-137820000D03*
X86400000Y-138780000D03*
%TD*%
D17*
%TO.C,R30*%
X104670000Y-132280000D03*
X104670000Y-131260000D03*
%TD*%
D22*
%TO.C,R42*%
X87020000Y-93790000D03*
X88040000Y-93790000D03*
%TD*%
D15*
%TO.C,R41*%
X105960000Y-131390000D03*
X105960000Y-132410000D03*
%TD*%
D31*
%TO.C,C27*%
X89130000Y-128820000D03*
X89130000Y-129850000D03*
%TD*%
D36*
%TO.C,C80*%
X89520350Y-154905000D03*
X89520350Y-153945000D03*
%TD*%
D18*
%TO.C,R3*%
X68350000Y-106180000D03*
X66700000Y-106180000D03*
%TD*%
D17*
%TO.C,R63*%
X31910000Y-120350000D03*
X31910000Y-119330000D03*
%TD*%
D22*
%TO.C,R46*%
X65995000Y-129645000D03*
X67015000Y-129645000D03*
%TD*%
D41*
%TO.C,C35*%
X94180000Y-118920000D03*
X95730000Y-118920000D03*
%TD*%
D34*
%TO.C,Q2*%
X76810000Y-106717500D03*
X78710000Y-106717500D03*
X77760000Y-104842500D03*
%TD*%
D64*
%TO.C,D11*%
X34624999Y-147300000D03*
X34624999Y-146500000D03*
X34624999Y-145700000D03*
D65*
X33500000Y-147300000D03*
D66*
X33500000Y-146500000D03*
D65*
X33500000Y-146500000D03*
X33500000Y-145700000D03*
D64*
X32375001Y-147300000D03*
X32375001Y-146500000D03*
X32375001Y-145700000D03*
%TD*%
D19*
%TO.C,C5*%
X63700000Y-108270000D03*
X62740000Y-108270000D03*
%TD*%
D14*
%TO.C,SW1*%
X98810400Y-123070000D03*
X94340000Y-123070000D03*
%TD*%
D19*
%TO.C,C32*%
X89980000Y-131350000D03*
X89020000Y-131350000D03*
%TD*%
D29*
%TO.C,C30*%
X73040000Y-126670000D03*
X73040000Y-127630000D03*
%TD*%
D42*
%TO.C,C79*%
X95720350Y-162750000D03*
X97620350Y-162750000D03*
%TD*%
D15*
%TO.C,R43*%
X106410000Y-128500000D03*
X106410000Y-129520000D03*
%TD*%
D62*
%TO.C,C49*%
X66150000Y-119850000D03*
X67110000Y-119850000D03*
%TD*%
D22*
%TO.C,R95*%
X86050350Y-156155000D03*
X87070350Y-156155000D03*
%TD*%
D19*
%TO.C,C33*%
X75180000Y-127550000D03*
X74220000Y-127550000D03*
%TD*%
D67*
%TO.C,U9*%
X65970000Y-138000000D03*
X65970000Y-137500000D03*
X65970000Y-137000000D03*
X65970000Y-136500000D03*
X63170000Y-136500000D03*
X63170000Y-137000000D03*
X63170000Y-137500000D03*
X63170000Y-138000000D03*
%TD*%
D15*
%TO.C,R92*%
X98920350Y-156830000D03*
X98920350Y-157850000D03*
%TD*%
D61*
%TO.C,D13*%
X80527500Y-145495000D03*
X80527500Y-147395000D03*
X82402500Y-146445000D03*
%TD*%
D23*
%TO.C,C22*%
X99410000Y-151340000D03*
X99410000Y-149790000D03*
%TD*%
D68*
%TO.C,U13*%
X88280352Y-150864500D03*
X87330351Y-150864500D03*
X86380350Y-150864500D03*
X86380350Y-153595000D03*
X87330351Y-153595000D03*
X88280352Y-153595000D03*
%TD*%
D36*
%TO.C,C85*%
X95630000Y-112305000D03*
X95630000Y-111345000D03*
%TD*%
D22*
%TO.C,R90*%
X97930350Y-155630000D03*
X98950350Y-155630000D03*
%TD*%
D18*
%TO.C,R34*%
X92625000Y-125680000D03*
X90975000Y-125680000D03*
%TD*%
D36*
%TO.C,C25*%
X97716750Y-151037164D03*
X97716750Y-150077164D03*
%TD*%
D19*
%TO.C,C70*%
X79410000Y-152700000D03*
X78450000Y-152700000D03*
%TD*%
D69*
%TO.C,U7*%
X33869998Y-122860002D03*
D70*
X33869998Y-123510001D03*
X33869998Y-124160000D03*
X35770000Y-124160000D03*
X35770000Y-123510001D03*
X35770000Y-122860002D03*
%TD*%
D71*
%TO.C,Q9*%
X31100000Y-117360000D03*
X31100000Y-112800000D03*
%TD*%
D22*
%TO.C,R24*%
X96730000Y-99280000D03*
X97750000Y-99280000D03*
%TD*%
D13*
%TO.C,R102*%
X90330000Y-142600000D03*
X89310000Y-142600000D03*
%TD*%
D17*
%TO.C,R31*%
X103690000Y-132270000D03*
X103690000Y-131250000D03*
%TD*%
D13*
%TO.C,R23*%
X75205000Y-126350000D03*
X74185000Y-126350000D03*
%TD*%
D15*
%TO.C,R101*%
X88700350Y-159500000D03*
X88700350Y-160520000D03*
%TD*%
D42*
%TO.C,C77*%
X92060350Y-151480000D03*
X93960350Y-151480000D03*
%TD*%
D36*
%TO.C,C53*%
X35810000Y-129455000D03*
X35810000Y-128495000D03*
%TD*%
D42*
%TO.C,C75*%
X92060350Y-153710000D03*
X93960350Y-153710000D03*
%TD*%
D18*
%TO.C,R7*%
X65095000Y-98450000D03*
X63445000Y-98450000D03*
%TD*%
D22*
%TO.C,R107*%
X97970000Y-113755000D03*
X98990000Y-113755000D03*
%TD*%
D58*
%TO.C,R100*%
X93700350Y-163150000D03*
X93700350Y-161150000D03*
%TD*%
D62*
%TO.C,C58*%
X62890000Y-139000000D03*
X63850000Y-139000000D03*
%TD*%
D15*
%TO.C,R37*%
X112420000Y-159710000D03*
X112420000Y-160730000D03*
%TD*%
D72*
%TO.C,Q10*%
X35900000Y-116700000D03*
X35900000Y-114800000D03*
X34025000Y-115750000D03*
%TD*%
D32*
%TO.C,C48*%
X110650000Y-106840000D03*
X110650000Y-98534200D03*
%TD*%
D62*
%TO.C,C37*%
X90190000Y-124260000D03*
X91150000Y-124260000D03*
%TD*%
D22*
%TO.C,R19*%
X101160000Y-101240000D03*
X102180000Y-101240000D03*
%TD*%
D30*
%TO.C,U15*%
X88281667Y-137341667D03*
X88281667Y-138611667D03*
X88281667Y-139881667D03*
X88281667Y-141151667D03*
X93231667Y-141151667D03*
X93231667Y-139881667D03*
X93231667Y-138611667D03*
X93231667Y-137341667D03*
%TD*%
D17*
%TO.C,R12*%
X75460000Y-106742500D03*
X75460000Y-105722500D03*
%TD*%
%TO.C,R62*%
X43000000Y-120620000D03*
X43000000Y-119600000D03*
%TD*%
D12*
%TO.C,R2*%
X63460000Y-102060000D03*
X65110000Y-102060000D03*
%TD*%
D19*
%TO.C,C69*%
X74540000Y-154150000D03*
X73580000Y-154150000D03*
%TD*%
D15*
%TO.C,R52*%
X31274901Y-168934300D03*
X31274901Y-169954300D03*
%TD*%
D58*
%TO.C,R38*%
X73580000Y-136950000D03*
X73580000Y-134950000D03*
%TD*%
D36*
%TO.C,C74*%
X84370000Y-139890000D03*
X84370000Y-138930000D03*
%TD*%
D73*
%TO.C,J6*%
X94190000Y-167010000D03*
X94990000Y-167010000D03*
D74*
X96140000Y-167010000D03*
X97140000Y-167010000D03*
X97640000Y-167010000D03*
X98640000Y-167010000D03*
D73*
X100590000Y-167010000D03*
X99790000Y-167010000D03*
D74*
X99140000Y-167010000D03*
X98140000Y-167010000D03*
X96640000Y-167010000D03*
X95640000Y-167010000D03*
%TD*%
D21*
%TO.C,C64*%
X36295000Y-155735000D03*
X36295000Y-158685000D03*
%TD*%
D75*
%TO.C,C8*%
X56050000Y-116600000D03*
X54150000Y-116600000D03*
%TD*%
D22*
%TO.C,R29*%
X105300000Y-135820000D03*
X106320000Y-135820000D03*
%TD*%
D17*
%TO.C,R71*%
X57972500Y-134987500D03*
X57972500Y-133967500D03*
%TD*%
D53*
%TO.C,R73*%
X42330000Y-146500000D03*
X36405000Y-146500000D03*
%TD*%
D18*
%TO.C,R68*%
X63175000Y-140300000D03*
X61525000Y-140300000D03*
%TD*%
D25*
%TO.C,C67*%
X60920000Y-145170000D03*
X60920000Y-143270000D03*
%TD*%
D56*
%TO.C,U8*%
X41487500Y-121800000D03*
X41487500Y-120850000D03*
X41487500Y-119900000D03*
X39212500Y-119900000D03*
X39212500Y-121800000D03*
%TD*%
D24*
%TO.C,C12*%
X96685000Y-116230000D03*
X95135000Y-116230000D03*
%TD*%
D76*
%TO.C,R11*%
X56750000Y-101600000D03*
X54925000Y-101600000D03*
%TD*%
D13*
%TO.C,R79*%
X72490000Y-161640000D03*
X71470000Y-161640000D03*
%TD*%
D54*
%TO.C,R83*%
X78810000Y-157520000D03*
X78810000Y-159170000D03*
%TD*%
D17*
%TO.C,R54*%
X61010000Y-125580000D03*
X61010000Y-124560000D03*
%TD*%
D21*
%TO.C,C20*%
X38135000Y-105710000D03*
X38135000Y-108660000D03*
%TD*%
D36*
%TO.C,C39*%
X91100000Y-120830000D03*
X91100000Y-119870000D03*
%TD*%
D58*
%TO.C,R40*%
X79190000Y-139370000D03*
X79190000Y-137370000D03*
%TD*%
D77*
%TO.C,U1*%
X61259622Y-107020000D03*
X61759748Y-107020000D03*
X62259874Y-107020000D03*
X62760000Y-107020000D03*
D78*
X63483011Y-106296989D03*
X63483011Y-105796863D03*
X63483011Y-105296737D03*
X63483011Y-104796611D03*
D77*
X62760000Y-104073600D03*
X62259874Y-104073600D03*
X61759748Y-104073600D03*
X61259622Y-104073600D03*
D78*
X60536611Y-104796611D03*
X60536611Y-105296737D03*
X60536611Y-105796863D03*
X60536611Y-106296989D03*
%TD*%
D55*
%TO.C,R9*%
X61200000Y-108577500D03*
X61200000Y-110402500D03*
%TD*%
D62*
%TO.C,C14*%
X91650000Y-115500000D03*
X92610000Y-115500000D03*
%TD*%
D29*
%TO.C,C36*%
X87070000Y-132180000D03*
X87070000Y-133140000D03*
%TD*%
D21*
%TO.C,C62*%
X33870000Y-155735000D03*
X33870000Y-158685000D03*
%TD*%
D24*
%TO.C,C3*%
X82550000Y-107980000D03*
X81000000Y-107980000D03*
%TD*%
D59*
%TO.C,R70*%
X61350000Y-134800000D03*
X59350000Y-134800000D03*
%TD*%
D18*
%TO.C,R35*%
X92625000Y-127150000D03*
X90975000Y-127150000D03*
%TD*%
D62*
%TO.C,C65*%
X32210000Y-152180000D03*
X33170000Y-152180000D03*
%TD*%
D19*
%TO.C,C68*%
X77590000Y-152700000D03*
X76630000Y-152700000D03*
%TD*%
D26*
%TO.C,C24*%
X25365000Y-128067500D03*
X25365000Y-129967500D03*
%TD*%
D35*
%TO.C,C73*%
X71200000Y-157310000D03*
X71200000Y-154360000D03*
%TD*%
D36*
%TO.C,C29*%
X73047500Y-125777500D03*
X73047500Y-124817500D03*
%TD*%
D79*
%TO.C,L2*%
X91650000Y-128450000D03*
X91650000Y-129850000D03*
%TD*%
D26*
%TO.C,C78*%
X100720350Y-156030000D03*
X100720350Y-157930000D03*
%TD*%
D36*
%TO.C,C83*%
X96500000Y-110355000D03*
X96500000Y-109395000D03*
%TD*%
D15*
%TO.C,R17*%
X73100000Y-108420000D03*
X73100000Y-109440000D03*
%TD*%
D13*
%TO.C,R75*%
X75520000Y-163080000D03*
X74500000Y-163080000D03*
%TD*%
D12*
%TO.C,R5*%
X64875000Y-104640000D03*
X66525000Y-104640000D03*
%TD*%
D54*
%TO.C,R96*%
X84440350Y-162320000D03*
X84440350Y-163970000D03*
%TD*%
D24*
%TO.C,C9*%
X53400000Y-101800000D03*
X51850000Y-101800000D03*
%TD*%
D13*
%TO.C,R55*%
X35780000Y-131505000D03*
X34760000Y-131505000D03*
%TD*%
D53*
%TO.C,R65*%
X45325000Y-117100000D03*
X39400000Y-117100000D03*
%TD*%
D75*
%TO.C,C66*%
X73255000Y-163560000D03*
X71355000Y-163560000D03*
%TD*%
D29*
%TO.C,C55*%
X42900000Y-122150000D03*
X42900000Y-123110000D03*
%TD*%
D67*
%TO.C,U5*%
X66310000Y-118740000D03*
X66310000Y-118240000D03*
X66310000Y-117740000D03*
X66310000Y-117240000D03*
X63510000Y-117240000D03*
X63510000Y-117740000D03*
X63510000Y-118240000D03*
X63510000Y-118740000D03*
%TD*%
D29*
%TO.C,C56*%
X32090000Y-122270000D03*
X32090000Y-123230000D03*
%TD*%
D80*
%TO.C,Q11*%
X51140000Y-141590000D03*
X49240000Y-141590000D03*
X50190000Y-143465000D03*
%TD*%
D17*
%TO.C,R97*%
X88080350Y-156430000D03*
X88080350Y-155410000D03*
%TD*%
D42*
%TO.C,C4*%
X63020000Y-110440000D03*
X64920000Y-110440000D03*
%TD*%
D81*
%TO.C,C54*%
X44400000Y-122500000D03*
X47350000Y-122500000D03*
%TD*%
D82*
%TO.C,U3*%
X83000000Y-125600000D03*
D83*
X83550000Y-126150000D03*
X82450000Y-126150000D03*
D82*
X83000000Y-126700000D03*
D84*
X86800000Y-121253500D03*
X86400000Y-121253500D03*
X86000000Y-121253500D03*
X85600000Y-121253500D03*
X85200000Y-121253500D03*
X84800000Y-121253500D03*
X84400000Y-121253500D03*
X84000000Y-121253500D03*
X83600000Y-121253500D03*
X83200000Y-121253500D03*
X82800000Y-121253500D03*
X82400000Y-121253500D03*
X82000000Y-121253500D03*
X81600000Y-121253500D03*
X81200000Y-121253500D03*
X80800000Y-121253500D03*
X80400000Y-121253500D03*
X80000000Y-121253500D03*
X79600000Y-121253500D03*
X79200000Y-121253500D03*
D85*
X78103500Y-122350000D03*
X78103500Y-122750000D03*
X78103500Y-123150000D03*
X78103500Y-123550000D03*
X78103500Y-123950000D03*
X78103500Y-124350000D03*
X78103500Y-124750000D03*
X78103500Y-125150000D03*
X78103500Y-125550000D03*
X78103500Y-125950000D03*
X78103500Y-126350000D03*
X78103500Y-126750000D03*
X78103500Y-127150000D03*
X78103500Y-127550000D03*
X78103500Y-127950000D03*
X78103500Y-128350000D03*
X78103500Y-128750000D03*
X78103500Y-129150000D03*
X78103500Y-129550000D03*
X78103500Y-129950000D03*
D84*
X79200000Y-131046500D03*
X79600000Y-131046500D03*
X80000000Y-131046500D03*
X80400000Y-131046500D03*
X80800000Y-131046500D03*
X81200000Y-131046500D03*
X81600000Y-131046500D03*
X82000000Y-131046500D03*
X82400000Y-131046500D03*
X82800000Y-131046500D03*
X83200000Y-131046500D03*
X83600000Y-131046500D03*
X84000000Y-131046500D03*
X84400000Y-131046500D03*
X84800000Y-131046500D03*
X85200000Y-131046500D03*
X85600000Y-131046500D03*
X86000000Y-131046500D03*
X86400000Y-131046500D03*
X86800000Y-131046500D03*
D85*
X87896500Y-129950000D03*
X87896500Y-129550000D03*
X87896500Y-129150000D03*
X87896500Y-128750000D03*
X87896500Y-128350000D03*
X87896500Y-127950000D03*
X87896500Y-127550000D03*
X87896500Y-127150000D03*
X87896500Y-126750000D03*
X87896500Y-126350000D03*
X87896500Y-125950000D03*
X87896500Y-125550000D03*
X87896500Y-125150000D03*
X87896500Y-124750000D03*
X87896500Y-124350000D03*
X87896500Y-123950000D03*
X87896500Y-123550000D03*
X87896500Y-123150000D03*
X87896500Y-122750000D03*
X87896500Y-122350000D03*
D86*
X84133333Y-125016667D03*
X83000000Y-125016667D03*
X81866667Y-125016667D03*
X84133333Y-126150000D03*
X83000000Y-126150000D03*
X81866667Y-126150000D03*
X84133333Y-127283333D03*
X83000000Y-127283333D03*
X81866667Y-127283333D03*
%TD*%
D87*
%TO.C,C60*%
X43087100Y-155570000D03*
X51392900Y-155570000D03*
%TD*%
D43*
%TO.C,FB1*%
X92540000Y-118687500D03*
X92540000Y-117112500D03*
%TD*%
D15*
%TO.C,R82*%
X84340000Y-152700000D03*
X84340000Y-153720000D03*
%TD*%
D57*
%TO.C,R32*%
X81360000Y-137327500D03*
X81360000Y-140252500D03*
%TD*%
D36*
%TO.C,C41*%
X85900000Y-118630000D03*
X85900000Y-117670000D03*
%TD*%
D88*
%TO.C,R8*%
X65030000Y-108730000D03*
X65030000Y-107080000D03*
%TD*%
D21*
%TO.C,C19*%
X40764184Y-105713571D03*
X40764184Y-108663571D03*
%TD*%
D36*
%TO.C,C31*%
X82940000Y-118560000D03*
X82940000Y-117600000D03*
%TD*%
D12*
%TO.C,R106*%
X94620000Y-113765000D03*
X96270000Y-113765000D03*
%TD*%
D89*
%TO.C,U12*%
X90579582Y-155619999D03*
X90579582Y-156270000D03*
X90579582Y-156919999D03*
X90579582Y-157570000D03*
X90579582Y-158220001D03*
X90579582Y-158870000D03*
X90579582Y-159520001D03*
X96330350Y-159520001D03*
X96330350Y-158870000D03*
X96330350Y-158220001D03*
X96330350Y-157570000D03*
X96330350Y-156919999D03*
X96330350Y-156270000D03*
X96330350Y-155619999D03*
%TD*%
M02*
